<?xml version="1.0" encoding="UTF-8"?>
<svg version="1.1" xmlns="http://www.w3.org/2000/svg" width="512" height="512">
<path d="M0 0 C0.82113281 0.72058594 1.64226562 1.44117188 2.48828125 2.18359375 C3.36097656 2.93511719 4.23367188 3.68664063 5.1328125 4.4609375 C14.3765296 12.5682456 24.91084587 23.02872299 30.48828125 34.18359375 C46.60685114 28.32628247 46.60685114 28.32628247 58.54199219 17.16748047 C59.33740988 13.69558971 59.11882857 10.44845782 58.796875 6.92578125 C58.23259828 0.08303319 61.08939467 -5.33822799 65.23828125 -10.62890625 C70.89597612 -16.68664015 77.94254217 -20.40747993 86.22265625 -21.15234375 C96.95213399 -21.39375368 105.79568231 -20.14192318 113.95703125 -12.51953125 C121.35069416 -4.2959674 123.07018192 4.4180501 122.80078125 15.1953125 C122.3161748 23.76275076 118.57607459 30.29218084 112.48828125 36.18359375 C109.00441028 39.18359375 109.00441028 39.18359375 106.48828125 39.18359375 C106.82859375 40.35148437 107.16890625 41.519375 107.51953125 42.72265625 C112.0802502 58.48062737 116.30047731 74.32336608 120.48828125 90.18359375 C121.23231201 90.30694092 121.97634277 90.43028809 122.74291992 90.55737305 C124.21595581 90.81127808 124.21595581 90.81127808 125.71875 91.0703125 C126.68965576 91.23490967 127.66056152 91.39950684 128.66088867 91.5690918 C136.82735046 93.34398035 143.66710845 98.1244007 148.23828125 105.12109375 C153.54961882 113.74316507 154.01774746 124.46610864 151.80078125 134.203125 C148.56793418 142.97222267 142.85416193 149.0775457 134.48828125 153.18359375 C126.17273296 156.53095429 115.38932393 156.67879382 106.92578125 153.55859375 C98.35822726 149.44731784 92.90618142 143.1901668 89.375 134.41796875 C87.00486413 125.77271544 87.35346959 115.43431405 91.21484375 107.30078125 C94.08841658 102.52324605 97.67342419 98.10689982 102.48828125 95.18359375 C103.14828125 95.18359375 103.80828125 95.18359375 104.48828125 95.18359375 C104.14796875 94.01570312 103.80765625 92.8478125 103.45703125 91.64453125 C98.8963123 75.88656013 94.67608519 60.04382142 90.48828125 44.18359375 C89.74570068 44.06169678 89.00312012 43.9397998 88.23803711 43.81420898 C87.25714111 43.64606689 86.27624512 43.4779248 85.265625 43.3046875 C84.29616943 43.14154053 83.32671387 42.97839355 82.32788086 42.81030273 C77.37751796 41.71774134 73.1932144 39.59625265 69.30078125 36.37109375 C67.52749825 34.93591816 67.52749825 34.93591816 65.20629883 35.42553711 C62.16846423 36.2727909 59.88771395 37.49855534 57.1875 39.125 C56.21103516 39.70830078 55.23457031 40.29160156 54.22851562 40.89257812 C53.22111328 41.50423828 52.21371094 42.11589844 51.17578125 42.74609375 C50.14904297 43.36162109 49.12230469 43.97714844 48.06445312 44.61132812 C45.53507619 46.12895429 43.00994913 47.6532044 40.48828125 49.18359375 C41.60655059 52.71617791 42.86152588 56.16000967 44.2578125 59.58984375 C60.14748489 98.95439793 62.20776658 144.36109483 45.54296875 183.9296875 C44.33905509 186.70370018 43.08577289 189.45052209 41.80859375 192.19140625 C40.35371491 194.94346823 40.35371491 194.94346823 40.48828125 197.18359375 C44.22627306 199.85316139 48.26998259 202.06230671 52.23828125 204.37109375 C53.34945313 205.03818359 54.460625 205.70527344 55.60546875 206.39257812 C57.21035156 207.33133789 57.21035156 207.33133789 58.84765625 208.2890625 C59.83217773 208.86809326 60.81669922 209.44712402 61.83105469 210.04370117 C64.35333525 211.38459033 64.35333525 211.38459033 66.72021484 210.93457031 C69.47718774 209.76356111 71.82209369 208.11309341 74.29296875 206.4375 C82.28075774 201.8750796 92.6656785 201.85787825 101.5078125 203.87109375 C110.27691017 207.10394082 116.3822332 212.81771307 120.48828125 221.18359375 C123.83564179 229.49914204 123.98348132 240.28255107 120.86328125 248.74609375 C116.75200534 257.31364774 110.4948543 262.76569358 101.72265625 266.296875 C93.08695902 268.66439103 82.71161276 268.33501625 74.59765625 264.44140625 C67.16948999 260.01201822 62.68752563 254.30797689 59.29296875 246.3984375 C58.48828125 243.18359375 58.48828125 243.18359375 58.953125 239.625 C59.52797999 234.90738837 59.88786951 231.40600063 57.48828125 227.18359375 C51.75181349 222.04491194 38.45719805 212.18359375 30.48828125 212.18359375 C29.29977269 213.67684809 28.18967595 215.23260658 27.11328125 216.80859375 C0.79604338 253.78597861 -37.22172006 274.70762802 -81.3515625 282.703125 C-86.37409928 283.28319263 -91.45579607 283.18359375 -96.51171875 283.18359375 C-96.18171875 293.74359375 -95.85171875 304.30359375 -95.51171875 315.18359375 C-92.21171875 316.50359375 -88.91171875 317.82359375 -85.51171875 319.18359375 C-78.29952398 324.3858326 -73.8754115 330.56184222 -71.51171875 339.18359375 C-70.51320363 350.28336647 -71.16224673 359.91808035 -78.26171875 368.99609375 C-83.91941362 375.05382765 -90.96597967 378.77466743 -99.24609375 379.51953125 C-109.97557149 379.76094118 -118.81911981 378.50911068 -126.98046875 370.88671875 C-134.37413166 362.6631549 -136.09361942 353.9491374 -135.82421875 343.171875 C-135.34984968 334.7854252 -131.73652876 327.78164944 -125.51171875 322.18359375 C-121.14586227 318.8813251 -117.96382321 317.27401464 -112.51171875 316.18359375 C-112.51171875 305.29359375 -112.51171875 294.40359375 -112.51171875 283.18359375 C-115.48171875 283.18359375 -118.45171875 283.18359375 -121.51171875 283.18359375 C-123.28745635 282.98563424 -125.05934225 282.73834339 -126.81640625 282.4140625 C-127.72447021 282.24874023 -128.63253418 282.08341797 -129.56811523 281.91308594 C-130.49825439 281.73422852 -131.42839355 281.55537109 -132.38671875 281.37109375 C-133.35617432 281.19094727 -134.32562988 281.01080078 -135.32446289 280.82519531 C-141.10762068 279.72568016 -146.73780653 278.36875699 -152.390625 276.72265625 C-156.89717907 275.57734417 -160.21675234 275.492945 -164.32421875 277.68359375 C-165.04609375 278.17859375 -165.76796875 278.67359375 -166.51171875 279.18359375 C-167.17171875 279.18359375 -167.83171875 279.18359375 -168.51171875 279.18359375 C-168.94321228 280.27363457 -168.94321228 280.27363457 -169.38342285 281.38569641 C-170.40752086 283.92520853 -171.47165622 286.43939655 -172.56445312 288.94995117 C-172.96738586 289.8767569 -173.3703186 290.80356262 -173.78546143 291.75845337 C-174.22106384 292.75855438 -174.65666626 293.7586554 -175.10546875 294.7890625 C-176.05374955 296.97011667 -177.00199001 299.15118839 -177.95019531 301.33227539 C-178.44910278 302.47922882 -178.94801025 303.62618225 -179.46203613 304.80789185 C-187.27322611 322.76824496 -195.0603178 340.73835812 -202.76171875 358.74609375 C-209.7176407 375.00843797 -216.69962146 391.25927787 -223.73022461 407.48950195 C-224.51161831 409.29375557 -225.29295056 411.09803579 -226.07421875 412.90234375 C-226.45304703 413.77718918 -226.83187531 414.65203461 -227.22218323 415.5533905 C-229.32272624 420.41127535 -231.40489114 425.27630575 -233.46308899 430.15228271 C-234.64086328 432.94176965 -235.82594092 435.72812486 -237.01156616 438.51428223 C-237.79198501 440.35746456 -238.56091852 442.2054971 -239.3293457 444.05371094 C-242.05266655 450.44291462 -244.98756875 455.89983531 -249.51171875 461.18359375 C-250.31899414 462.13419678 -250.31899414 462.13419678 -251.14257812 463.10400391 C-256.8490093 469.61418404 -265.81375374 474.53505933 -274.50366211 475.37646484 C-289.09338706 475.93675918 -300.78814515 474.39964092 -312.2890625 464.48828125 C-321.51777974 454.91896109 -325.91997043 443.06730599 -325.72265625 429.88671875 C-324.53029537 414.60683487 -315.36764043 403.45016358 -306.21875 391.91796875 C-302.72336703 387.49416714 -299.40729957 382.96254485 -296.13671875 378.37109375 C-290.7486113 370.82575815 -285.17198587 363.44100344 -279.53271484 356.08203125 C-274.45137889 349.4419958 -269.46503754 342.73811293 -264.51977539 335.99633789 C-260.39801619 330.37853711 -256.23159942 324.79655609 -252.04101562 319.22998047 C-248.24424271 314.17887184 -244.49901298 309.09130824 -240.76171875 303.99609375 C-235.65614989 297.03596536 -230.45240762 290.15785159 -225.19921875 283.30859375 C-211.76541217 267.92240614 -211.76541217 267.92240614 -207.51171875 249.18359375 C-209.90472699 243.09230006 -213.98930143 239.85230674 -218.8671875 235.6171875 C-223.28340851 231.55322045 -226.88139943 226.9472203 -230.51171875 222.18359375 C-231.31480469 221.14589844 -232.11789063 220.10820312 -232.9453125 219.0390625 C-252.05046911 193.75007509 -263.51171875 161.91544047 -263.51171875 130.18359375 C-279.35171875 130.67859375 -279.35171875 130.67859375 -295.51171875 131.18359375 C-296.83171875 134.48359375 -298.15171875 137.78359375 -299.51171875 141.18359375 C-304.7139576 148.39578852 -310.88996722 152.819901 -319.51171875 155.18359375 C-330.61149147 156.18210887 -340.24620535 155.53306577 -349.32421875 148.43359375 C-355.38195265 142.77589888 -359.10279243 135.72933283 -359.84765625 127.44921875 C-360.08906618 116.71974101 -358.83723568 107.87619269 -351.21484375 99.71484375 C-342.9912799 92.32118084 -334.2772624 90.60169308 -323.5 90.87109375 C-315.1135502 91.34546282 -308.10977444 94.95878374 -302.51171875 101.18359375 C-299.2094501 105.54945023 -297.60213964 108.73148929 -296.51171875 114.18359375 C-285.62171875 114.18359375 -274.73171875 114.18359375 -263.51171875 114.18359375 C-263.51171875 111.21359375 -263.51171875 108.24359375 -263.51171875 105.18359375 C-263.18507944 101.7297489 -262.57580167 98.34512661 -261.94921875 94.93359375 C-261.77575928 93.98701904 -261.6022998 93.04044434 -261.42358398 92.06518555 C-258.79263813 78.59817785 -254.46286302 65.35197785 -248.359375 53.046875 C-247.37368859 51.22135376 -247.37368859 51.22135376 -247.51171875 49.18359375 C-251.24971056 46.51402611 -255.29342009 44.30488079 -259.26171875 41.99609375 C-260.37289062 41.32900391 -261.4840625 40.66191406 -262.62890625 39.97460938 C-263.69882812 39.34876953 -264.76875 38.72292969 -265.87109375 38.078125 C-266.85561523 37.49909424 -267.84013672 36.92006348 -268.85449219 36.32348633 C-271.37677275 34.98259717 -271.37677275 34.98259717 -273.74365234 35.43261719 C-276.50062524 36.60362639 -278.84553119 38.25409409 -281.31640625 39.9296875 C-289.11791972 44.3857121 -299.63713696 44.64600732 -308.2734375 42.49609375 C-310.51609569 41.55676048 -312.46868464 40.49930772 -314.51171875 39.18359375 C-315.57132812 38.53003906 -315.57132812 38.53003906 -316.65234375 37.86328125 C-323.55818959 33.1826524 -327.30887899 27.18338024 -329.51171875 19.18359375 C-330.51023387 8.08382103 -329.86119077 -1.55089285 -322.76171875 -10.62890625 C-317.10402388 -16.68664015 -310.05745783 -20.40747993 -301.77734375 -21.15234375 C-291.04786601 -21.39375368 -282.20431769 -20.14192318 -274.04296875 -12.51953125 C-269.90827594 -7.92074027 -267.0160223 -2.82631801 -265.51171875 3.18359375 C-265.66511719 4.35792969 -265.81851563 5.53226563 -265.9765625 6.7421875 C-266.55141749 11.45979913 -266.91130701 14.96118687 -264.51171875 19.18359375 C-258.77525099 24.32227556 -245.48063555 34.18359375 -237.51171875 34.18359375 C-236.32321019 32.69033941 -235.21311345 31.13458092 -234.13671875 29.55859375 C-210.8968393 -3.09490775 -178.05394988 -23.88672277 -139.51171875 -33.81640625 C-138.83077148 -33.99719727 -138.14982422 -34.17798828 -137.44824219 -34.36425781 C-90.42989764 -46.24282502 -36.35720345 -30.95051765 0 0 Z " fill="#0055A3" transform="translate(359.51171875,36.81640625)"/>
<path d="M0 0 C1.81951172 0.40025391 1.81951172 0.40025391 3.67578125 0.80859375 C34.98705533 8.24791441 62.46700496 28.99973182 79.6171875 56.0546875 C86.95719322 68.01552007 92.1938097 80.50392217 96 94 C96.34160156 95.20140625 96.68320312 96.4028125 97.03515625 97.640625 C101.28647137 115.91139323 101.13450314 137.94204933 96 156 C95.70198486 157.05670898 95.70198486 157.05670898 95.39794922 158.13476562 C86.07543657 190.39694425 65.40424564 219.24002446 36.02001953 236.13867188 C6.67523228 252.08677132 -28.89395318 258.93414922 -61.58740234 249.73632812 C-96.66436637 239.03079043 -125.07908274 217.08071317 -142.75 184.75 C-153.86822736 163.55082837 -157.5259706 140.74381562 -157 117 C-156.98324219 115.96359375 -156.96648437 114.9271875 -156.94921875 113.859375 C-156.01285441 92.99182687 -148.24879758 70.88417764 -136 54 C-134.91525391 52.49179688 -134.91525391 52.49179688 -133.80859375 50.953125 C-113.33084112 23.09506559 -84.11641446 4.22699274 -50 -2 C-33.41550535 -4.35916028 -16.25676478 -4.02498678 0 0 Z " fill="#C7EEFD" transform="translate(285,35)"/>
<path d="M0 0 C7.33590199 4.77843157 11.62856456 11.65837182 14 20 C15.32339593 30.72647224 12.87791124 40.16037827 6.4375 48.875 C-1.84366145 57.71980071 -13.65379442 59.12721496 -25 60 C-25.33 91.35 -25.66 122.7 -26 155 C-42.413889 153.82757936 -42.413889 153.82757936 -49.1875 151.9375 C-49.97938721 151.72053467 -50.77127441 151.50356934 -51.5871582 151.2800293 C-72.27180551 145.34943755 -90.28295449 135.6140239 -105.55224609 120.42871094 C-106.9022596 119.09645477 -108.28784728 117.80051597 -109.67578125 116.5078125 C-128.68453019 98.47462921 -141.7837158 72.01240378 -145 46 C-145 42.04 -145 38.08 -145 34 C-113.65 34 -82.3 34 -50 34 C-50 29.38 -50 24.76 -50 20 C-48.80788023 16.42364069 -47.91138462 14.07846058 -46 11 C-45.57589844 10.30261719 -45.15179688 9.60523438 -44.71484375 8.88671875 C-34.18944364 -6.68149144 -15.79943285 -8.79292959 0 0 Z " fill="#C7EEFD" transform="translate(274,133)"/>
<path d="M0 0 C8.12903996 3.9433919 15.98090486 8.20390954 23.75 12.8125 C25.83796383 14.04134692 27.9265078 15.26920865 30.015625 16.49609375 C31.02689453 17.09019043 32.03816406 17.68428711 33.08007812 18.29638672 C39.33919271 21.94823467 45.66645528 25.47929426 52 29 C50.18717155 34.92282883 47.70358255 40.53761083 45.2578125 46.21875 C44.78180603 47.32963989 44.30579956 48.44052979 43.81536865 49.58508301 C42.25478121 53.22462581 40.6903357 56.86249803 39.125 60.5 C38.58657595 61.75193896 38.04818496 63.00389214 37.50982666 64.25585938 C35.31052214 69.36984697 33.11058951 74.48356209 30.90756226 79.59594727 C27.78191704 86.85040793 24.66908615 94.11010856 21.57144165 101.37658691 C19.77066448 105.59642341 17.96109752 109.81245016 16.14935303 114.02758789 C15.30632634 115.99393684 14.46695046 117.96185539 13.63140869 119.93139648 C12.47002746 122.66702414 11.29525085 125.39652308 10.1171875 128.125 C9.78684509 128.91217407 9.45650269 129.69934814 9.1161499 130.51037598 C3.34892132 143.73746354 -5.75645899 152.43360336 -19 158 C-29.46271686 161.03197652 -42.33769583 160.05905958 -52.13671875 155.6015625 C-63.77700289 149.09062594 -71.10820477 139.75643991 -75 127 C-77.93008254 114.74692756 -75.30158787 102.97789074 -69.109375 92.1875 C-65.31147956 86.448458 -60.98148336 81.1223305 -56.70703125 75.734375 C-53.21164828 71.31057339 -49.89558082 66.7789511 -46.625 62.1875 C-41.23843361 54.64432244 -35.66420501 47.26103296 -30.02539062 39.9050293 C-24.90074341 33.21006489 -19.88159727 26.44403745 -14.89819336 19.64355469 C-10.03336142 13.015672 -5.05321344 6.48534536 0 0 Z " fill="#FC6830" transform="translate(110,353)"/>
<path d="M0 0 C8.34468007 4.97590182 13.53387008 11.86345977 16.109375 21.2578125 C17.11708916 32.45984428 16.48657375 42.17041454 9.109375 51.1953125 C6.95902895 53.49770322 4.81757987 55.61354526 2.109375 57.2578125 C1.449375 57.2578125 0.789375 57.2578125 0.109375 57.2578125 C0.4496875 58.42570312 0.79 59.59359375 1.140625 60.796875 C5.70134395 76.55484612 9.92157106 92.39758483 14.109375 108.2578125 C14.85340576 108.38115967 15.59743652 108.50450684 16.36401367 108.6315918 C17.3460376 108.80086182 18.32806152 108.97013184 19.33984375 109.14453125 C20.31074951 109.30912842 21.28165527 109.47372559 22.28198242 109.64331055 C30.44844421 111.4181991 37.2882022 116.19861945 41.859375 123.1953125 C47.17071257 131.81738382 47.63884121 142.54032739 45.421875 152.27734375 C42.18902793 161.04644142 36.47525568 167.15176445 28.109375 171.2578125 C19.79382671 174.60517304 9.01041768 174.75301257 0.546875 171.6328125 C-8.02067899 167.52153659 -13.47272483 161.26438555 -17.00390625 152.4921875 C-19.37404212 143.84693419 -19.02543666 133.5085328 -15.1640625 125.375 C-12.29048967 120.5974648 -8.70548206 116.18111857 -3.890625 113.2578125 C-3.230625 113.2578125 -2.570625 113.2578125 -1.890625 113.2578125 C-2.2309375 112.08992188 -2.57125 110.92203125 -2.921875 109.71875 C-7.48259395 93.96077888 -11.70282106 78.11804017 -15.890625 62.2578125 C-16.63320557 62.13591553 -17.37578613 62.01401855 -18.14086914 61.88842773 C-19.12176514 61.72028564 -20.10266113 61.55214355 -21.11328125 61.37890625 C-22.08273682 61.21575928 -23.05219238 61.0526123 -24.05102539 60.88452148 C-29.00138829 59.79196009 -33.18569185 57.6704714 -37.078125 54.4453125 C-38.85231038 53.00964664 -38.85231038 53.00964664 -41.17919922 53.49975586 C-44.19685887 54.34342894 -46.41925218 55.5579742 -49.0859375 57.19921875 C-50.04886719 57.78251953 -51.01179688 58.36582031 -52.00390625 58.96679688 C-52.99777344 59.57845703 -53.99164063 60.19011719 -55.015625 60.8203125 C-56.99372556 62.03594058 -58.9753437 63.24586895 -60.9609375 64.44921875 C-61.83508301 64.98748291 -62.70922852 65.52574707 -63.60986328 66.08032227 C-65.890625 67.2578125 -65.890625 67.2578125 -68.890625 67.2578125 C-69.87282127 65.48865775 -70.85127859 63.71742681 -71.828125 61.9453125 C-72.37339844 60.95917969 -72.91867187 59.97304687 -73.48046875 58.95703125 C-74.890625 56.2578125 -74.890625 56.2578125 -75.890625 53.2578125 C-75.1793042 52.84418457 -74.4679834 52.43055664 -73.73510742 52.00439453 C-70.5155444 50.13150979 -67.29682588 48.25717848 -64.078125 46.3828125 C-62.39879883 45.40634766 -62.39879883 45.40634766 -60.68554688 44.41015625 C-59.61240234 43.78496094 -58.53925781 43.15976562 -57.43359375 42.515625 C-56.44383545 41.9395752 -55.45407715 41.36352539 -54.43432617 40.77001953 C-52.5539661 39.6521627 -50.71077336 38.47124474 -48.890625 37.2578125 C-48.60710154 34.70311694 -48.48023507 32.31577917 -48.453125 29.7578125 C-48.09740495 20.41207652 -46.13910878 12.79722443 -39.59375 5.7890625 C-28.99673947 -3.73852495 -12.95346121 -6.21592266 0 0 Z " fill="#01C0FA" transform="translate(465.890625,18.7421875)"/>
<path d="M0 0 C3.84116754 1.11802972 7.20424645 3.15275251 10.6640625 5.1328125 C11.77249512 5.76598389 12.88092773 6.39915527 14.02294922 7.05151367 C15.22376419 7.7424475 16.42444424 8.43361586 17.625 9.125 C18.87644597 9.84288771 20.12791113 10.56074198 21.37939453 11.27856445 C33.24102378 18.09462601 45.00695159 25.06915113 56.75927734 32.07177734 C62.06153923 35.22661118 67.37451184 38.36327512 72.6875 41.5 C74.5039097 42.57291083 76.32031632 43.64582686 78.13671875 44.71875 C79.42446349 45.47919322 80.71221719 46.23962126 82 47 C80.76585638 50.12288912 79.47670831 53.14022343 77.9375 56.125 C74.13908993 63.49248217 74.69588828 67.25756406 74 77 C42.32 77 10.64 77 -22 77 C-22 51.50516616 -19.12524978 23.19282436 -3 2 C-2.01 1.34 -1.02 0.68 0 0 Z " fill="#C7EEFD" transform="translate(150,90)"/>
<path d="M0 0 C3.50718525 1.33016321 6.72964362 2.87471393 9.9921875 4.72265625 C10.93827881 5.25737549 11.88437012 5.79209473 12.85913086 6.34301758 C13.85436768 6.91044678 14.84960449 7.47787598 15.875 8.0625 C16.89408447 8.64088623 17.91316895 9.21927246 18.96313477 9.81518555 C27.05050338 14.42113939 35.05965705 19.14547753 43 24 C41.85112887 27.61221644 40.61667691 31.00775797 38.875 34.375 C38.52179688 35.06335938 38.16859375 35.75171875 37.8046875 36.4609375 C37.53914063 36.96882813 37.27359375 37.47671875 37 38 C36.34 38 35.68 38 35 38 C34.7421875 38.72960937 34.484375 39.45921875 34.21875 40.2109375 C32.06904467 45.13045547 28.44799423 48.93090244 25 53 C24.25492187 53.89332031 23.50984375 54.78664062 22.7421875 55.70703125 C10.16301329 70.21667279 -5.56559453 80.25137535 -23 88 C-23.33 97.9 -23.66 107.8 -24 118 C-28.95 118 -33.9 118 -39 118 C-39.02312154 105.63081285 -39.04091412 93.26163081 -39.05181217 80.89242649 C-39.05704141 75.14954938 -39.0641398 69.40668699 -39.07543945 63.66381836 C-39.08626687 58.12660005 -39.09227652 52.58939596 -39.09487724 47.05216789 C-39.09673176 44.93455723 -39.10035286 42.81694738 -39.10573006 40.69934273 C-39.11293856 37.74428726 -39.11399102 34.78929129 -39.11352539 31.83422852 C-39.11712067 30.94950363 -39.12071594 30.06477875 -39.12442017 29.15324402 C-39.11405216 23.11405216 -39.11405216 23.11405216 -38 22 C-36.06372231 21.89192869 -34.12572244 21.8143775 -32.1875 21.75 C-22.74990947 21.08625737 -13.56218362 18.03091102 -7 11 C-5.29641097 8.41843837 -3.71781183 5.80378162 -2.19921875 3.109375 C-1 1 -1 1 0 0 Z " fill="#C8EFFD" transform="translate(287,170)"/>
<path d="M0 0 C15.74130478 17.99006261 15.1976409 51.05947833 14 73 C12.78820545 87.70640462 7.38091793 102.74732429 1 116 C-7.24991883 111.55805685 -15.38958481 106.94113788 -23.5 102.25 C-24.67702862 101.57151965 -25.85411171 100.8931338 -27.03125 100.21484375 C-35.6075487 95.2616342 -35.6075487 95.2616342 -39 93 C-38.40066243 89.71340337 -37.60979786 86.65663565 -36.4765625 83.515625 C-28.72636082 61.55916732 -25.52924037 40.31566749 -29 17 C-27.84213989 16.33411865 -27.84213989 16.33411865 -26.66088867 15.65478516 C-23.79225346 14.00439667 -20.92414857 12.35309407 -18.05639648 10.70117188 C-16.81604751 9.98693827 -15.57548941 9.2730677 -14.3347168 8.55957031 C-12.5494134 7.53285999 -10.7648707 6.50483853 -8.98046875 5.4765625 C-7.37014771 4.549646 -7.37014771 4.549646 -5.72729492 3.60400391 C-3.78300181 2.46050684 -1.8767966 1.25119773 0 0 Z " fill="#98E5FB" transform="translate(370,102)"/>
<path d="M0 0 C3.84616985 1.43461255 7.3046686 3.21662891 10.859375 5.265625 C11.97570312 5.90886719 13.09203125 6.55210937 14.2421875 7.21484375 C15.1079541 7.71733643 15.1079541 7.71733643 15.99121094 8.22998047 C17.72839082 9.23746763 19.46964347 10.23792159 21.2109375 11.23828125 C27.62833987 14.94857251 33.90354586 18.7812062 40 23 C38.8068864 26.27546093 37.59058409 28.81460432 35.3125 31.453125 C34.78406494 32.06776611 34.25562988 32.68240723 33.71118164 33.31567383 C33.1464917 33.95400146 32.58180176 34.5923291 32 35.25 C31.41404053 35.91604248 30.82808105 36.58208496 30.22436523 37.26831055 C9.18607761 60.87077393 -19.59165614 75.90503991 -51 80 C-53.64 80 -56.28 80 -59 80 C-59 70.1 -59 60.2 -59 50 C-56.15375 48.55625 -53.3075 47.1125 -50.375 45.625 C-29.88312863 34.95518535 -11.61243732 20.33128371 0 0 Z " fill="#98E5FB" transform="translate(322,208)"/>
<path d="M0 0 C5.22629098 0.51848125 9.11713855 3.20289276 13.5 5.875 C14.24636719 6.32230469 14.99273437 6.76960937 15.76171875 7.23046875 C16.85419922 7.88595703 16.85419922 7.88595703 17.96875 8.5546875 C18.66871094 8.97459961 19.36867188 9.39451172 20.08984375 9.82714844 C21.68023687 10.80366282 23.23581248 11.8366034 24.78125 12.8828125 C26.89631915 14.18757597 26.89631915 14.18757597 29.0703125 13.83984375 C31.87818816 12.6177926 34.27741831 10.96774264 36.8046875 9.25390625 C44.79247649 4.69148585 55.17739725 4.6742845 64.01953125 6.6875 C72.78862892 9.92034707 78.89395195 15.63411932 83 24 C86.34736054 32.31554829 86.49520007 43.09895732 83.375 51.5625 C79.26372409 60.13005399 73.00657305 65.58209983 64.234375 69.11328125 C55.59867777 71.48079728 45.22333151 71.1514225 37.109375 67.2578125 C29.67463917 62.82450706 25.20793365 57.11839165 21.796875 49.2109375 C21 46 21 46 21.53515625 42.4765625 C22.19320455 37.67037268 22.56396766 34.25465947 20 30 C12.07618137 23.21596785 2.30304809 18.58927008 -7 14 C-5.6571579 10.57300705 -4.19179964 7.39080462 -2.375 4.1875 C-1.92898438 3.39730469 -1.48296875 2.60710937 -1.0234375 1.79296875 C-0.68570312 1.20128906 -0.34796875 0.60960937 0 0 Z " fill="#01C0FA" transform="translate(397,234)"/>
<path d="M0 0 C7.43473583 4.43330544 11.90144135 10.13942085 15.3125 18.046875 C16.109375 21.2578125 16.109375 21.2578125 15.57421875 24.78125 C14.91617045 29.58743982 14.54540734 33.00315303 17.109375 37.2578125 C25.04823714 44.05472425 34.82119716 48.6106337 44.109375 53.2578125 C40.644375 60.1878125 40.644375 60.1878125 37.109375 67.2578125 C32.62596159 66.36112982 30.66608511 65.61276706 26.94921875 63.28125 C25.99080078 62.6934375 25.03238281 62.105625 24.04492188 61.5 C22.03989987 60.25126968 20.0373035 58.9986365 18.03710938 57.7421875 C17.07998047 57.15695313 16.12285156 56.57171875 15.13671875 55.96875 C13.83335571 55.15349854 13.83335571 55.15349854 12.50366211 54.32177734 C10.20655615 53.05680908 10.20655615 53.05680908 7.91577148 53.51831055 C5.12880057 54.65923971 2.7878385 56.31998806 0.3046875 58.00390625 C-7.49682597 62.45993085 -18.01604321 62.72022607 -26.65234375 60.5703125 C-28.89500194 59.63097923 -30.84759089 58.57352647 -32.890625 57.2578125 C-33.59703125 56.82210937 -34.3034375 56.38640625 -35.03125 55.9375 C-41.93709584 51.25687115 -45.68778524 45.25759899 -47.890625 37.2578125 C-48.88914012 26.15803978 -48.24009702 16.5233259 -41.140625 7.4453125 C-30.84272373 -3.5807232 -13.59449082 -6.52353083 0 0 Z " fill="#01C0FA" transform="translate(77.890625,18.7421875)"/>
<path d="M0 0 C5.28 0 10.56 0 16 0 C16.33 10.56 16.66 21.12 17 32 C20.3 33.32 23.6 34.64 27 36 C34.21219477 41.20223885 38.63630725 47.37824847 41 56 C41.99851512 67.09977272 41.34947202 76.7344866 34.25 85.8125 C28.59230513 91.8702339 21.54573908 95.59107368 13.265625 96.3359375 C2.53614726 96.57734743 -6.30740106 95.32551693 -14.46875 87.703125 C-21.86241291 79.47956115 -23.58190067 70.76554365 -23.3125 59.98828125 C-22.83813093 51.60183145 -19.22481001 44.59805569 -13 39 C-8.63414352 35.69773135 -5.45210446 34.09042089 0 33 C0 22.11 0 11.22 0 0 Z " fill="#01C0FA" transform="translate(247,320)"/>
<path d="M0 0 C6.33036731 3.77477458 10.96911111 8.52311432 14.109375 15.2578125 C14.604375 17.7328125 14.604375 17.7328125 15.109375 20.2578125 C25.999375 20.2578125 36.889375 20.2578125 48.109375 20.2578125 C48.109375 25.5378125 48.109375 30.8178125 48.109375 36.2578125 C32.269375 36.7528125 32.269375 36.7528125 16.109375 37.2578125 C14.129375 42.2078125 14.129375 42.2078125 12.109375 47.2578125 C6.90713615 54.47000727 0.73112653 58.89411975 -7.890625 61.2578125 C-18.99039772 62.25632762 -28.6251116 61.60728452 -37.703125 54.5078125 C-43.7608589 48.85011763 -47.48169868 41.80355158 -48.2265625 33.5234375 C-48.46797243 22.79395976 -47.21614193 13.95041144 -39.59375 5.7890625 C-28.99673947 -3.73852495 -12.95346121 -6.21592266 0 0 Z " fill="#01C0FA" transform="translate(47.890625,130.7421875)"/>
<path d="M0 0 C7.2711839 4.82840895 11.7051503 11.62935882 14 20 C14.99851512 31.09977272 14.34947202 40.7344866 7.25 49.8125 C1.59230513 55.8702339 -5.45426092 59.59107368 -13.734375 60.3359375 C-24.46385274 60.57734743 -33.30740106 59.32551693 -41.46875 51.703125 C-48.86241291 43.47956115 -50.58190067 34.76554365 -50.3125 23.98828125 C-49.83877943 15.61329638 -46.22962917 8.58724535 -40 3 C-37.77142863 1.37445382 -35.49885695 0.15826846 -33 -1 C-31.2675 -1.86625 -31.2675 -1.86625 -29.5 -2.75 C-19.9859503 -6.1002782 -8.65386194 -5.0756713 0 0 Z " fill="#7FD260" transform="translate(498,132)"/>
<path d="M0 0 C7.33590199 4.77843157 11.62856456 11.65837182 14 20 C15.32339593 30.72647224 12.87791124 40.16037827 6.4375 48.875 C1.56062855 54.08380511 -7.21204628 58.58573445 -14.34765625 59.203125 C-24.35142532 59.37585195 -32.16091433 57.60661228 -39.95703125 51.09375 C-46.46899984 44.41991603 -50.26116556 36.0105406 -50.375 26.6875 C-50.26383248 20.57328646 -49.17488016 16.2024516 -46 11 C-45.57589844 10.30132812 -45.15179688 9.60265625 -44.71484375 8.8828125 C-34.17648681 -6.6752075 -15.80622083 -8.79670733 0 0 Z " fill="#80D262" transform="translate(274,133)"/>
<path d="M0 0 C3.84116754 1.11802972 7.20424645 3.15275251 10.6640625 5.1328125 C12.32671143 6.08256958 12.32671143 6.08256958 14.02294922 7.05151367 C15.22376419 7.7424475 16.42444424 8.43361586 17.625 9.125 C18.87644597 9.84288771 20.12791113 10.56074198 21.37939453 11.27856445 C33.24102378 18.09462601 45.00695159 25.06915113 56.75927734 32.07177734 C62.06153923 35.22661118 67.37451184 38.36327512 72.6875 41.5 C74.5039097 42.57291083 76.32031632 43.64582686 78.13671875 44.71875 C79.42446349 45.47919322 80.71221719 46.23962126 82 47 C80.74244185 50.1807469 79.42552552 53.26313313 77.875 56.3125 C77.52179688 57.00988281 77.16859375 57.70726562 76.8046875 58.42578125 C76.53914063 58.94527344 76.27359375 59.46476562 76 60 C72.34116737 59.42859642 69.70328496 58.46671653 66.54296875 56.55078125 C65.26413818 55.78423218 65.26413818 55.78423218 63.95947266 55.00219727 C63.04472168 54.44459717 62.1299707 53.88699707 61.1875 53.3125 C59.19967005 52.11903965 57.21137262 50.92635768 55.22265625 49.734375 C54.19543457 49.11626953 53.16821289 48.49816406 52.10986328 47.86132812 C47.13936014 44.8863622 42.13270525 41.97426286 37.125 39.0625 C35.12623958 37.89854483 33.12754217 36.73448145 31.12890625 35.5703125 C30.12875488 34.98797852 29.12860352 34.40564453 28.09814453 33.80566406 C24.88537001 31.93319122 21.67484062 30.05691772 18.46484375 28.1796875 C17.39282715 27.55312256 16.32081055 26.92655762 15.21630859 26.28100586 C13.17846135 25.08981647 11.14099915 23.89796802 9.10400391 22.70532227 C3.44159946 19.39743053 -2.25161603 16.15623679 -8 13 C-6.72613729 7.61573254 -4.74167651 3.16111767 0 0 Z " fill="#F0FAFE" transform="translate(150,90)"/>
<path d="M0 0 C32.01 0 64.02 0 97 0 C96.67 4.95 96.34 9.9 96 15 C64.32 15 32.64 15 0 15 C0 10.05 0 5.1 0 0 Z " fill="#F1FAFE" transform="translate(128,152)"/>
<path d="M0 0 C4.62 0 9.24 0 14 0 C14 31.68 14 63.36 14 96 C9.05 96 4.1 96 -1 96 C-1.02312154 83.63081285 -1.04091412 71.26163081 -1.05181217 58.89242649 C-1.05704141 53.14954938 -1.0641398 47.40668699 -1.07543945 41.66381836 C-1.08626687 36.12660005 -1.09227652 30.58939596 -1.09487724 25.05216789 C-1.09673176 22.93455723 -1.10035286 20.81694738 -1.10573006 18.69934273 C-1.11293856 15.74428726 -1.11399102 12.78929129 -1.11352539 9.83422852 C-1.11712067 8.94950363 -1.12071594 8.06477875 -1.12442017 7.15324402 C-1.11405216 1.11405216 -1.11405216 1.11405216 0 0 Z " fill="#F1FAFF" transform="translate(249,192)"/>
<path d="M0 0 C24.8755339 3.5536477 49.93686721 24.99719224 64.72265625 44.2421875 C65.84880919 45.80437179 66.93176779 47.39765168 68 49 C66.53857269 52.75477514 64.75292668 54.06297013 61.28125 56.015625 C60.34925781 56.54414062 59.41726563 57.07265625 58.45703125 57.6171875 C57.48121094 58.15601563 56.50539063 58.69484375 55.5 59.25 C54.52417969 59.80429688 53.54835938 60.35859375 52.54296875 60.9296875 C45.29460437 65 45.29460437 65 43 65 C42.731875 64.175 42.46375 63.35 42.1875 62.5 C34.1291688 38.74912911 20.82703362 18.18317395 1.328125 2.171875 C0.88984375 1.78515625 0.4515625 1.3984375 0 1 C0 0.67 0 0.34 0 0 Z " fill="#98E4FB" transform="translate(294,38)"/>
<path d="M0 0 C0.53251766 1.91345327 1.05059483 3.8309295 1.5625 5.75 C1.85253906 6.81734375 2.14257812 7.8846875 2.44140625 8.984375 C2.99898856 11.99453965 3.10713659 13.21777122 2 16 C0.24780273 17.42529297 0.24780273 17.42529297 -2.06640625 18.7421875 C-3.3668689 19.49556396 -3.3668689 19.49556396 -4.69360352 20.26416016 C-5.64033936 20.7957373 -6.5870752 21.32731445 -7.5625 21.875 C-8.5330835 22.43364746 -9.50366699 22.99229492 -10.50366211 23.56787109 C-12.58040197 24.76296203 -14.66001931 25.95306382 -16.7421875 27.13867188 C-21.14038209 29.65154924 -25.51226401 32.20845237 -29.88452148 34.76611328 C-33.77877146 37.0439668 -37.67839165 39.31253688 -41.57836914 41.58056641 C-43.28113261 42.57863746 -44.96113576 43.61606449 -46.62280273 44.68115234 C-49 46 -49 46 -52 46 C-52.62762455 44.77217138 -53.25196065 43.54266164 -53.875 42.3125 C-54.22304688 41.62800781 -54.57109375 40.94351563 -54.9296875 40.23828125 C-56.0654682 37.86309022 -57.03224994 35.44773412 -58 33 C-43.10657344 24.12765737 -28.1801905 15.32255944 -13.14111328 6.69897461 C-12.1148584 6.10995361 -11.08860352 5.52093262 -10.03125 4.9140625 C-9.12955078 4.3979541 -8.22785156 3.8818457 -7.29882812 3.35009766 C-1.59457505 0 -1.59457505 0 0 0 Z " fill="#F1FAFE" transform="translate(338,104)"/>
<path d="M0 0 C0.75023437 0.20496094 1.50046875 0.40992188 2.2734375 0.62109375 C3.29695312 0.89050781 4.32046875 1.15992188 5.375 1.4375 C6.37273437 1.70433594 7.37046875 1.97117187 8.3984375 2.24609375 C17.87772023 4.23036877 27.47256554 4.23492011 37.125 4.25 C38.14981979 4.25350464 38.14981979 4.25350464 39.19534302 4.25708008 C49.51792855 4.27040599 58.97285467 3.48094317 69 1 C69 9.25 69 17.5 69 26 C44.44103225 25.20777523 20.91900624 16.28856715 1 2 C0.67 1.34 0.34 0.68 0 0 Z " fill="#98E4FA" transform="translate(179,262)"/>
<path d="M0 0 C5.07151379 17.23162073 9.57212699 34.5946367 14 52 C13.34773438 52.12117188 12.69546875 52.24234375 12.0234375 52.3671875 C7.21353658 53.28943989 2.60974535 54.30167277 -2 56 C-7.07151379 38.76837927 -11.57212699 21.4053633 -16 4 C-15.15695312 3.79503906 -14.31390625 3.59007813 -13.4453125 3.37890625 C-12.34960938 3.10949219 -11.25390625 2.84007813 -10.125 2.5625 C-9.03445313 2.29566406 -7.94390625 2.02882813 -6.8203125 1.75390625 C-0.25906736 0 -0.25906736 0 0 0 Z " fill="#DEF5FC" transform="translate(466,76)"/>
<path d="M0 0 C3.50718525 1.33016321 6.72964362 2.87471393 9.9921875 4.72265625 C10.93827881 5.25737549 11.88437012 5.79209473 12.85913086 6.34301758 C13.85436768 6.91044678 14.84960449 7.47787598 15.875 8.0625 C16.89408447 8.64088623 17.91316895 9.21927246 18.96313477 9.81518555 C27.05050338 14.42113939 35.05965705 19.14547753 43 24 C41.48525928 28.81714842 39.58417449 32.69304252 37 37 C33.03800449 36.41277408 30.22494579 35.19334981 26.7890625 33.15625 C25.79777344 32.57311035 24.80648438 31.9899707 23.78515625 31.38916016 C22.74230469 30.7657373 21.69945312 30.14231445 20.625 29.5 C19.02591797 28.55519775 19.02591797 28.55519775 17.39453125 27.59130859 C14.25825061 25.73542306 11.12816232 23.86952979 8 22 C7.14631836 21.49114258 6.29263672 20.98228516 5.41308594 20.45800781 C1.26703754 17.9856894 -2.87123826 15.50107683 -7 13 C-5.74361009 9.6476699 -4.31266112 6.69597385 -2.375 3.6875 C-1.92898438 2.99011719 -1.48296875 2.29273438 -1.0234375 1.57421875 C-0.51683594 0.79498047 -0.51683594 0.79498047 0 0 Z " fill="#F0FAFE" transform="translate(287,170)"/>
<path d="M0 0 C3 1 3 1 4.60546875 3.65234375 C5.38857422 5.27849609 5.38857422 5.27849609 6.1875 6.9375 C6.71730469 8.01902344 7.24710937 9.10054687 7.79296875 10.21484375 C9 13 9 13 9 15 C8.31897217 15.38333496 7.63794434 15.76666992 6.9362793 16.16162109 C3.85267067 17.89820594 0.77007527 19.63658158 -2.3125 21.375 C-3.38435547 21.97828125 -4.45621094 22.5815625 -5.56054688 23.203125 C-6.58857422 23.78320312 -7.61660156 24.36328125 -8.67578125 24.9609375 C-9.62364502 25.49509277 -10.57150879 26.02924805 -11.5480957 26.57958984 C-13.40444072 27.65498717 -15.21496679 28.80997786 -17 30 C-17.99 30 -18.98 30 -20 30 C-20.98219627 28.23084525 -21.96065359 26.45961431 -22.9375 24.6875 C-23.48277344 23.70136719 -24.02804687 22.71523437 -24.58984375 21.69921875 C-26 19 -26 19 -27 16 C-26.2886792 15.58637207 -25.5773584 15.17274414 -24.84448242 14.74658203 C-21.6249194 12.87369729 -18.40620088 10.99936598 -15.1875 9.125 C-14.06794922 8.47402344 -12.94839844 7.82304688 -11.79492188 7.15234375 C-10.72177734 6.52714844 -9.64863281 5.90195312 -8.54296875 5.2578125 C-7.55321045 4.6817627 -6.56345215 4.10571289 -5.54370117 3.51220703 C-3.6633411 2.3943502 -1.82014836 1.21343224 0 0 Z " fill="#DCF5FC" transform="translate(417,56)"/>
<path d="M0 0 C3.82122393 1.42114154 7.22622205 3.19189532 10.73828125 5.2578125 C12.33833008 6.19560547 12.33833008 6.19560547 13.97070312 7.15234375 C15.07349609 7.80332031 16.17628906 8.45429687 17.3125 9.125 C18.43462891 9.78371094 19.55675781 10.44242188 20.71289062 11.12109375 C23.47707186 12.74431507 26.23877772 14.37175037 29 16 C26.69 20.62 24.38 25.24 22 30 C17.56930864 29.11386173 15.49227118 28.34159589 11.76953125 26.09375 C10.80208984 25.51496094 9.83464844 24.93617187 8.83789062 24.33984375 C7.83951172 23.73269531 6.84113281 23.12554687 5.8125 22.5 C3.8192166 21.30174029 1.82573693 20.10380699 -0.16796875 18.90625 C-1.04735107 18.37322266 -1.9267334 17.84019531 -2.83276367 17.29101562 C-4.94412432 15.99729813 -4.94412432 15.99729813 -7 15 C-5.63408831 11.45756548 -4.09068516 8.07372071 -2.375 4.6875 C-1.70597656 3.36298828 -1.70597656 3.36298828 -1.0234375 2.01171875 C-0.68570313 1.34785156 -0.34796875 0.68398438 0 0 Z " fill="#DDF5FC" transform="translate(93,56)"/>
<path d="M0 0 C5.18967576 0.52307009 9.02413493 3.15406059 13.375 5.8125 C14.8409213 6.69438375 16.30706476 7.57589834 17.7734375 8.45703125 C18.47823242 8.88322754 19.18302734 9.30942383 19.90917969 9.74853516 C22.91314429 11.54656441 25.95323527 13.27564371 29 15 C27.63408831 18.54243452 26.09068516 21.92627929 24.375 25.3125 C23.92898438 26.19550781 23.48296875 27.07851563 23.0234375 27.98828125 C22.51683594 28.98408203 22.51683594 28.98408203 22 30 C18.17877607 28.57885846 14.77377795 26.80810468 11.26171875 24.7421875 C9.66166992 23.80439453 9.66166992 23.80439453 8.02929688 22.84765625 C6.92650391 22.19667969 5.82371094 21.54570312 4.6875 20.875 C3.00430664 19.88693359 3.00430664 19.88693359 1.28710938 18.87890625 C-1.47708656 17.2556763 -4.23936632 15.62927846 -7 14 C-5.6571579 10.57300705 -4.19179964 7.39080462 -2.375 4.1875 C-1.92898438 3.39730469 -1.48296875 2.60710937 -1.0234375 1.79296875 C-0.68570312 1.20128906 -0.34796875 0.60960937 0 0 Z " fill="#DDF5FC" transform="translate(397,234)"/>
<path d="M0 0 C5.28 0 10.56 0 16 0 C16 10.56 16 21.12 16 32 C8.08 32.495 8.08 32.495 0 33 C0 22.11 0 11.22 0 0 Z " fill="#DEF5FD" transform="translate(247,320)"/>
<path d="M0 0 C10.89 0 21.78 0 33 0 C33 5.28 33 10.56 33 16 C22.44 16 11.88 16 1 16 C0.67 10.72 0.34 5.44 0 0 Z " fill="#DEF6FD" transform="translate(63,151)"/>
<path d="M0 0 C0 9.9 0 19.8 0 30 C-4.95 30 -9.9 30 -15 30 C-15 21.75 -15 13.5 -15 5 C-1.66666667 0 -1.66666667 0 0 0 Z " fill="#C8EFFD" transform="translate(263,258)"/>
</svg>
