<?xml version="1.0" standalone="no"?>
<!DOCTYPE svg PUBLIC "-//W3C//DTD SVG 20010904//EN"
 "http://www.w3.org/TR/2001/REC-SVG-20010904/DTD/svg10.dtd">
<svg version="1.0" xmlns="http://www.w3.org/2000/svg"
 width="480.000000pt" height="360.000000pt" viewBox="0 0 480.000000 360.000000"
 preserveAspectRatio="xMidYMid meet">

<g transform="translate(0.000000,360.000000) scale(0.100000,-0.100000)"
fill="#000000" stroke="none">
<path d="M0 1800 l0 -1800 2400 0 2400 0 0 1800 0 1800 -2400 0 -2400 0 0
-1800z m2890 810 c0 -5 -4 -10 -10 -10 -5 0 -10 5 -10 10 0 6 5 10 10 10 6 0
10 -4 10 -10z m0 -165 c0 -8 -4 -15 -9 -15 -5 0 -11 7 -15 15 -3 9 0 15 9 15
8 0 15 -7 15 -15z m-560 -55 c0 -25 -4 -30 -23 -30 -31 0 -35 5 -29 35 3 18
11 25 28 25 20 0 24 -5 24 -30z m488 18 c7 -7 12 -34 12 -62 l0 -50 20 22 c24
26 25 32 4 32 -20 0 -15 29 9 44 14 8 20 8 27 -4 5 -8 8 -20 6 -27 -3 -6 4
-13 14 -16 17 -4 18 -9 8 -38 -6 -19 -15 -42 -20 -53 -6 -10 -6 -21 -1 -25 10
-7 29 -47 38 -78 5 -20 2 -23 -19 -23 -19 0 -26 -5 -26 -20 0 -29 -29 -25 -41
7 -7 20 -6 28 3 35 10 6 10 8 1 8 -7 0 -13 10 -14 23 -1 24 -4 18 -13 -25 -5
-21 -12 -28 -31 -28 -28 0 -27 -5 -28 157 0 55 3 108 6 117 8 19 28 21 45 4z
m207 -18 c0 -21 -5 -26 -32 -28 -31 -3 -33 -1 -33 28 0 29 2 31 33 28 27 -2
32 -7 32 -28z m-1015 -10 c0 -23 5 -30 19 -30 24 0 39 -39 20 -51 -8 -5 -20
-9 -26 -9 -9 0 -13 -18 -13 -55 0 -48 3 -55 19 -55 24 0 33 -13 25 -34 -4 -11
-19 -16 -45 -16 -35 0 -40 3 -54 36 -8 20 -15 56 -15 80 0 23 -4 46 -10 49
-15 9 -12 31 6 49 8 9 12 21 9 26 -10 16 15 40 41 40 20 0 24 -5 24 -30z
m1440 -25 c0 -14 -6 -25 -13 -25 -10 0 -13 -13 -13 -42 1 -35 -3 -45 -21 -53
-13 -5 -23 -13 -23 -17 0 -5 -16 -8 -36 -8 -51 0 -33 -16 27 -24 59 -8 79 -23
79 -61 0 -43 -35 -64 -107 -65 -72 0 -99 17 -88 59 3 14 6 41 5 59 0 17 4 32
10 32 13 0 13 37 0 45 -18 11 -10 51 15 73 18 15 38 22 69 22 30 0 46 5 50 15
3 8 15 15 26 15 15 0 20 -7 20 -25z m-2044 -16 c4 -8 9 -8 17 0 18 18 58 12
78 -11 15 -16 19 -37 19 -91 0 -83 -15 -107 -67 -107 -31 0 -33 -2 -33 -35 0
-33 -2 -35 -35 -35 l-35 0 0 138 c0 76 3 142 7 145 10 11 41 8 49 -4z m290 -3
c27 -27 35 -68 28 -138 -6 -63 -8 -68 -30 -68 -15 0 -24 6 -24 16 0 14 -1 14
-16 0 -25 -25 -81 -21 -99 8 -29 44 7 106 61 106 12 0 27 7 34 15 10 12 9 16
-5 21 -9 4 -21 2 -28 -5 -13 -13 -67 -15 -67 -2 0 4 12 20 26 35 30 30 95 36
120 12z m196 -6 c21 -19 21 -21 5 -37 -14 -15 -21 -15 -37 -5 -23 14 -50 16
-50 4 0 -5 21 -20 48 -33 40 -21 47 -29 50 -57 5 -48 -20 -72 -73 -72 -46 0
-72 15 -77 45 -2 15 3 21 25 23 15 2 27 -1 27 -7 0 -6 11 -11 25 -11 29 0 34
18 8 26 -64 21 -83 37 -83 74 0 64 84 95 132 50z m316 0 c12 -12 22 -32 22
-45 0 -13 5 -27 10 -30 25 -15 5 -25 -50 -25 -57 0 -60 -1 -60 -25 0 -20 5
-25 25 -25 16 0 25 6 25 15 0 9 9 15 25 15 20 0 25 -5 25 -23 0 -39 -31 -59
-86 -55 -41 3 -50 7 -65 33 -33 57 -19 150 26 172 34 18 80 14 103 -7z m124
-42 c3 -119 2 -173 -5 -200 -6 -24 -12 -28 -46 -28 -35 0 -38 2 -33 25 2 14 8
25 13 25 4 0 8 8 8 18 -1 93 3 196 8 207 3 8 16 15 29 15 23 0 24 -4 26 -62z
m183 46 c24 -15 25 -21 25 -110 0 -93 0 -94 -24 -94 -14 0 -28 5 -32 11 -4 8
-9 8 -17 0 -18 -18 -78 -13 -93 7 -17 21 -17 44 -2 77 8 19 22 27 51 32 21 3
41 12 44 20 8 21 -6 29 -27 15 -28 -17 -70 -15 -70 3 0 47 94 72 145 39z m188
2 c9 -7 17 -20 17 -29 0 -9 5 -19 10 -22 18 -11 0 -25 -31 -25 -19 0 -29 5
-29 14 0 26 -20 28 -30 2 -12 -32 -1 -96 16 -96 8 0 14 7 14 15 0 10 10 15 34
15 l34 0 -15 -32 c-21 -42 -30 -48 -72 -48 -57 0 -81 31 -81 105 0 54 4 66 26
89 30 29 77 34 107 12z m322 -96 l0 -105 -32 -3 -33 -3 0 95 c0 115 4 128 39
124 l26 -3 0 -105z m191 95 c10 -10 14 -42 14 -110 l0 -96 -32 3 -33 3 -3 83
c-2 60 -6 82 -15 79 -7 -2 -14 -34 -17 -83 l-5 -79 -30 0 -30 0 -3 94 c-1 52
-1 100 2 106 6 17 135 17 152 0z m408 -371 c3 -9 6 -85 6 -169 0 -144 -1 -155
-20 -165 -14 -7 -386 -10 -1227 -8 l-1208 3 -3 172 c-2 157 -1 172 15 176 10
3 561 5 1224 6 1092 1 1207 -1 1213 -15z m226 -39 c0 -8 -7 -15 -15 -15 -16 0
-20 12 -8 23 11 12 23 8 23 -8z m-3 -177 c-3 -8 -6 -5 -6 6 -1 11 2 17 5 13 3
-3 4 -12 1 -19z m213 -173 c0 -8 -4 -15 -10 -15 -5 0 -10 7 -10 15 0 8 5 15
10 15 6 0 10 -7 10 -15z m8 -73 c3 -28 0 -32 -22 -32 -20 0 -26 5 -26 23 0 26
19 49 35 44 5 -2 11 -18 13 -35z m4 -59 c8 -30 -2 -46 -18 -32 -11 9 -14 9
-14 0 0 -7 -4 -10 -8 -7 -7 4 -8 37 -3 54 4 11 40 -2 43 -15z m-2475 -530 c-3
-10 -5 -4 -5 12 0 17 2 24 5 18 2 -7 2 -21 0 -30z m-7 -53 c0 -5 -5 -10 -11
-10 -5 0 -7 5 -4 10 3 6 8 10 11 10 2 0 4 -4 4 -10z"/>
<path d="M3330 2280 c0 -19 5 -30 14 -30 17 0 28 24 20 45 -11 27 -34 17 -34
-15z"/>
<path d="M3314 2125 c-4 -9 -4 -18 -1 -21 11 -12 68 -10 78 2 12 14 5 19 -39
29 -25 5 -33 3 -38 -10z"/>
<path d="M1420 2240 c0 -53 2 -60 20 -60 11 0 20 3 21 8 0 4 2 18 4 32 5 33
-14 80 -31 80 -10 0 -14 -16 -14 -60z"/>
<path d="M1622 2218 c-18 -18 -14 -38 7 -38 17 0 31 18 31 41 0 13 -24 11 -38
-3z"/>
<path d="M2130 2285 c0 -9 9 -15 25 -15 16 0 25 6 25 15 0 9 -9 15 -25 15 -16
0 -25 -6 -25 -15z"/>
<path d="M2436 2214 c-10 -26 -7 -34 14 -34 15 0 20 7 20 25 0 28 -24 34 -34
9z"/>
<path d="M1187 1953 c-4 -3 -7 -75 -7 -160 l0 -153 1214 0 c1038 0 1215 2
1219 14 9 23 5 269 -5 289 -8 16 -76 17 -1212 17 -661 0 -1206 -3 -1209 -7z
m217 -89 c3 -9 2 -23 -3 -31 -7 -13 -10 -12 -24 7 -13 18 -18 20 -36 11 -29
-16 -26 -29 7 -37 47 -10 52 -13 64 -39 10 -22 8 -28 -12 -45 -14 -13 -37 -20
-62 -20 -36 0 -38 2 -38 30 0 17 5 30 10 30 6 0 10 -7 10 -15 0 -10 10 -15 31
-15 42 0 35 29 -11 45 -27 9 -36 18 -38 39 -2 15 2 34 9 42 16 20 85 19 93 -2z
m98 -3 c-1 -7 1 -23 5 -35 6 -18 8 -16 13 14 4 27 10 36 28 38 29 4 29 -17 -3
-74 -29 -52 -31 -64 -9 -64 32 0 6 -25 -29 -28 -28 -2 -37 1 -37 12 0 9 7 16
15 16 8 0 15 7 15 16 0 17 -30 75 -44 85 -5 4 -6 15 -3 24 8 20 53 16 49 -4z
m221 7 c2 -7 1 -22 -3 -32 -6 -18 -7 -18 -23 5 -19 26 -20 26 -41 7 -18 -17
-2 -38 28 -38 44 0 62 -52 30 -85 -23 -23 -98 -17 -102 9 -6 27 17 46 29 24
11 -20 44 -24 55 -7 8 13 -11 27 -48 35 -32 7 -43 40 -22 71 11 17 24 23 53
23 22 0 41 -5 44 -12z m185 -25 c2 -25 -1 -33 -12 -33 -9 0 -16 7 -16 15 0 8
-4 15 -10 15 -5 0 -10 -22 -10 -50 0 -40 3 -50 17 -50 12 0 14 -3 6 -11 -15
-15 -45 -18 -66 -7 -17 9 -17 11 -2 22 12 9 14 21 9 54 -6 40 -24 60 -24 27 0
-8 -7 -15 -15 -15 -19 0 -21 56 -2 64 6 2 37 4 67 3 54 -2 55 -2 58 -34z m160
25 c18 -18 16 -62 -3 -54 -21 8 -20 -30 1 -42 9 -5 14 -18 12 -33 -3 -22 -7
-24 -63 -24 l-60 0 3 66 c2 41 0 69 -7 74 -23 13 2 25 53 25 28 0 57 -5 64
-12z m107 -16 c13 -28 19 -28 34 4 7 15 18 24 28 22 14 -2 16 -14 14 -70 -2
-45 1 -68 9 -68 6 0 8 -4 5 -10 -8 -13 -55 -13 -55 -1 0 6 5 13 10 16 6 3 10
13 10 21 0 12 -3 12 -20 2 -17 -11 -22 -10 -29 0 -6 11 -10 10 -15 -4 -4 -11
-2 -20 3 -22 23 -8 9 -22 -20 -22 -24 0 -30 3 -25 16 3 9 6 45 6 81 0 56 2 64
18 61 9 -2 21 -13 27 -26z m329 22 c20 -8 21 -54 2 -54 -8 0 -18 -9 -21 -21
-5 -14 -13 -19 -25 -16 -11 3 -21 -1 -24 -10 -8 -19 1 -33 20 -33 17 0 19 -16
2 -22 -7 -3 -24 -2 -37 1 -22 6 -23 11 -23 79 1 39 1 74 1 77 1 7 86 6 105 -1z
m124 -6 c5 -7 18 -38 28 -68 11 -30 22 -56 27 -58 19 -9 3 -22 -28 -22 -34 0
-48 14 -22 23 8 3 6 7 -5 12 -10 4 -26 4 -35 1 -15 -6 -15 -8 -3 -17 13 -7 13
-10 1 -18 -7 -5 -22 -6 -32 -4 -22 6 -36 23 -20 23 6 0 11 11 11 25 0 14 5 25
10 25 6 0 10 16 10 35 0 21 -5 35 -12 35 -9 0 -8 4 2 10 21 14 56 12 68 -2z
m187 3 c3 -5 -5 -11 -17 -13 -21 -3 -23 -8 -23 -58 0 -50 2 -55 23 -58 12 -2
20 -8 17 -13 -8 -12 -102 -12 -110 1 -4 6 5 10 19 10 25 0 26 2 26 60 0 53 -2
60 -20 60 -11 0 -20 5 -20 10 0 13 97 13 105 1z m125 0 c0 -5 -7 -11 -15 -15
-18 -7 -21 -86 -3 -104 22 -22 48 -14 48 13 0 14 5 25 10 25 6 0 10 -16 10
-35 l0 -35 -65 0 c-37 0 -65 4 -65 10 0 6 7 10 15 10 12 0 15 13 15 60 0 47
-3 60 -15 60 -8 0 -15 5 -15 10 0 6 18 10 40 10 22 0 40 -4 40 -9z m140 -1 c0
-5 -5 -10 -11 -10 -18 0 -6 -101 13 -114 24 -15 31 -4 36 59 3 38 1 55 -7 55
-7 0 -9 5 -6 10 3 6 16 10 29 10 21 0 22 -3 19 -57 -6 -80 -19 -103 -57 -103
-50 0 -58 11 -58 79 0 33 -5 61 -10 61 -5 0 -6 5 -3 10 3 6 17 10 31 10 13 0
24 -4 24 -10z m237 -13 c7 -15 8 -29 2 -38 -12 -19 -11 -59 1 -59 6 0 10 -9
10 -21 0 -26 -28 -22 -44 6 -6 10 -17 26 -25 34 -13 14 -14 11 -8 -22 6 -36 5
-37 -23 -37 -16 0 -32 5 -35 10 -3 6 -1 10 4 10 7 0 11 24 11 60 0 36 -4 60
-11 60 -5 0 -7 5 -4 10 3 6 30 10 59 10 46 0 54 -3 63 -23z m171 -1 c3 -11 -2
-24 -10 -30 -8 -6 -17 -19 -21 -30 -4 -10 -13 -16 -21 -13 -16 6 -26 -11 -19
-30 8 -22 43 -15 43 7 0 11 4 20 9 20 16 0 23 -19 16 -40 -5 -17 -15 -20 -66
-20 -33 0 -59 4 -59 10 0 6 5 10 10 10 6 0 10 27 10 60 0 33 -4 60 -10 60 -5
0 -10 5 -10 10 0 7 24 10 62 8 53 -3 63 -6 66 -22z"/>
<path d="M2000 1823 c0 -10 4 -14 8 -8 4 6 11 13 16 18 5 4 2 7 -7 7 -10 0
-17 -8 -17 -17z"/>
<path d="M2000 1764 c0 -17 6 -24 19 -24 29 0 32 24 5 37 -22 10 -24 9 -24
-13z"/>
<path d="M2440 1836 c0 -9 7 -12 20 -9 11 3 17 9 14 14 -8 14 -34 10 -34 -5z"/>
<path d="M3250 1835 c0 -15 6 -25 14 -25 23 0 27 29 6 40 -17 9 -20 7 -20 -15z"/>
<path d="M3415 1850 c-7 -11 -8 -11 23 -14 13 -2 22 3 22 11 0 15 -36 18 -45
3z"/>
</g>
</svg>
