<?xml version="1.0" standalone="no"?>
<!DOCTYPE svg PUBLIC "-//W3C//DTD SVG 20010904//EN"
 "http://www.w3.org/TR/2001/REC-SVG-20010904/DTD/svg10.dtd">
<svg version="1.0" xmlns="http://www.w3.org/2000/svg"
 width="3159.000000pt" height="1921.000000pt" viewBox="0 0 3159.000000 1921.000000"
 preserveAspectRatio="xMidYMid meet">

<g transform="translate(0.000000,1921.000000) scale(0.100000,-0.100000)"
fill="#000000" stroke="none">
<path d="M0 9610 l0 -9600 15790 0 15790 0 0 9600 0 9600 -620 0 -620 0 0
-862 0 -863 -230 230 -230 230 -230 -230 -230 -230 0 863 0 862 -14710 0
-14710 0 0 -9600z m13952 8225 c214 -32 401 -127 559 -284 120 -119 202 -255
258 -429 l29 -87 133 -6 c161 -7 262 -37 374 -109 153 -100 250 -229 304 -405
27 -85 22 -124 -20 -159 -35 -29 -76 -33 -118 -11 -28 14 -38 33 -61 110 -73
244 -314 399 -565 364 -51 -7 -97 -23 -170 -59 -55 -28 -111 -50 -123 -50 -14
0 -39 15 -58 34 -60 60 -42 130 46 181 51 30 51 30 46 73 -8 63 -65 197 -117
277 -282 431 -894 489 -1250 118 -88 -91 -154 -201 -189 -312 l-17 -54 93 -32
c91 -31 175 -77 208 -114 60 -66 -7 -185 -95 -167 -14 3 -48 18 -75 35 -200
122 -449 94 -620 -71 -103 -98 -154 -217 -154 -358 0 -221 122 -395 339 -482
56 -23 59 -23 669 -28 l614 -5 29 -33 c42 -47 40 -93 -5 -138 l-35 -35 -613 3
-613 3 -80 25 c-121 38 -209 92 -301 184 -113 113 -169 214 -199 358 -73 344
118 688 449 813 39 14 92 30 120 36 27 5 51 11 53 13 2 2 13 36 24 76 101 365
426 661 789 720 41 6 82 13 90 15 42 8 166 3 252 -10z m2916 -1092 l3 -83
-126 0 -125 0 0 -355 0 -355 -90 0 -90 0 0 355 0 355 -115 0 -115 0 0 85 0 85
328 -2 327 -3 3 -82z m492 -232 l0 -78 -66 -6 c-73 -5 -105 -23 -141 -77 -22
-31 -23 -43 -23 -216 l0 -184 -90 0 -90 0 0 315 0 315 59 0 59 0 7 -61 7 -61
29 35 c53 64 116 92 217 96 l32 1 0 -79z m300 -75 c0 -192 10 -242 56 -285 34
-31 39 -33 95 -29 113 8 139 66 139 305 l0 153 80 0 80 0 0 -323 c-1 -316 -2
-324 -24 -373 -31 -65 -108 -139 -165 -159 -27 -9 -80 -15 -138 -15 -86 0
-100 3 -166 34 -40 18 -81 40 -92 49 -19 15 -18 16 25 65 25 27 50 50 55 51 6
0 37 -10 70 -24 132 -54 265 -9 265 90 l0 32 -47 -24 c-43 -22 -57 -24 -141
-20 -83 4 -98 8 -135 33 -55 39 -95 106 -107 179 -5 33 -10 138 -10 233 l0
172 80 0 80 0 0 -144z m-3302 -458 l2 -208 -51 0 -52 0 5 155 5 155 -33 -25
c-41 -31 -49 -31 -70 0 -16 24 -15 26 7 44 13 10 44 35 69 55 35 29 52 36 80
34 l35 -3 3 -207z m353 172 c37 -43 53 -116 46 -205 -9 -125 -43 -173 -130
-182 -59 -6 -106 21 -134 77 -32 62 -33 213 -2 277 28 58 59 74 133 70 53 -3
62 -7 87 -37z m659 -170 l0 -210 -45 0 -45 0 0 156 0 155 -37 -30 -36 -30 -19
25 c-11 13 -18 28 -16 33 2 5 32 32 67 60 48 39 72 51 97 51 l34 0 0 -210z
m344 180 c45 -40 58 -83 58 -191 0 -100 -18 -148 -65 -183 -34 -25 -110 -28
-150 -7 -58 31 -89 161 -68 276 18 98 57 135 143 135 39 0 54 -6 82 -30z m744
-602 l2 -178 165 0 165 0 2 178 3 177 88 3 87 3 0 -441 0 -440 -90 0 -90 0 -2
178 -3 177 -160 0 -160 0 -3 -177 -2 -178 -90 0 -90 0 0 433 c0 239 3 437 7
441 4 4 43 6 88 4 l80 -3 3 -177z m2400 -60 l2 -238 36 0 c19 0 44 5 55 10 10
6 51 58 89 115 l70 105 86 0 c67 0 85 -3 81 -13 -11 -28 -150 -233 -178 -263
l-29 -30 21 -20 c20 -17 115 -154 183 -261 l26 -43 -90 0 -90 0 -63 98 c-75
116 -105 142 -158 142 l-39 0 0 -120 0 -120 -85 0 -85 0 0 433 c0 239 3 437 7
441 4 4 41 5 83 4 l75 -3 3 -237z m-4500 -151 l2 -208 -47 3 -48 3 1 152 c0
138 -1 151 -16 143 -9 -5 -22 -16 -30 -24 -18 -23 -37 -20 -56 9 -9 14 -15 27
-13 28 2 2 27 21 54 43 68 56 85 64 120 61 l30 -2 3 -208z m330 1 l2 -208 -45
0 -45 0 0 156 0 156 -34 -26 c-43 -32 -50 -32 -70 -2 -15 24 -14 25 32 63 76
63 95 74 127 71 l30 -3 3 -207z m332 2 l0 -210 -45 0 -45 0 0 156 0 155 -33
-25 c-41 -32 -47 -32 -70 -1 l-17 24 71 55 c54 43 79 56 105 56 l34 0 0 -210z
m335 188 c46 -36 65 -91 65 -193 0 -138 -38 -203 -122 -212 -104 -12 -158 51
-166 192 -5 101 10 159 53 202 29 29 39 33 88 33 41 0 61 -5 82 -22z m2155
-49 c28 -6 73 -26 99 -44 l49 -32 6 39 6 39 53 -3 52 -3 3 -312 2 -313 -54 0
-54 0 -7 41 -7 41 -27 -25 c-52 -49 -90 -62 -181 -62 -98 1 -145 20 -211 86
-64 64 -83 117 -84 229 0 110 21 169 83 233 44 46 80 66 147 83 65 16 65 16
125 3z m880 -18 c47 -18 130 -75 130 -89 0 -4 -20 -29 -45 -56 l-44 -50 -51
28 c-45 25 -60 28 -116 24 -58 -4 -68 -8 -100 -39 -81 -81 -56 -227 46 -269
48 -20 133 -8 177 24 l38 27 48 -52 48 -52 -26 -27 c-15 -15 -50 -40 -78 -56
-46 -25 -63 -29 -137 -29 -121 0 -201 37 -265 125 -124 169 -54 415 139 489
68 26 170 27 236 2z m-4089 -497 c38 -34 52 -154 25 -218 -29 -70 -102 -87
-158 -37 -31 28 -33 34 -36 109 -4 89 12 141 51 161 30 15 94 7 118 -15z m462
6 c36 -29 50 -80 44 -163 -4 -64 -8 -74 -36 -99 -55 -49 -128 -32 -157 38 -8
18 -14 58 -14 89 0 97 39 155 106 155 17 0 43 -9 57 -20z m799 9 c30 -16 48
-70 48 -145 0 -105 -35 -154 -108 -154 -64 0 -102 60 -102 160 0 67 18 122 47
139 24 14 89 14 115 0z m238 -144 l0 -155 -30 0 -30 0 0 115 c0 63 -4 115 -8
115 -5 0 -17 -9 -27 -20 -17 -19 -19 -19 -37 -3 -10 9 -17 20 -16 24 8 21 96
79 121 79 l27 0 0 -155z m-1277 -3 c2 -140 1 -143 -20 -148 -38 -10 -43 3 -43
112 0 57 -3 104 -7 104 -3 0 -15 -7 -25 -16 -14 -14 -20 -14 -33 -4 -24 20
-18 33 27 68 30 23 51 32 71 30 l28 -3 2 -143z m475 1 l-3 -148 -30 0 -30 0
-3 108 c-1 59 -6 107 -9 107 -4 0 -15 -7 -25 -16 -14 -14 -20 -14 -33 -4 -23
19 -18 32 28 67 27 20 54 32 75 32 l33 1 -3 -147z m1387 -111 c6 -4 66 -77
133 -162 67 -85 138 -174 159 -198 l38 -43 53 68 c29 37 101 129 160 203 l108
135 52 3 52 3 0 -440 0 -441 -85 0 -85 0 -2 271 -3 271 -125 -161 c-69 -88
-127 -161 -130 -160 -3 0 -41 47 -85 106 -44 58 -99 126 -122 152 l-43 46 0
-263 0 -263 -92 3 c-89 3 -92 4 -91 26 0 12 1 209 2 437 l1 415 48 0 c26 0 52
-4 57 -8z m-1084 -82 c33 -18 49 -64 49 -142 0 -83 -22 -132 -67 -149 -64 -24
-117 17 -134 104 -14 67 0 139 33 175 23 24 84 30 119 12z m239 -140 l0 -150
-35 0 -35 0 0 112 0 111 -23 -21 -24 -22 -18 20 c-10 11 -16 22 -14 24 36 36
100 76 122 76 l27 0 0 -150z m253 121 c46 -55 46 -186 0 -241 -45 -54 -116
-48 -153 12 -18 28 -21 46 -18 121 3 83 5 90 31 113 42 36 107 34 140 -5z
m-1543 -76 c30 -32 34 -127 7 -168 -24 -36 -89 -39 -111 -4 -32 51 -26 158 10
184 28 21 68 15 94 -12z m158 -88 l3 -107 -26 0 c-25 0 -25 1 -25 75 0 73 -5
86 -26 65 -8 -8 -15 -6 -24 5 -11 13 -10 18 6 30 10 7 28 20 39 29 42 33 50
19 53 -97z m3405 -10 c25 -15 56 -40 70 -57 51 -60 79 -178 61 -247 -6 -23 -7
-23 -221 -23 l-215 0 6 -32 c4 -18 18 -44 31 -58 24 -23 32 -25 128 -25 75 1
111 5 136 18 l33 17 44 -46 c24 -24 44 -48 44 -53 0 -13 -109 -67 -169 -85
-170 -50 -344 24 -402 171 -35 89 -32 197 8 283 35 77 95 133 163 155 30 10
76 14 141 12 83 -3 103 -8 142 -30z m-2969 -169 c35 -54 27 -166 -14 -188 -31
-16 -68 -12 -90 12 -26 28 -29 141 -4 176 22 31 88 31 108 0z m156 -88 l0
-110 -25 0 c-25 0 -25 1 -25 81 0 71 -2 80 -15 69 -12 -10 -18 -10 -30 0 -14
11 -12 17 17 41 18 16 43 28 56 29 21 0 22 -2 22 -110z m-3030 -3621 l0 -90
33 25 c25 19 46 26 79 26 91 0 118 -53 118 -234 l0 -106 -25 0 -25 0 0 109 c0
155 -17 191 -90 191 -22 0 -41 -9 -61 -29 -29 -29 -29 -30 -29 -150 l0 -121
-25 0 -25 0 0 235 0 235 25 0 c25 0 25 -1 25 -91z m390 56 c0 -31 -3 -35 -25
-35 -22 0 -25 4 -25 35 0 31 3 35 25 35 22 0 25 -4 25 -35z m690 0 c0 -31 -3
-35 -25 -35 -22 0 -25 4 -25 35 0 31 3 35 25 35 22 0 25 -4 25 -35z m2232
-104 l3 -139 83 72 c64 56 89 72 114 72 l31 0 -29 -25 c-16 -14 -56 -50 -89
-79 l-60 -53 95 -89 95 -90 -35 0 c-30 0 -46 11 -122 87 l-88 88 0 -88 c0 -86
0 -87 -25 -87 l-25 0 0 235 0 235 25 0 24 0 3 -139z m1638 -96 l0 -235 -25 0
-25 0 0 235 0 235 25 0 25 0 0 -235z m770 0 l0 -235 -25 0 c-14 0 -24 3 -24 8
1 4 1 15 0 24 -1 14 -5 13 -26 -7 -32 -33 -108 -37 -152 -9 -86 55 -82 263 6
308 53 28 149 12 164 -26 3 -7 6 29 6 80 1 91 1 92 26 92 l25 0 0 -235z m1390
144 l0 -91 31 26 c23 20 41 26 78 26 95 0 121 -50 121 -229 l0 -111 -25 0 -25
0 0 109 c0 152 -17 191 -85 191 -73 0 -95 -44 -95 -190 l0 -110 -25 0 -25 0 0
235 0 235 25 0 c25 0 25 -1 25 -91z m-7220 46 c0 -25 -1 -25 -80 -25 l-80 0 0
-200 0 -200 -30 0 -30 0 0 200 0 200 -80 0 c-79 0 -80 0 -80 25 l0 25 190 0
190 0 0 -25z m1880 -40 l0 -45 54 0 c37 0 56 -4 59 -14 8 -22 -2 -26 -60 -26
l-53 0 0 -112 c0 -62 4 -119 9 -127 5 -7 29 -16 55 -18 38 -5 46 -9 46 -26 0
-18 -5 -19 -57 -14 -90 9 -97 22 -101 172 -3 115 -5 125 -23 125 -25 0 -25 30
1 37 16 4 20 14 20 49 0 40 2 44 25 44 23 0 25 -4 25 -45z m5090 0 c0 -44 1
-45 33 -46 17 -1 42 0 55 1 16 1 22 -4 22 -19 0 -19 -6 -21 -55 -21 l-55 0 0
-112 c0 -62 4 -119 9 -127 5 -7 29 -15 54 -18 46 -6 70 -29 41 -40 -27 -10
-108 7 -129 27 -17 18 -20 36 -23 145 -3 115 -5 125 -23 125 -25 0 -25 30 1
37 16 4 20 14 20 49 0 40 2 44 25 44 23 0 25 -4 25 -45z m1020 0 l0 -45 53 0
c58 0 68 -4 60 -26 -3 -10 -22 -14 -59 -14 l-54 0 0 -112 c0 -62 4 -119 9
-127 5 -7 29 -16 55 -18 38 -5 46 -9 46 -26 0 -18 -5 -19 -57 -14 -90 9 -97
22 -101 172 -3 115 -5 125 -23 125 -12 0 -19 7 -19 20 0 13 7 20 20 20 17 0
20 7 20 45 0 41 2 45 25 45 23 0 25 -4 25 -45z m-7492 -218 l2 -167 -25 0 -25
0 0 163 c0 90 3 167 7 171 4 4 14 5 23 4 13 -3 15 -29 18 -171z m310 167 c15
-4 22 -14 22 -30 0 -21 -3 -23 -26 -14 -33 13 -110 13 -135 0 -12 -7 -19 -21
-19 -39 0 -31 14 -40 98 -61 84 -22 117 -69 92 -131 -17 -39 -60 -61 -124 -61
-85 -1 -116 9 -116 39 0 20 3 24 18 18 9 -5 45 -10 80 -13 66 -5 102 12 102
46 0 19 -29 52 -45 52 -31 0 -117 33 -135 52 -37 40 -18 117 34 138 25 10 121
12 154 4z m380 -167 l2 -167 -25 0 -25 0 0 163 c0 90 3 167 7 171 4 4 14 5 23
4 13 -3 15 -29 18 -171z m316 167 c9 -3 16 -17 16 -30 0 -21 -3 -23 -26 -14
-33 13 -110 13 -135 0 -12 -7 -19 -21 -19 -40 0 -24 6 -30 43 -43 23 -8 64
-23 90 -32 56 -20 74 -50 60 -105 -11 -46 -56 -71 -126 -72 -86 -1 -117 9
-117 39 0 19 4 24 17 19 39 -15 101 -25 123 -19 32 8 60 32 60 51 0 19 -29 52
-45 52 -29 0 -118 33 -136 51 -37 37 -17 118 35 139 24 10 137 13 160 4z m796
-29 c39 -37 53 -84 48 -155 -5 -67 -37 -123 -81 -141 -40 -17 -108 -14 -146 5
-92 48 -95 250 -4 309 21 13 43 17 90 14 53 -2 67 -7 93 -32z m551 18 c45 -27
59 -77 59 -208 l0 -115 -25 0 c-20 0 -25 5 -25 27 l0 26 -23 -21 c-33 -32 -83
-44 -127 -32 -48 13 -71 39 -76 87 -10 80 45 123 159 123 61 0 67 2 67 20 0
12 -12 32 -26 47 -23 23 -31 25 -87 21 -34 -3 -70 -8 -79 -12 -13 -6 -15 -3
-11 14 8 28 35 39 106 39 38 1 69 -5 88 -16z m400 7 c10 -6 19 -19 19 -30 0
-17 -4 -18 -26 -10 -38 15 -107 12 -132 -6 -32 -22 -52 -67 -52 -114 0 -47 20
-92 52 -114 25 -18 94 -21 132 -6 24 9 26 7 26 -15 0 -14 -3 -25 -7 -25 -5 -1
-27 -5 -51 -9 -120 -23 -202 46 -202 171 0 107 59 168 162 168 33 0 68 -5 79
-10z m529 -16 l0 -26 31 26 c23 20 41 26 78 26 95 0 121 -50 121 -229 l0 -111
-25 0 -25 0 0 109 c0 152 -17 191 -85 191 -73 0 -95 -44 -95 -190 l0 -110 -25
0 -25 0 0 164 c0 122 3 166 13 169 27 11 37 6 37 -19z m561 -1 c41 -35 59 -79
59 -145 -1 -109 -55 -170 -151 -170 -93 0 -149 62 -149 167 0 69 18 113 59
148 27 23 42 27 91 27 49 0 64 -4 91 -27z m178 9 c5 -9 22 -68 37 -129 16 -62
32 -113 35 -113 4 0 21 58 39 129 l32 129 29 -2 c15 -1 30 -4 32 -7 4 -4 12
-36 57 -209 15 -55 19 -48 56 98 22 84 34 114 47 118 10 3 21 3 25 -1 5 -5
-22 -124 -70 -302 -8 -28 -14 -33 -38 -33 -33 0 -34 4 -81 194 -13 51 -25 83
-29 75 -4 -8 -22 -72 -40 -142 l-33 -128 -30 3 c-30 3 -30 4 -73 163 -24 88
-43 162 -44 165 -1 14 41 7 49 -8z m882 -3 c38 -27 59 -69 59 -119 l0 -40
-126 0 -126 0 6 -32 c3 -18 20 -46 37 -62 30 -26 36 -28 98 -24 36 3 74 8 84
13 13 5 17 2 17 -14 0 -28 -38 -42 -116 -43 -108 -2 -165 49 -172 155 -5 77
17 131 67 164 46 31 130 32 172 2z m729 4 c14 -9 28 -22 32 -27 4 -6 8 0 8 14
0 20 6 26 25 28 l25 2 0 -181 c0 -202 -7 -231 -62 -264 -21 -12 -50 -18 -89
-18 -73 1 -99 10 -99 34 0 22 1 22 55 9 88 -20 145 22 145 107 0 37 0 37 -15
16 -9 -13 -34 -27 -56 -33 -54 -15 -101 1 -136 47 -55 72 -39 220 29 267 30
21 107 20 138 -1z m444 -4 c36 -28 56 -70 56 -119 l0 -40 -126 0 -126 0 6 -32
c3 -18 20 -46 37 -62 30 -26 36 -28 98 -24 36 3 74 8 84 13 13 5 17 2 17 -14
0 -28 -38 -42 -117 -43 -111 -1 -165 50 -171 160 -4 79 15 124 68 160 45 30
136 31 174 1z m1180 9 c51 -23 61 -52 64 -195 l4 -133 -26 0 c-22 0 -26 5 -26
27 l0 26 -24 -22 c-46 -43 -137 -44 -178 -3 -25 24 -33 89 -16 122 21 39 73
60 151 60 61 0 67 2 67 20 0 12 -11 32 -25 45 -19 20 -34 25 -74 25 -27 0 -61
-4 -74 -9 -14 -6 -27 -7 -30 -4 -10 9 6 35 27 43 31 13 131 12 160 -2z m-7784
-1628 l0 -470 -110 0 -110 0 0 470 0 470 110 0 110 0 0 -470z m2000 295 l0
-176 53 40 c68 52 95 61 175 61 110 -1 170 -38 214 -135 21 -47 22 -67 26
-302 l4 -253 -111 0 -111 0 -1 193 c0 237 -7 283 -45 315 -53 46 -139 17 -182
-63 -14 -24 -17 -68 -20 -237 l-4 -208 -109 0 -109 0 0 470 0 470 110 0 110 0
0 -175z m4480 -295 l0 -470 -110 0 -110 0 0 40 0 40 -52 -40 c-163 -123 -373
-42 -434 167 -20 69 -20 197 0 267 22 73 73 145 131 181 39 24 61 30 121 33
90 5 129 -8 188 -59 l46 -41 0 176 0 176 110 0 110 0 0 -470z m1260 0 l0 -470
-110 0 -110 0 0 470 0 470 110 0 110 0 0 -470z m420 380 l0 -91 -107 3 -108 3
-3 88 -3 87 111 0 110 0 0 -90z m-9920 -112 l0 -163 163 163 162 162 136 0
137 0 -214 -212 -215 -212 238 -238 238 -238 -145 0 -145 0 -177 177 -178 178
0 -178 0 -177 -120 0 -120 0 0 450 0 450 120 0 120 0 0 -162z m5100 0 l0 -163
163 163 162 162 133 0 c72 0 132 -2 132 -3 0 -2 -95 -98 -210 -213 l-210 -208
237 -238 238 -238 -145 0 -145 0 -177 177 -178 178 0 -178 0 -177 -120 0 -120
0 0 450 0 450 120 0 120 0 0 -162z m-3927 -68 c74 -23 137 -81 158 -146 8 -26
14 -124 16 -281 l4 -243 -110 0 -111 0 0 46 0 47 -44 -41 c-122 -113 -330 -85
-404 53 -22 41 -21 159 1 202 46 87 140 123 325 123 l122 0 0 26 c0 44 -48 81
-114 89 -73 9 -165 -1 -230 -26 -28 -10 -54 -19 -58 -19 -5 0 -8 36 -8 79 l0
80 53 10 c28 6 61 13 72 15 11 2 75 4 141 5 96 1 136 -3 187 -19z m1260 0 c74
-23 137 -81 158 -146 8 -25 14 -127 16 -281 l5 -243 -111 0 -111 0 0 46 0 47
-44 -41 c-135 -125 -365 -78 -412 84 -28 97 -3 183 68 237 54 41 127 57 265
57 l123 0 0 26 c0 44 -48 81 -114 89 -73 9 -165 -1 -230 -26 -28 -10 -54 -19
-58 -19 -5 0 -8 36 -8 80 0 74 1 80 23 85 62 16 133 23 243 24 96 1 136 -3
187 -19z m860 0 l47 -12 0 -82 0 -82 -70 23 c-95 32 -213 41 -262 20 -32 -13
-38 -21 -38 -45 0 -16 6 -35 14 -41 8 -6 67 -21 132 -32 195 -32 257 -75 270
-186 18 -148 -76 -235 -269 -249 -82 -6 -252 13 -310 35 -26 10 -27 13 -27 92
0 73 2 80 18 74 91 -40 132 -49 233 -49 92 -1 110 2 128 18 26 23 27 57 3 79
-11 10 -59 23 -122 32 -201 30 -264 81 -264 215 0 102 40 157 136 192 45 16
73 18 193 14 77 -3 161 -10 188 -16z m3925 5 c75 -32 114 -91 132 -196 5 -35
10 -157 10 -271 l0 -208 -110 0 -110 0 -1 193 c0 237 -7 283 -45 315 -53 46
-139 17 -182 -63 -14 -24 -17 -68 -20 -237 l-4 -208 -109 0 -109 0 0 340 0
340 110 0 110 0 0 -49 0 -49 38 35 c20 20 55 44 77 54 50 23 161 25 213 4z
m1712 -12 c55 -25 114 -88 131 -140 8 -24 14 -124 16 -280 l4 -243 -110 0
-111 0 0 46 0 47 -44 -41 c-135 -124 -365 -76 -412 86 -28 95 -3 182 68 235
54 41 127 57 265 57 l123 0 0 26 c0 44 -48 81 -114 89 -73 9 -165 -1 -230 -26
-28 -10 -54 -19 -58 -19 -5 0 -8 36 -8 80 0 74 1 80 23 85 71 18 137 23 267
21 120 -2 153 -6 190 -23z m2473 7 c74 -23 137 -81 158 -146 8 -25 14 -127 16
-281 l5 -243 -111 0 -111 0 0 46 0 47 -44 -41 c-135 -125 -365 -77 -412 86
-37 128 19 234 144 272 49 15 93 20 188 20 l124 0 0 24 c0 36 -39 76 -85 86
-81 19 -165 9 -302 -35 -23 -7 -23 -6 -23 73 l0 81 53 10 c28 6 61 13 72 15
11 2 75 4 141 5 96 1 136 -3 187 -19z m-5401 -135 c-2 -77 -1 -182 3 -234 7
-86 10 -97 35 -123 52 -51 147 -29 187 44 15 28 18 64 21 246 l3 212 110 0
109 0 0 -340 0 -340 -110 0 -110 0 0 46 0 46 -46 -41 c-130 -114 -313 -86
-390 59 -17 31 -19 65 -22 303 l-3 268 108 -3 108 -3 -3 -140z m3918 -195 l0
-340 -110 0 -110 0 0 333 c0 184 3 337 7 340 3 4 53 7 110 7 l103 0 0 -340z
m429 118 c47 -119 89 -219 92 -223 4 -3 40 94 81 217 l75 223 108 3 c99 2 107
1 103 -15 -18 -66 -297 -774 -322 -816 -53 -88 -115 -117 -254 -117 l-83 0 3
73 3 72 68 5 c60 4 72 9 93 33 13 15 24 39 24 52 0 13 -65 176 -145 362 -80
185 -145 341 -145 346 0 4 48 6 107 5 l107 -3 85 -217z m-11419 -1529 l0 -91
31 26 c41 35 116 37 154 4 34 -30 44 -79 45 -210 l0 -108 -25 0 -25 0 0 109
c0 116 -11 166 -40 181 -32 17 -78 11 -107 -14 -28 -24 -28 -26 -31 -150 -4
-126 -4 -126 -28 -126 l-24 0 0 235 0 235 25 0 c25 0 25 -1 25 -91z m3000
-144 l0 -235 -25 0 -25 0 0 235 0 235 25 0 25 0 0 -235z m1400 0 l0 -235 -25
0 c-15 0 -25 5 -24 13 4 34 -1 41 -16 20 -32 -46 -138 -49 -178 -5 -67 74 -60
240 13 292 49 35 140 22 172 -24 4 -6 8 31 8 82 0 91 0 92 25 92 l25 0 0 -235z
m2060 144 l0 -91 31 26 c24 20 41 26 81 26 43 0 54 -4 83 -33 52 -52 66 -164
30 -237 -40 -79 -138 -98 -202 -38 l-23 21 0 -26 c0 -22 -5 -27 -25 -27 l-25
0 0 235 0 235 25 0 c25 0 25 -1 25 -91z m2920 56 c0 -31 -3 -35 -25 -35 -22 0
-25 4 -25 35 0 31 3 35 25 35 22 0 25 -4 25 -35z m1320 -56 l0 -90 33 25 c45
35 114 36 152 4 34 -30 44 -79 45 -210 l0 -108 -25 0 -25 0 0 109 c0 116 -11
166 -40 181 -32 17 -78 11 -107 -14 -28 -24 -28 -26 -31 -150 -4 -126 -4 -126
-28 -126 l-24 0 0 235 0 235 25 0 c25 0 25 -1 25 -91z m770 -144 l0 -235 -25
0 -25 0 0 235 0 235 25 0 25 0 0 -235z m170 0 l0 -235 -25 0 -25 0 0 235 0
235 25 0 25 0 0 -235z m-6755 214 c52 -14 91 -52 100 -95 9 -52 -22 -108 -120
-211 l-87 -93 106 0 106 0 0 -25 0 -25 -140 0 -140 0 0 27 c0 21 23 50 100
128 54 56 104 114 110 129 37 99 -41 153 -160 111 -53 -19 -50 -19 -50 9 0 19
8 27 33 35 74 23 91 24 142 10z m457 -146 l3 -148 33 -3 c24 -2 32 -8 32 -23
0 -15 -7 -19 -35 -19 l-35 0 0 -55 c0 -52 -1 -55 -25 -55 -24 0 -25 3 -25 55
l0 55 -105 0 c-105 0 -105 0 -105 24 0 14 41 87 95 170 92 141 96 146 130 146
l34 0 3 -147z m-1782 82 l0 -45 54 0 c45 0 54 -3 59 -20 5 -18 0 -20 -54 -20
l-59 0 0 -112 c0 -62 4 -119 9 -127 5 -7 31 -16 59 -19 44 -4 49 -7 44 -24 -4
-18 -11 -20 -60 -15 -89 9 -96 23 -100 172 -3 115 -5 125 -23 125 -12 0 -19 7
-19 20 0 14 6 20 18 18 14 -2 18 6 20 45 3 42 5 47 28 47 22 0 24 -4 24 -45z
m5990 0 l0 -45 54 0 c37 0 56 -4 59 -14 8 -22 -2 -26 -60 -26 l-53 0 0 -112
c0 -62 4 -119 9 -127 5 -7 32 -16 60 -19 53 -5 57 -8 42 -31 -13 -21 -109 -7
-135 19 -19 18 -21 35 -24 145 -3 115 -5 125 -23 125 -25 0 -25 30 1 37 16 4
20 14 20 49 0 40 2 44 25 44 23 0 25 -4 25 -45z m-9011 -61 c49 -29 55 -49 59
-191 l4 -133 -26 0 c-22 0 -26 5 -26 27 l0 26 -24 -22 c-47 -44 -141 -45 -180
-2 -23 25 -30 89 -14 121 21 39 73 60 151 60 61 0 67 2 67 20 0 12 -12 32 -26
47 -23 23 -31 25 -87 21 -34 -3 -70 -8 -79 -12 -13 -6 -15 -3 -11 14 3 12 15
26 27 30 37 15 136 11 165 -6z m369 10 c15 -4 22 -14 22 -30 0 -21 -3 -23 -26
-14 -33 13 -110 13 -135 0 -12 -7 -19 -21 -19 -39 0 -30 8 -35 95 -62 70 -21
93 -37 100 -69 16 -72 -37 -121 -129 -122 -85 -1 -116 9 -116 39 0 20 4 24 18
18 33 -13 104 -23 125 -17 30 7 57 32 57 52 0 26 -30 48 -84 60 -60 13 -102
34 -110 55 -14 38 -6 77 23 106 26 26 36 29 93 29 35 0 73 -3 86 -6z m550 0
c15 -4 22 -14 22 -30 0 -21 -3 -23 -26 -14 -14 6 -45 10 -68 10 -79 0 -123
-58 -114 -152 7 -72 47 -108 119 -108 28 0 59 5 70 10 16 9 19 7 19 -14 0 -19
-7 -26 -32 -32 -88 -19 -159 2 -202 59 -29 39 -34 148 -9 197 28 53 75 80 142
80 31 0 66 -3 79 -6z m343 -21 c40 -34 59 -79 59 -142 0 -109 -55 -173 -149
-173 -97 0 -151 60 -151 168 0 115 53 173 157 174 42 0 58 -5 84 -27z m207 -1
l3 -23 30 26 c23 19 42 25 76 25 39 0 50 -5 76 -32 l30 -33 33 33 c27 27 39
32 81 32 89 0 113 -48 113 -227 0 -113 0 -113 -24 -113 -24 0 -24 0 -28 129
-3 110 -6 132 -22 150 -29 32 -81 28 -117 -8 -29 -29 -29 -30 -29 -150 l0
-121 -24 0 c-24 0 -24 0 -28 129 -3 110 -6 132 -22 150 -26 29 -77 28 -113 -3
-28 -24 -28 -26 -31 -150 -4 -126 -4 -126 -28 -126 l-24 0 0 171 0 170 23 -3
c14 -2 23 -11 25 -26z m602 2 l0 -26 31 26 c24 20 41 26 81 26 43 0 54 -4 83
-33 40 -40 59 -114 46 -183 -11 -58 -37 -94 -84 -117 -43 -22 -95 -12 -133 24
l-24 22 0 -91 c0 -91 0 -92 -25 -92 l-25 0 0 228 c0 126 3 232 7 235 3 4 15 7
25 7 13 0 18 -7 18 -26z m730 13 c39 -20 70 -74 70 -123 l0 -44 -126 0 -126 0
6 -32 c3 -18 20 -46 37 -62 30 -26 36 -28 98 -24 36 3 74 8 84 13 13 5 17 2
17 -14 0 -28 -38 -42 -116 -43 -106 -2 -165 49 -172 151 -6 81 11 126 60 162
33 23 51 29 92 29 28 0 62 -6 76 -13z m619 0 c38 -19 64 -62 71 -117 l6 -50
-129 0 -129 0 6 -32 c3 -18 20 -46 37 -62 30 -26 36 -28 98 -24 36 3 74 8 84
13 13 5 17 2 17 -14 0 -28 -38 -42 -117 -43 -111 -1 -165 50 -171 160 -4 79
15 124 68 160 38 25 119 30 159 9z m1959 7 c15 -4 22 -14 22 -30 0 -21 -3 -23
-26 -14 -39 15 -107 12 -133 -6 -67 -47 -67 -181 1 -228 25 -18 94 -21 132 -6
23 9 26 7 26 -14 0 -25 -5 -27 -82 -40 -15 -3 -44 0 -65 6 -74 20 -113 79
-113 170 0 104 61 168 159 168 31 0 66 -3 79 -6z m200 -128 c29 -71 54 -131
55 -132 2 -2 27 57 57 131 47 119 56 135 77 135 13 0 23 -4 23 -8 0 -11 -146
-370 -166 -409 -24 -47 -124 -74 -124 -34 0 14 10 21 36 25 30 6 39 14 54 50
l19 42 -65 157 c-36 87 -62 162 -58 168 18 30 42 -3 92 -125z m902 121 c39
-20 70 -74 70 -123 l0 -44 -126 0 -126 0 6 -32 c3 -18 20 -46 37 -62 30 -26
36 -28 98 -24 36 3 74 8 84 13 13 5 17 2 17 -14 0 -28 -38 -42 -116 -43 -106
-2 -165 49 -172 151 -6 81 11 126 60 162 33 23 51 29 92 29 28 0 62 -6 76 -13z
m220 -13 l0 -26 31 26 c40 34 109 37 109 6 0 -16 -7 -20 -36 -20 -83 0 -104
-38 -104 -190 l0 -110 -25 0 -25 0 0 170 0 170 25 0 c20 0 25 -5 25 -26z m588
20 c15 -4 22 -14 22 -30 0 -21 -3 -23 -26 -14 -33 13 -110 13 -135 0 -26 -15
-24 -56 4 -74 12 -8 45 -20 72 -27 65 -16 93 -37 100 -74 14 -70 -37 -116
-129 -117 -84 -1 -116 10 -116 38 0 28 0 28 37 13 69 -27 163 -4 163 39 0 19
-29 52 -45 52 -31 0 -117 33 -135 52 -37 40 -18 117 34 138 25 10 121 12 154
4z m349 -14 c39 -23 60 -61 65 -115 l3 -40 -129 -3 -128 -3 6 -32 c3 -18 20
-45 37 -61 30 -26 36 -28 98 -24 36 3 74 8 84 13 13 5 17 2 17 -14 0 -28 -38
-42 -117 -43 -111 -1 -165 50 -171 160 -4 79 15 124 68 160 43 29 121 30 167
2z m381 14 c15 -4 22 -14 22 -30 0 -21 -3 -23 -26 -14 -39 15 -107 12 -133 -6
-67 -47 -67 -181 1 -228 25 -18 94 -21 132 -6 23 9 26 7 26 -14 0 -25 -5 -27
-82 -40 -15 -3 -44 0 -65 6 -74 20 -113 79 -113 170 0 104 61 168 159 168 31
0 66 -3 79 -6z m172 -132 c4 -117 7 -135 24 -148 29 -21 88 -18 114 6 28 26
32 44 35 170 2 98 3 105 22 105 19 0 20 -8 23 -167 l2 -168 -25 0 c-20 0 -25
5 -25 27 l0 26 -23 -21 c-55 -52 -143 -46 -177 11 -17 27 -20 51 -20 165 0
133 0 133 23 130 21 -3 22 -7 27 -136z m388 110 l3 -23 30 26 c40 33 109 36
109 5 0 -15 -7 -20 -29 -20 -89 0 -111 -38 -111 -190 l0 -110 -25 0 -25 0 0
171 0 170 23 -3 c14 -2 23 -11 25 -26z m262 -142 l0 -170 -25 0 -25 0 0 163
c0 90 3 167 7 170 3 4 15 7 25 7 17 0 18 -12 18 -170z m368 162 c6 -5 33 -61
60 -126 26 -65 51 -118 55 -119 4 -1 29 50 55 113 26 63 51 121 55 128 8 12
47 17 47 6 0 -23 -166 -413 -183 -431 -12 -12 -41 -25 -65 -29 -42 -7 -44 -6
-40 17 1 13 10 24 18 25 8 1 23 2 33 2 11 1 26 19 37 45 l19 43 -64 156 c-36
86 -65 162 -65 167 0 13 20 14 38 3z m780 2 c15 -4 22 -14 22 -30 0 -21 -3
-23 -26 -14 -14 6 -45 10 -68 10 -79 0 -123 -58 -114 -152 7 -72 47 -108 119
-108 28 0 59 5 70 10 16 9 19 7 19 -14 0 -21 -7 -26 -51 -35 -124 -27 -209 43
-209 171 0 105 59 168 159 168 31 0 66 -3 79 -6z m713 -11 c45 -27 59 -77 59
-208 l0 -115 -25 0 c-20 0 -25 5 -25 27 l0 26 -23 -21 c-32 -30 -78 -42 -123
-32 -49 11 -74 38 -80 86 -10 81 45 124 159 124 61 0 67 2 67 20 0 12 -11 32
-25 45 -19 20 -34 25 -74 25 -27 0 -61 -4 -75 -10 -23 -8 -26 -7 -26 11 0 26
31 38 103 38 38 1 69 -5 88 -16z m743 -4 c34 -27 53 -64 58 -114 l3 -40 -129
-3 -128 -3 6 -32 c3 -18 20 -45 37 -61 30 -26 36 -28 98 -24 36 3 74 8 84 13
13 5 17 2 17 -14 0 -28 -38 -42 -116 -43 -111 -2 -166 50 -172 160 -4 79 15
124 68 160 45 30 136 31 174 1z m216 -5 l0 -25 33 25 c45 35 114 36 152 4 34
-30 44 -79 45 -210 l0 -108 -25 0 -25 0 0 109 c0 116 -11 166 -40 181 -32 17
-78 11 -107 -14 -28 -24 -28 -26 -31 -150 -4 -126 -4 -126 -28 -126 l-24 0 0
170 0 170 25 0 c20 0 25 -5 25 -26z m529 1 l30 -26 3 23 c2 15 11 24 26 26
l22 3 0 -181 c0 -203 -7 -232 -62 -265 -21 -12 -51 -18 -87 -18 -73 0 -101 9
-101 34 0 22 1 22 55 9 83 -19 145 21 145 95 l0 36 -31 -23 c-40 -30 -107 -31
-146 -2 -78 57 -87 209 -16 280 29 29 40 34 83 34 37 0 55 -6 79 -25z m418 5
c40 -24 63 -67 63 -120 l0 -40 -126 0 -126 0 6 -32 c3 -18 20 -46 37 -62 30
-26 36 -28 98 -24 36 3 74 8 84 13 13 5 17 2 17 -14 0 -28 -38 -42 -117 -43
-111 -1 -165 50 -171 160 -4 79 15 124 68 160 43 29 121 30 167 2z m351 14
c15 -4 22 -14 22 -30 0 -21 -3 -23 -26 -14 -33 13 -110 13 -135 0 -12 -7 -19
-21 -19 -39 0 -31 14 -40 99 -61 62 -16 90 -37 96 -74 14 -71 -38 -119 -130
-119 -83 0 -115 11 -115 39 0 28 0 27 36 14 45 -18 122 -15 144 5 44 40 18 71
-83 99 -72 21 -97 44 -97 92 0 26 8 43 29 65 26 26 36 29 93 29 35 0 73 -3 86
-6z m-20267 -291 c8 -10 40 -69 70 -132 29 -63 130 -266 223 -450 180 -358
214 -427 320 -644 76 -156 63 -148 173 -94 152 75 371 317 507 560 21 37 44
67 52 67 22 0 17 -27 -13 -73 -33 -50 -42 -65 -83 -134 -17 -29 -46 -70 -63
-92 -18 -21 -59 -74 -92 -116 -86 -112 -212 -219 -312 -265 l-83 -39 35 -68
c31 -62 60 -127 132 -298 14 -33 41 -102 60 -154 30 -84 32 -96 19 -110 -20
-19 -46 1 -46 37 0 53 -105 331 -189 502 l-37 75 -44 2 c-103 6 -129 14 -180
54 -27 22 -50 46 -50 54 0 8 -6 15 -13 15 -8 0 -18 -27 -26 -74 -16 -91 -40
-132 -86 -152 -32 -13 -42 -13 -93 2 -68 21 -116 21 -242 3 l-95 -14 -7 -60
c-11 -104 -28 -152 -50 -139 -5 3 -20 -2 -34 -11 -30 -19 -184 -38 -264 -33
-117 9 -380 71 -453 108 -64 32 -77 51 -57 87 26 47 73 53 450 65 208 7 348
15 352 21 14 22 -5 84 -56 185 -29 59 -63 123 -74 142 -12 19 -29 49 -38 65
-9 17 -60 91 -113 165 -101 141 -140 205 -141 231 0 8 9 25 20 37 17 18 32 22
83 22 64 0 293 -52 312 -71 20 -20 -17 -26 -88 -14 -226 39 -252 42 -262 25
-8 -13 16 -58 105 -190 116 -174 146 -225 208 -350 l56 -115 8 50 c25 160 28
224 13 267 -28 81 -16 171 31 234 24 32 29 65 54 304 6 58 15 141 21 185 5 44
14 135 18 202 5 66 12 126 15 132 10 16 31 13 47 -6z m8219 -1653 l0 -470 -55
0 -55 0 0 48 -1 47 -20 -27 c-70 -95 -240 -112 -342 -34 -184 140 -165 526 32
628 101 53 229 33 299 -46 l32 -37 0 181 0 180 55 0 55 0 0 -470z m4490 426
l0 -44 -86 -3 c-107 -5 -124 -19 -124 -110 l0 -59 90 0 90 0 0 -45 0 -45 -90
0 -90 0 0 -295 0 -295 -55 0 -55 0 0 295 0 295 -55 0 -55 0 0 45 0 45 55 0 55
0 0 62 c0 102 41 162 128 188 15 5 64 9 110 9 l82 1 0 -44z m2190 -138 l0
-182 34 37 c63 69 167 94 271 66 58 -16 136 -98 165 -174 30 -80 34 -233 7
-316 -26 -77 -81 -147 -140 -178 -94 -48 -233 -27 -296 45 -17 19 -33 34 -36
34 -3 0 -5 -20 -5 -45 l0 -45 -55 0 -55 0 0 470 0 470 55 0 55 0 0 -182z
m-1197 147 c37 -8 91 -27 120 -42 l52 -28 3 -64 3 -64 -23 16 c-136 98 -281
122 -404 68 -66 -30 -107 -71 -140 -145 -35 -78 -45 -236 -21 -329 42 -157
134 -230 297 -231 101 0 170 20 236 70 24 19 46 34 49 34 3 0 5 -27 5 -60 0
-59 0 -59 -42 -84 -143 -82 -366 -80 -500 6 -150 95 -220 309 -174 529 54 251
270 381 539 324z m3918 -10 c106 -37 163 -117 164 -230 0 -112 -26 -153 -235
-373 l-177 -187 208 -3 209 -2 0 -50 0 -50 -285 0 -285 0 0 52 0 51 184 187
c186 188 238 254 257 322 20 74 -14 148 -85 185 -63 34 -199 16 -309 -39 l-38
-19 3 62 3 62 40 14 c124 44 252 51 346 18z m830 -11 c116 -64 169 -197 169
-429 0 -209 -34 -320 -122 -402 -55 -50 -104 -67 -190 -67 -126 0 -221 74
-268 206 -28 80 -43 219 -36 318 20 244 90 362 241 401 55 15 152 2 206 -27z
m740 11 c106 -37 163 -117 164 -230 0 -112 -26 -154 -237 -376 l-179 -189 210
0 211 0 0 -50 0 -50 -285 0 -285 0 0 51 0 52 193 196 c234 239 273 303 247
399 -20 78 -115 131 -209 117 -57 -8 -134 -31 -184 -57 l-38 -19 3 62 3 62 40
14 c124 44 252 51 346 18z m801 5 c52 -15 118 -68 141 -114 26 -49 28 -147 4
-192 -19 -38 -63 -76 -106 -94 l-31 -13 47 -22 c101 -46 148 -145 125 -261
-25 -121 -115 -194 -268 -215 -83 -11 -126 -8 -241 18 -67 15 -73 18 -74 42
-1 14 -2 41 -3 59 -1 26 1 31 14 26 119 -50 271 -62 351 -27 85 38 123 115 99
201 -13 51 -56 95 -107 110 -22 7 -77 12 -122 12 l-81 0 0 49 0 49 93 4 c145
7 200 45 201 140 1 54 -22 92 -75 123 -45 27 -185 25 -281 -3 l-68 -19 0 53 0
53 40 11 c111 30 260 34 342 10z m-12609 -443 c92 -243 167 -445 167 -449 0
-5 -27 -8 -59 -8 l-60 0 -19 53 c-10 28 -29 80 -42 115 l-23 62 -204 -2 -205
-3 -40 -112 -40 -113 -64 0 -63 0 24 63 c13 34 58 152 100 262 42 110 108 284
147 388 l71 187 71 0 71 -1 168 -442z m3457 318 l0 -95 109 0 109 0 5 -30 c12
-57 6 -60 -114 -60 l-109 0 0 -221 c0 -124 4 -228 10 -239 14 -26 63 -40 147
-40 l74 0 -2 -45 -3 -45 -86 0 c-99 0 -177 20 -207 52 -37 42 -43 82 -43 314
l0 224 -46 0 -45 0 3 43 c3 42 3 42 46 45 l42 3 0 95 0 94 55 0 55 0 0 -95z
m-1232 -120 c91 -50 137 -135 144 -265 l3 -75 -256 -3 -256 -2 8 -45 c11 -60
31 -96 73 -132 50 -44 95 -56 195 -51 62 3 104 12 149 30 l62 26 0 -53 0 -52
-53 -17 c-140 -44 -266 -43 -364 4 -72 34 -118 79 -152 150 -23 49 -26 67 -26
165 0 100 3 116 29 173 35 76 103 141 173 165 34 12 73 16 133 14 71 -2 93 -8
138 -32z m753 23 c55 -19 88 -49 117 -108 27 -55 27 -56 30 -312 l4 -258 -56
0 -55 0 -3 243 c-3 223 -5 245 -24 282 -40 76 -154 96 -236 42 -18 -13 -44
-43 -58 -67 -24 -44 -25 -52 -28 -272 l-4 -228 -54 0 -54 0 2 338 3 337 53 3
52 3 0 -51 0 -52 51 46 c28 25 65 50 83 55 45 13 138 13 177 -1z m1621 -4
c133 -45 210 -195 195 -377 -9 -100 -31 -159 -83 -216 -73 -81 -174 -113 -291
-91 -106 20 -178 83 -219 190 -25 65 -25 247 -1 317 26 73 94 147 160 172 64
25 175 27 239 5z m4026 -19 c91 -50 137 -135 144 -265 l3 -75 -256 -3 -256 -2
8 -45 c11 -60 31 -96 73 -132 50 -44 95 -56 195 -51 62 3 104 12 149 30 l62
26 0 -53 0 -52 -53 -17 c-140 -44 -266 -43 -364 4 -72 34 -118 79 -152 150
-23 49 -26 67 -26 165 0 100 3 116 29 173 35 76 103 141 173 165 34 12 73 16
133 14 71 -2 93 -8 138 -32z m722 -21 l0 -56 -32 8 c-107 23 -190 -12 -229
-98 -22 -50 -24 -67 -27 -270 l-4 -218 -54 0 -54 0 2 338 3 337 53 3 52 3 0
-53 1 -53 22 25 c62 68 110 89 205 90 l62 0 0 -56z m-8148 -219 c54 -143 101
-271 106 -285 7 -20 26 23 114 260 l106 285 57 3 c56 3 57 2 51 -20 -3 -13
-59 -165 -124 -338 l-119 -315 -75 -3 c-65 -2 -77 0 -83 15 -29 74 -245 654
-245 659 0 3 26 4 57 2 l58 -3 97 -260z m5615 5 c56 -140 104 -259 106 -265 2
-5 51 110 109 255 l106 265 56 3 c31 2 56 -1 56 -6 0 -25 -332 -828 -355 -857
-36 -48 -75 -66 -161 -72 l-74 -6 0 45 0 45 59 7 c70 8 94 30 131 120 l22 56
-130 317 c-72 175 -134 326 -138 336 -6 16 -1 18 52 15 l59 -3 102 -255z
m-15147 -590 c0 -47 11 -63 25 -40 3 6 24 10 45 10 56 0 70 -25 70 -122 0 -63
-3 -78 -15 -78 -12 0 -15 15 -15 79 0 87 -10 105 -57 99 -37 -4 -53 -38 -53
-115 0 -35 -4 -63 -10 -63 -6 0 -10 53 -10 140 0 87 4 140 10 140 6 0 10 -22
10 -50z m1745 30 c0 -7 -6 -15 -12 -17 -8 -3 -13 4 -13 17 0 13 5 20 13 18 6
-3 12 -11 12 -18z m-2059 -110 c59 -153 58 -150 40 -150 -8 0 -20 16 -27 35
-13 35 -13 35 -76 35 -62 0 -63 0 -77 -35 -8 -19 -22 -35 -30 -35 -13 0 -13 8
5 53 12 28 35 89 52 135 44 115 56 111 113 -38z m1032 108 c21 -21 13 -25 -33
-15 -57 13 -95 -2 -95 -37 0 -30 15 -42 63 -51 84 -16 118 -89 61 -134 -40
-32 -154 -27 -154 6 0 10 6 13 18 8 42 -17 82 -17 107 -1 48 31 24 75 -52 95
-53 14 -73 34 -73 71 0 45 34 70 95 70 28 0 56 -5 63 -12z m1517 0 c14 -6 25
-17 25 -24 0 -10 -8 -10 -37 2 -81 34 -143 -10 -143 -101 0 -91 62 -135 143
-101 29 12 37 12 37 2 0 -19 -45 -36 -95 -36 -114 0 -164 163 -75 243 34 30
97 37 145 15z m265 -3 c0 -11 -12 -15 -50 -15 l-50 0 0 -120 c0 -100 -2 -120
-15 -120 -12 0 -15 20 -15 120 l0 120 -45 0 c-33 0 -45 4 -45 15 0 12 19 15
110 15 91 0 110 -3 110 -15z m218 -1 c75 -52 66 -214 -14 -244 -116 -44 -207
62 -163 189 22 61 123 93 177 55z m-2808 -67 c0 -8 -14 -11 -46 -8 -46 3 -63
-7 -64 -36 0 -6 26 -20 58 -30 50 -16 57 -21 60 -46 5 -42 -22 -67 -74 -67
-51 0 -74 8 -74 25 0 10 7 11 34 3 49 -15 86 -4 86 27 0 20 -7 26 -42 36 -24
6 -49 16 -55 21 -16 13 -17 60 -1 76 16 16 118 16 118 -1z m332 -68 c3 -90 14
-107 60 -96 33 9 48 45 48 117 0 33 4 60 10 60 6 0 10 -40 10 -100 0 -60 -4
-100 -10 -100 -5 0 -10 7 -10 15 0 8 -3 15 -6 15 -3 0 -12 -7 -20 -15 -24 -23
-80 -19 -98 7 -22 31 -23 178 -1 178 11 0 15 -18 17 -81z m693 61 c26 -29 36
-180 11 -180 -9 0 -16 7 -16 16 0 14 -2 14 -22 0 -50 -35 -118 -9 -118 44 0
38 29 60 86 64 53 4 63 15 38 41 -12 12 -30 16 -61 13 -30 -2 -43 1 -43 9 0 9
17 13 53 13 41 0 58 -5 72 -20z m136 -65 c17 -47 34 -84 36 -82 2 2 16 40 32
83 18 48 35 80 45 82 13 3 10 -11 -15 -80 -17 -46 -34 -91 -36 -100 -3 -10
-15 -18 -27 -18 -17 0 -25 9 -33 33 -6 17 -22 62 -36 100 -20 51 -23 67 -12
67 8 0 27 -35 46 -85z m314 65 c22 -24 28 -170 8 -177 -7 -3 -13 3 -13 12 0
15 -2 15 -22 1 -47 -33 -118 -9 -118 39 0 41 31 67 85 70 54 3 65 14 39 40
-12 12 -30 16 -61 13 -23 -2 -43 0 -43 3 0 14 16 19 60 19 34 0 52 -5 65 -20z
m125 3 c0 -15 1 -15 18 0 10 10 35 17 55 17 48 0 60 -23 64 -122 2 -64 0 -78
-12 -78 -12 0 -15 14 -15 71 0 84 -11 109 -47 109 -48 0 -63 -25 -63 -107 0
-58 -3 -73 -15 -73 -12 0 -15 18 -15 100 0 82 3 100 15 100 8 0 15 -7 15 -17z
m235 -83 c0 -66 -4 -95 -12 -98 -10 -3 -13 21 -13 98 0 77 3 101 13 97 8 -2
12 -31 12 -97z m115 -70 c0 -17 -30 -70 -39 -70 -5 0 -4 18 1 40 6 22 16 40
24 40 8 0 14 -5 14 -10z m8280 -329 c0 -5 -22 -98 -50 -208 -27 -109 -50 -199
-50 -200 0 -2 -9 -3 -21 -3 -18 0 -20 4 -15 26 l7 25 -38 -25 c-48 -33 -107
-35 -140 -4 -18 17 -23 32 -23 73 0 56 32 142 56 152 7 3 12 9 9 13 -3 5 15
18 40 30 54 26 108 21 126 -12 15 -28 24 -15 44 70 14 58 21 72 36 72 10 0 19
-4 19 -9z m2130 -1 c0 -5 -22 -98 -50 -206 -27 -108 -50 -198 -50 -200 0 -2
-9 -4 -19 -4 -13 0 -18 6 -16 18 4 29 -6 34 -24 11 -12 -15 -32 -23 -70 -27
-44 -4 -55 -1 -76 18 -50 47 -25 182 44 243 60 52 128 59 159 16 19 -27 27
-18 41 48 8 32 17 66 22 76 10 18 39 24 39 7z m146 -12 c-3 -13 -6 -26 -6 -30
0 -12 -40 -9 -40 3 0 21 21 49 37 49 11 0 14 -6 9 -22z m1488 8 c-3 -7 -23
-16 -46 -19 -48 -6 -55 -13 -67 -55 l-10 -32 40 0 c28 0 39 -4 39 -15 0 -11
-11 -15 -43 -15 l-43 0 -28 -112 c-36 -143 -42 -158 -61 -158 -20 0 -20 2 15
140 17 65 30 121 30 124 0 3 -9 6 -20 6 -11 0 -20 7 -20 15 0 9 9 15 24 15 19
0 27 8 36 35 17 52 62 85 115 85 34 0 43 -3 39 -14z m900 -13 c-3 -16 -12 -50
-20 -77 -8 -27 -12 -51 -9 -54 2 -2 16 5 30 17 53 41 141 33 159 -14 26 -69
-19 -200 -84 -243 -46 -31 -114 -28 -140 6 l-19 24 -7 -26 c-6 -26 -44 -38
-44 -15 0 9 46 195 91 372 7 27 15 37 30 37 16 0 18 -5 13 -27z m2632 5 c-3
-13 -6 -26 -6 -30 0 -5 -9 -8 -20 -8 -22 0 -23 3 -14 38 4 13 14 22 26 22 16
0 19 -5 14 -22z m988 7 c-4 -8 -17 -15 -29 -15 -43 0 -72 -18 -84 -51 -6 -17
-11 -34 -11 -35 0 -2 18 -4 40 -4 29 0 40 -4 40 -15 0 -11 -11 -15 -43 -15
l-43 0 -33 -135 c-28 -114 -36 -135 -52 -135 -24 0 -24 0 11 140 17 65 30 121
30 124 0 3 -9 6 -20 6 -11 0 -20 7 -20 15 0 9 9 15 24 15 19 0 27 8 36 34 11
33 42 69 70 79 8 3 32 6 52 6 29 1 36 -2 32 -14z m996 6 c0 -5 -20 -87 -44
-183 -24 -95 -46 -185 -50 -200 -4 -20 -13 -28 -27 -28 -18 0 -20 4 -15 26 l7
25 -38 -25 c-48 -33 -107 -35 -140 -4 -18 17 -23 32 -23 73 0 56 32 142 56
152 7 3 12 9 9 13 -3 5 15 18 40 30 54 26 108 21 126 -12 15 -28 24 -15 44 70
14 58 21 72 36 72 10 0 19 -4 19 -9z m2290 4 c0 -3 -22 -96 -50 -206 -27 -110
-50 -202 -50 -205 0 -2 -9 -4 -20 -4 -11 0 -20 2 -20 5 0 14 91 373 100 393 8
19 40 32 40 17z m-14406 -41 c29 -30 33 -59 11 -110 -27 -66 -62 -87 -153 -94
l-75 -5 -21 -80 c-18 -69 -24 -80 -44 -83 -19 -3 -23 0 -18 15 3 10 21 83 41
162 19 80 40 162 45 183 l11 38 88 0 c82 0 90 -2 115 -26z m3833 -12 c-3 -16
-7 -35 -9 -43 -2 -10 9 -15 45 -17 33 -2 47 -7 47 -18 0 -10 -13 -14 -53 -14
l-53 0 -24 -99 c-13 -54 -20 -106 -17 -115 4 -11 19 -16 47 -16 43 0 43 0 34
-24 -7 -18 -49 -21 -88 -6 -44 16 -47 38 -21 141 29 111 30 119 10 119 -24 0
-17 28 7 32 13 2 24 11 27 23 7 41 21 65 37 65 13 0 15 -6 11 -28z m6437 -17
l-6 -45 46 0 c34 0 46 -4 46 -15 0 -11 -13 -15 -53 -15 l-53 0 -24 -99 c-13
-54 -20 -106 -17 -115 4 -11 19 -16 47 -16 42 0 50 -9 25 -30 -24 -20 -106 -1
-115 25 -4 12 2 60 16 115 28 114 28 120 9 120 -8 0 -15 7 -15 16 0 8 4 13 9
9 15 -9 40 23 47 60 5 26 11 35 26 35 17 0 19 -5 12 -45z m3563 17 c-3 -16 -7
-35 -9 -43 -2 -10 9 -15 45 -17 33 -2 47 -7 47 -18 0 -10 -13 -14 -53 -14
l-53 0 -24 -99 c-13 -54 -20 -106 -17 -115 4 -11 19 -16 47 -16 43 0 43 0 34
-24 -7 -18 -49 -21 -88 -6 -44 16 -47 38 -21 141 29 111 30 119 10 119 -24 0
-17 28 7 32 13 2 24 11 27 23 7 41 21 65 37 65 13 0 15 -6 11 -28z m-13569
-69 c-2 -13 -16 -19 -49 -23 -77 -9 -93 -32 -129 -177 -19 -76 -27 -93 -42
-93 -23 0 -23 2 8 123 45 183 43 177 65 177 16 0 18 -4 13 -27 -7 -26 -6 -27
12 -13 10 8 21 18 24 22 9 11 53 27 78 27 17 1 23 -4 20 -16z m249 -18 c44
-51 21 -164 -47 -230 -35 -34 -46 -39 -99 -43 -54 -4 -62 -2 -85 21 -52 52
-26 184 48 243 44 36 70 44 121 39 28 -3 47 -12 62 -30z m652 20 c38 -19 56
-64 44 -112 l-9 -38 -94 -2 c-52 -1 -105 -2 -117 -2 -33 -1 -31 -53 3 -88 23
-23 31 -25 82 -20 31 3 65 8 75 12 13 6 16 3 11 -10 -9 -24 -46 -35 -115 -35
-54 0 -64 3 -90 29 -62 62 -25 192 71 253 48 30 98 35 139 13z m367 -12 c20
-26 17 -86 -9 -188 -20 -78 -26 -90 -46 -93 -18 -3 -22 0 -17 15 19 63 46 185
46 205 0 13 -5 29 -12 36 -17 17 -74 15 -104 -4 -34 -23 -48 -53 -75 -162 -18
-73 -27 -92 -41 -92 -23 0 -23 2 8 123 46 184 43 177 66 177 15 0 19 -5 15
-20 -5 -21 7 -27 19 -9 23 38 124 46 150 12z m880 0 c20 -26 17 -86 -9 -188
-20 -78 -26 -90 -46 -93 -18 -3 -22 0 -17 15 19 63 46 185 46 205 0 13 -5 29
-12 36 -17 17 -74 15 -104 -4 -34 -23 -48 -53 -75 -162 -18 -73 -27 -92 -41
-92 -23 0 -23 2 8 123 46 184 43 177 66 177 15 0 19 -5 15 -20 -5 -21 7 -27
19 -9 23 38 124 46 150 12z m682 11 c12 -8 19 -20 16 -26 -4 -7 -2 -8 4 -4 20
12 36 -38 25 -81 l-9 -38 -114 -1 -115 -2 -3 -31 c-2 -22 4 -38 23 -57 24 -24
32 -26 78 -21 29 3 63 9 76 13 18 5 23 4 19 -7 -8 -24 -51 -39 -116 -39 -57 0
-67 3 -93 29 -24 24 -29 38 -29 77 0 85 52 163 127 189 51 19 84 18 111 -1z
m330 -1 c-2 -12 -14 -19 -33 -21 -85 -8 -111 -41 -145 -179 -19 -76 -27 -93
-42 -93 -10 0 -18 6 -18 13 1 19 67 278 74 284 11 11 38 -7 32 -22 -6 -17 9
-20 20 -4 9 15 64 38 92 39 17 0 23 -5 20 -17z m211 11 c21 -4 31 -12 31 -24
0 -16 -8 -17 -65 -13 -74 6 -109 -9 -117 -51 -3 -14 -2 -23 3 -21 4 3 10 1 13
-4 3 -5 23 -12 43 -16 62 -11 93 -35 93 -70 0 -64 -56 -105 -142 -105 -66 0
-98 9 -98 26 0 20 13 23 56 12 53 -15 110 -3 129 26 23 34 9 54 -48 71 -28 8
-59 22 -69 32 -37 33 -14 93 46 123 43 21 72 24 125 14z m519 -5 c34 -12 56
-53 48 -90 -31 -151 -50 -209 -68 -209 -12 0 -18 7 -18 21 l0 21 -34 -21 c-41
-26 -123 -29 -132 -6 -4 8 -9 13 -13 11 -14 -9 -11 65 4 94 22 42 67 62 160
70 44 4 74 8 67 9 -7 0 -10 6 -7 11 4 6 -1 22 -9 35 -14 21 -24 25 -66 25 -27
0 -60 -4 -73 -9 -22 -8 -24 -7 -20 10 3 10 17 22 32 25 14 3 31 7 36 9 21 7
63 5 93 -6z m380 -8 c29 -24 28 -77 -2 -196 -19 -78 -25 -90 -45 -93 -18 -3
-22 0 -17 15 19 64 46 185 46 206 0 72 -116 63 -154 -12 -8 -15 -25 -69 -37
-120 -18 -75 -25 -91 -40 -91 -24 0 -24 1 7 123 46 184 43 177 65 177 18 0 20
-4 14 -27 l-7 -28 24 22 c47 44 111 55 146 24z m868 -2 c21 -17 17 -90 -9
-194 -20 -78 -26 -90 -46 -93 -18 -3 -22 0 -17 15 19 63 46 185 46 205 0 34
-18 48 -60 48 -70 0 -97 -37 -131 -179 -18 -75 -25 -91 -40 -91 -24 0 -24 1 7
123 46 184 43 177 65 177 16 0 19 -4 14 -20 -8 -25 0 -25 33 -1 15 10 34 21
42 24 21 9 79 0 96 -14z m289 11 c4 -6 10 -8 15 -5 5 3 16 -5 25 -17 l15 -23
6 23 c6 21 44 33 44 13 0 -29 -72 -286 -90 -321 -26 -51 -82 -80 -155 -80 -57
0 -81 11 -72 33 4 12 12 13 46 4 67 -18 120 5 150 66 13 26 21 50 18 53 -3 3
-19 -4 -35 -16 -42 -31 -104 -31 -137 0 -59 55 -14 210 74 257 47 24 86 30 96
13z m592 -25 c38 -44 28 -133 -23 -207 -17 -24 -33 -37 -41 -34 -8 3 -11 1 -8
-4 9 -14 -39 -30 -91 -30 -65 0 -94 31 -94 102 1 89 56 176 126 198 48 15 106
4 131 -25z m716 16 c20 -20 -5 -29 -63 -24 -53 5 -63 3 -94 -21 -43 -33 -75
-120 -60 -163 15 -44 53 -59 113 -47 53 11 57 9 42 -15 -6 -10 -32 -16 -76
-18 -62 -3 -68 -1 -96 26 -24 24 -29 38 -29 78 0 80 55 162 126 189 40 15 120
12 137 -5z m966 4 c38 -19 56 -64 44 -112 l-9 -38 -94 -2 c-52 -1 -105 -2
-117 -2 -33 -1 -31 -53 3 -88 23 -23 31 -25 82 -20 31 3 65 8 75 12 13 6 16 3
11 -10 -9 -24 -46 -35 -115 -35 -54 0 -64 3 -90 29 -62 63 -26 191 71 253 48
30 98 35 139 13z m339 -2 c-2 -12 -14 -19 -33 -21 -85 -8 -111 -41 -145 -179
-19 -76 -27 -93 -42 -93 -10 0 -18 6 -18 13 1 19 67 278 74 284 11 11 38 -7
32 -22 -6 -17 9 -20 20 -4 9 15 64 38 92 39 17 0 23 -5 20 -17z m381 11 c20
-4 31 -12 31 -24 0 -15 -8 -17 -69 -12 -61 4 -71 2 -90 -17 -32 -32 -23 -54
32 -72 26 -8 44 -19 40 -24 -5 -4 -3 -5 4 -1 22 12 53 -17 53 -49 0 -64 -58
-105 -147 -105 -62 0 -93 9 -93 26 0 20 13 23 56 12 55 -15 110 -3 131 28 22
35 8 55 -48 69 -90 24 -112 62 -67 120 36 46 94 63 167 49z m320 -9 c38 -19
56 -64 44 -112 l-9 -38 -94 -2 c-52 -1 -105 -2 -117 -2 -33 -1 -31 -53 3 -88
23 -23 31 -25 82 -20 31 3 65 8 75 12 13 6 16 3 11 -10 -9 -24 -46 -35 -115
-35 -54 0 -64 3 -90 29 -62 63 -26 191 71 253 48 30 98 35 139 13z m374 -4
c20 -20 -5 -29 -66 -24 -61 5 -64 4 -99 -28 -59 -56 -75 -143 -33 -184 26 -27
59 -31 113 -16 37 11 42 -1 10 -23 -26 -19 -110 -21 -141 -4 -35 18 -46 40
-47 92 0 86 51 164 127 192 39 15 119 12 136 -5z m625 2 c-2 -11 -14 -19 -28
-21 -48 -5 -66 -12 -87 -29 -29 -26 -38 -47 -63 -150 -19 -76 -27 -93 -42 -93
-23 0 -23 0 13 143 17 67 32 129 33 137 2 8 13 16 25 18 19 3 22 0 16 -17 -8
-26 -1 -26 33 -2 52 35 106 43 100 14z m1699 -10 c19 -25 14 -97 -10 -187 -19
-70 -46 -111 -61 -95 -3 2 6 47 19 99 28 107 30 141 13 158 -17 17 -79 15
-104 -3 -12 -8 -24 -12 -28 -10 -3 3 -4 2 -1 -1 2 -4 -2 -19 -10 -34 -8 -15
-24 -68 -36 -119 -18 -75 -25 -91 -40 -91 -24 0 -24 1 7 123 45 183 43 177 64
177 11 0 20 -7 20 -16 0 -9 -5 -12 -12 -8 -10 5 -10 4 -1 -6 10 -11 16 -11 30
3 44 39 125 45 150 10z m680 -8 c29 -33 29 -31 -3 -165 -22 -93 -29 -110 -45
-110 -14 0 -19 7 -19 26 l0 26 -31 -26 c-37 -31 -111 -36 -141 -9 -24 21 -23
70 2 111 18 29 25 34 46 31 4 0 10 5 15 12 5 9 34 14 81 16 66 2 73 4 76 23 6
37 -25 60 -79 60 -26 0 -60 -5 -75 -10 -26 -10 -27 -10 -12 12 31 46 147 48
185 3z m348 10 c14 -13 25 -29 25 -35 0 -6 13 2 30 18 38 38 100 51 135 28 21
-14 25 -24 24 -64 -1 -100 -58 -257 -83 -231 -3 2 6 47 19 99 39 151 33 173
-48 168 -25 -2 -43 -5 -41 -7 2 -3 -6 -15 -18 -28 -13 -14 -32 -62 -48 -126
-22 -85 -30 -103 -47 -105 -21 -3 -21 -3 3 90 37 145 31 178 -31 178 -65 0
-93 -39 -126 -179 -18 -75 -25 -91 -40 -91 -24 0 -24 1 7 123 46 184 43 177
65 177 16 0 19 -4 14 -20 -7 -21 9 -28 21 -9 9 15 64 38 92 39 13 0 34 -11 47
-25z m547 9 c23 -15 39 -67 32 -110 l-6 -45 -117 2 -116 2 -3 -32 c-2 -23 4
-38 23 -57 24 -24 32 -26 83 -21 32 3 65 9 76 13 14 5 17 3 14 -7 -8 -24 -51
-39 -116 -39 -57 0 -67 3 -93 29 -22 22 -29 39 -29 68 0 126 95 223 204 208
22 -3 43 -8 48 -11z m353 -8 c18 -17 20 -83 4 -141 -35 -135 -39 -145 -60
-145 -15 0 -19 5 -15 18 19 63 46 184 46 204 0 32 -18 48 -54 48 -78 0 -101
-30 -137 -177 -18 -74 -27 -93 -41 -93 -23 0 -23 2 8 123 45 182 43 177 64
177 13 0 18 -6 15 -20 -4 -21 9 -27 21 -9 22 36 118 46 149 15z m523 13 c34
-12 56 -53 48 -90 -31 -151 -50 -209 -68 -209 -12 0 -18 7 -18 21 l0 21 -34
-21 c-41 -26 -123 -29 -132 -6 -4 8 -9 13 -13 11 -14 -9 -11 65 4 94 22 42 67
62 160 70 44 4 74 8 67 9 -7 0 -10 6 -7 11 4 6 -1 22 -9 35 -14 21 -24 25 -66
25 -27 0 -60 -4 -73 -9 -22 -8 -24 -7 -20 10 3 10 17 22 32 25 14 3 31 7 36 9
21 7 63 5 93 -6z m491 5 c20 -4 31 -12 31 -24 0 -15 -9 -16 -74 -12 -71 4 -75
3 -91 -22 -24 -37 -14 -53 48 -71 71 -20 91 -43 83 -90 -10 -51 -63 -85 -136
-85 -73 0 -102 9 -98 29 2 10 11 15 23 12 11 -2 46 -4 77 -5 47 -1 61 3 82 23
35 33 20 56 -49 76 -30 9 -55 21 -55 26 0 5 -5 8 -12 7 -15 -4 -22 26 -14 58
16 61 96 95 185 78z m-13975 -31 c3 -16 10 -72 17 -125 6 -54 14 -98 18 -98 6
1 45 63 122 192 26 44 40 58 58 58 23 0 23 0 5 -27 -10 -16 -48 -77 -85 -136
-85 -136 -86 -137 -118 -137 -26 0 -27 1 -39 108 -7 59 -16 126 -19 150 -5 38
-4 42 15 42 14 0 22 -8 26 -27z m1200 -65 c-30 -118 -31 -154 -3 -169 31 -16
81 -3 112 29 19 20 34 57 53 130 22 83 31 102 46 102 10 0 18 -2 18 -5 0 -3
-16 -71 -36 -150 -32 -126 -39 -145 -56 -145 -15 0 -19 5 -15 20 3 11 1 23 -4
26 -5 3 -9 0 -9 -7 0 -7 -3 -10 -6 -6 -3 3 -14 -3 -25 -14 -24 -24 -95 -26
-121 -2 -24 22 -24 68 4 185 20 86 26 98 44 98 l22 0 -24 -92z m3216 87 c0 -3
-16 -69 -35 -146 -19 -78 -35 -143 -35 -145 0 -2 -9 -4 -20 -4 -11 0 -20 2
-20 5 0 3 16 71 36 150 31 122 39 145 55 145 11 0 19 -2 19 -5z m2033 -8 c3
-8 11 -57 17 -111 7 -53 16 -99 21 -101 4 -3 42 46 83 110 54 83 81 115 95
115 19 0 18 -4 -11 -50 -17 -27 -35 -47 -41 -43 -6 3 -7 1 -3 -5 3 -6 -7 -30
-22 -54 -16 -24 -55 -82 -86 -131 -34 -51 -62 -85 -68 -81 -6 4 -8 2 -4 -4 10
-16 -34 -42 -71 -42 -25 0 -31 4 -27 15 4 8 17 15 31 15 28 0 71 42 80 78 3
13 -4 83 -16 156 -11 72 -21 134 -21 139 0 13 38 8 43 -6z m2371 -79 c-30
-118 -31 -154 -3 -169 31 -16 81 -3 112 29 19 20 34 57 53 130 22 83 31 102
46 102 10 0 18 -3 18 -6 0 -3 -16 -69 -35 -145 -19 -77 -35 -142 -35 -144 0
-3 -9 -5 -21 -5 -18 0 -20 4 -15 25 l7 26 -41 -26 c-39 -25 -102 -33 -127 -17
-21 13 -31 57 -23 98 4 21 16 74 26 117 16 67 21 77 40 77 l22 0 -24 -92z
m616 86 c0 -3 -16 -69 -35 -145 -19 -77 -35 -142 -35 -144 0 -3 -9 -5 -20 -5
-11 0 -20 2 -20 5 0 3 16 71 36 150 31 122 39 145 55 145 11 0 19 -3 19 -6z
m344 -11 c3 -10 10 -58 17 -108 6 -49 14 -95 18 -102 3 -7 38 38 81 107 59 94
80 119 98 120 l22 0 -27 -42 c-14 -24 -34 -54 -44 -68 -9 -14 -50 -74 -89
-135 -90 -137 -118 -165 -165 -165 -26 0 -33 3 -29 15 4 8 16 15 29 15 27 0
73 44 82 78 3 13 -4 83 -16 156 -11 72 -21 134 -21 139 0 15 39 6 44 -10z
m700 -75 c-30 -118 -31 -154 -3 -169 31 -16 81 -3 112 29 19 20 34 57 53 130
22 83 31 102 46 102 10 0 18 -2 18 -5 0 -3 -16 -71 -36 -150 -32 -126 -39
-145 -56 -145 -15 0 -19 5 -15 20 3 11 1 23 -4 26 -5 3 -9 0 -9 -7 0 -7 -3
-10 -6 -6 -3 3 -14 -3 -25 -14 -24 -24 -95 -26 -121 -2 -24 22 -24 68 4 185
20 86 26 98 44 98 l22 0 -24 -92z m-9994 -446 c0 -4 -9 -39 -19 -77 -11 -38
-18 -71 -16 -73 2 -2 16 6 32 17 70 52 153 31 153 -38 0 -41 -39 -222 -51
-235 -4 -5 -14 -6 -22 -3 -13 5 -12 19 9 99 37 145 32 168 -39 168 -29 0 -46
-7 -66 -28 -27 -26 -35 -49 -71 -185 -12 -45 -32 -68 -47 -54 -3 4 13 82 36
174 64 257 59 243 81 243 11 0 20 -3 20 -8z m2966 -14 c-3 -13 -6 -26 -6 -30
0 -12 -40 -9 -40 3 0 21 21 49 37 49 11 0 14 -6 9 -22z m3920 0 c-3 -13 -6
-26 -6 -30 0 -12 -40 -9 -40 3 0 21 21 49 37 49 11 0 14 -6 9 -22z m2710 0
c-3 -13 -6 -26 -6 -30 0 -5 -9 -8 -20 -8 -22 0 -23 3 -14 38 4 13 14 22 26 22
16 0 19 -5 14 -22z m2024 17 c0 -14 -91 -373 -100 -392 -10 -25 -40 -32 -40
-10 0 8 3 17 7 21 4 3 7 14 8 24 1 9 21 95 44 190 37 146 46 172 62 172 11 0
19 -2 19 -5z m1406 -17 c-3 -13 -6 -26 -6 -30 0 -5 -9 -8 -20 -8 -22 0 -23 3
-14 38 4 13 14 22 26 22 16 0 19 -5 14 -22z m-5117 6 c24 -5 31 -12 31 -31 0
-20 -3 -22 -19 -13 -26 14 -91 12 -116 -3 -14 -8 -22 -24 -23 -47 -2 -29 8
-49 59 -118 34 -46 66 -81 73 -79 6 2 22 24 36 50 15 28 32 47 43 47 9 0 17
-4 17 -8 0 -13 -55 -96 -74 -111 -9 -8 -13 -17 -8 -20 4 -3 18 -21 31 -38 l22
-33 -29 0 c-19 0 -35 8 -44 22 l-15 22 -46 -22 c-76 -36 -166 -26 -199 22 -15
21 -8 91 11 123 11 17 34 42 51 55 27 20 30 27 25 58 -7 45 23 96 68 115 36
16 60 18 106 9z m-9429 -17 c0 -7 -8 -43 -19 -80 l-18 -67 106 0 106 0 19 80
c18 72 22 80 43 80 19 0 23 -4 19 -17 -3 -10 -21 -83 -41 -163 -57 -230 -54
-220 -75 -220 -25 0 -25 6 0 104 11 43 20 82 20 87 0 5 -46 9 -103 9 l-102 0
-25 -97 c-22 -87 -28 -98 -48 -101 -19 -3 -23 0 -19 15 3 10 24 95 47 188 23
94 43 176 45 183 6 16 45 16 45 -1z m4924 -45 l-6 -47 46 3 c37 3 46 1 46 -12
0 -13 -11 -16 -53 -16 l-53 0 -23 -95 c-29 -119 -25 -143 23 -137 36 4 50 -6
36 -27 -8 -15 -82 -9 -109 8 -19 12 -16 62 9 157 24 93 24 94 5 94 -8 0 -15 7
-15 15 0 8 9 15 20 15 15 0 23 11 32 45 9 33 17 45 30 45 16 0 18 -6 12 -48z
m1916 35 c0 -6 -4 -27 -9 -45 l-10 -32 50 0 c37 0 49 -4 49 -15 0 -11 -13 -15
-53 -15 l-53 0 -22 -92 c-32 -134 -32 -138 23 -138 48 0 48 0 39 -24 -12 -30
-104 -14 -122 21 -6 12 -2 50 14 118 28 119 28 115 9 115 -24 0 -17 28 7 32
18 2 24 12 31 46 6 32 13 42 28 42 10 0 19 -6 19 -13z m1710 0 c0 -6 -4 -27
-9 -45 l-10 -32 50 0 c36 0 49 -4 49 -15 0 -10 -15 -15 -57 -17 -48 -3 -57 -6
-58 -23 -1 -11 -10 -54 -20 -96 -23 -95 -18 -109 35 -109 43 0 43 0 34 -24 -7
-19 -34 -20 -87 -5 -27 7 -37 15 -33 25 3 8 2 14 -3 14 -9 0 0 56 24 149 18
72 18 71 0 71 -8 0 -15 7 -15 15 0 8 9 15 20 15 15 0 22 11 31 45 8 33 16 45
30 45 11 0 19 -6 19 -13z m2334 -32 l-6 -45 46 0 c34 0 46 -4 46 -15 0 -11
-13 -15 -53 -15 l-53 0 -24 -99 c-13 -54 -20 -106 -17 -115 4 -11 19 -16 47
-16 41 0 46 -5 31 -29 -7 -10 -21 -12 -55 -7 -48 8 -77 34 -70 64 2 9 13 56
24 103 24 104 24 99 5 99 -8 0 -15 7 -15 15 0 8 9 15 20 15 15 0 23 11 32 45
9 33 17 45 31 45 16 0 17 -5 11 -45z m-10369 -51 c48 -22 51 -52 20 -183 -23
-94 -29 -109 -46 -108 -13 1 -19 9 -19 25 0 22 -1 22 -17 7 -37 -37 -123 -47
-155 -18 -10 9 -18 29 -18 45 0 76 71 128 173 128 66 0 79 14 53 55 -14 21
-24 25 -66 25 -27 0 -60 -4 -73 -9 -21 -8 -24 -7 -20 9 9 35 114 50 168 24z
m324 10 c20 -4 31 -12 31 -24 0 -15 -8 -17 -69 -12 -61 4 -71 2 -90 -17 -35
-35 -23 -53 52 -80 54 -19 68 -28 74 -49 16 -66 -45 -122 -136 -122 -76 0
-101 8 -101 32 0 16 4 19 23 14 87 -27 160 -14 171 30 9 35 2 42 -60 60 -85
24 -102 55 -67 115 27 46 97 68 172 53z m470 0 c20 -4 31 -12 31 -24 0 -15 -8
-17 -69 -12 -66 4 -71 3 -95 -23 -24 -26 -25 -30 -10 -46 8 -9 31 -20 51 -24
55 -10 83 -27 90 -53 9 -37 -8 -74 -46 -99 -28 -19 -47 -23 -102 -22 -75 2
-95 9 -85 34 4 12 12 15 24 10 9 -4 41 -10 69 -13 49 -4 55 -2 83 28 38 40 29
54 -46 76 -60 17 -84 36 -84 64 0 76 88 124 189 104z m700 -30 c20 -24 23 -36
19 -84 -8 -110 -87 -190 -187 -190 -63 0 -91 32 -91 105 0 32 4 55 11 55 5 0
7 4 4 10 -16 25 60 114 111 130 49 16 106 4 133 -26z m797 15 c20 -16 17 -88
-9 -194 -20 -79 -25 -90 -46 -93 -18 -3 -22 0 -17 15 19 63 46 185 46 205 0
34 -18 48 -60 48 -70 0 -99 -39 -131 -180 -17 -75 -24 -90 -40 -90 -24 0 -24
1 7 123 46 184 43 177 65 177 16 0 19 -4 14 -20 -8 -25 0 -25 33 -1 15 10 34
21 42 24 21 9 79 0 96 -14z m509 11 c49 -19 24 -35 -48 -31 -65 3 -68 2 -101
-31 -38 -38 -61 -106 -51 -147 3 -14 6 -31 7 -37 1 -6 6 -11 12 -12 6 -1 25
-4 42 -8 17 -3 47 -1 67 4 38 11 43 7 28 -17 -12 -19 -121 -27 -150 -12 -12 7
-18 17 -15 23 4 7 3 8 -4 4 -16 -10 -32 27 -32 75 0 127 135 231 245 189z
m322 -25 c51 -59 8 -205 -73 -252 -55 -32 -127 -31 -159 2 -52 51 -24 183 51
242 47 37 66 43 119 38 28 -3 47 -12 62 -30z m341 15 c28 -27 28 -66 -1 -190
-20 -83 -26 -95 -46 -98 -18 -3 -22 0 -17 15 19 63 46 185 46 205 0 32 -18 48
-51 48 -75 0 -108 -40 -134 -159 -20 -88 -30 -111 -50 -111 -20 0 -19 4 11
123 44 179 42 173 64 174 16 1 20 -2 15 -18 -7 -20 9 -27 20 -9 9 15 66 38 96
39 14 1 35 -8 47 -19z m301 14 c20 -4 31 -12 31 -24 0 -15 -8 -17 -69 -12 -61
4 -71 2 -90 -17 -35 -35 -23 -53 52 -80 54 -19 68 -28 74 -49 16 -66 -45 -122
-136 -122 -76 0 -101 8 -101 32 0 16 4 19 23 14 87 -27 160 -14 171 30 9 35 2
42 -60 60 -85 24 -102 55 -67 115 27 46 97 68 172 53z m450 0 c20 -4 31 -12
31 -24 0 -15 -9 -16 -74 -12 -72 4 -74 4 -92 -23 -23 -36 -10 -56 47 -70 71
-18 89 -32 89 -66 0 -66 -58 -109 -147 -109 -62 0 -93 9 -93 26 0 21 13 24 58
12 56 -14 108 -3 128 27 22 34 5 61 -46 70 -50 8 -90 39 -90 69 0 31 36 75 74
92 35 15 68 17 115 8z m540 -9 c38 -19 56 -64 44 -112 l-9 -38 -114 -1 -115
-2 -3 -27 c-8 -64 60 -99 146 -76 50 13 63 8 40 -16 -11 -11 -41 -17 -90 -21
-69 -4 -76 -3 -106 23 -28 23 -32 33 -32 76 0 52 27 122 43 112 6 -4 7 -1 3 6
-17 28 78 90 137 91 15 0 41 -7 56 -15z m351 0 c27 -14 30 -20 30 -63 0 -26
-11 -87 -23 -137 -20 -78 -26 -90 -46 -93 -18 -3 -22 0 -17 15 19 63 46 185
46 205 0 32 -18 48 -51 48 -75 0 -101 -31 -134 -158 -25 -101 -30 -112 -51
-112 -19 0 -18 5 12 123 46 184 43 177 66 177 15 0 19 -5 15 -20 -6 -25 -8
-25 44 5 51 29 69 31 109 10z m363 -4 c19 -19 -5 -29 -61 -24 -93 7 -144 -39
-158 -141 -6 -39 -3 -48 19 -70 28 -28 74 -34 121 -16 27 10 32 5 17 -19 -10
-16 -97 -27 -136 -17 -46 12 -65 41 -65 98 0 124 95 216 210 203 24 -3 48 -9
53 -14z m1188 -3 c12 -13 19 -16 15 -8 -4 8 0 6 9 -5 9 -11 18 -29 21 -41 7
-28 -9 -89 -24 -90 -7 -1 -59 -2 -117 -3 l-105 -1 0 -28 c0 -65 60 -94 146
-73 52 13 65 8 42 -16 -11 -11 -41 -17 -90 -21 -69 -4 -76 -3 -106 23 -28 24
-32 33 -32 78 0 89 50 165 127 192 56 20 89 18 114 -7z m376 -5 c19 -24 15
-85 -11 -187 -19 -77 -25 -90 -45 -93 -17 -2 -21 1 -17 14 19 64 46 185 46
205 0 34 -18 48 -60 48 -70 0 -95 -34 -130 -177 -18 -77 -26 -93 -41 -93 -24
0 -24 1 7 123 46 184 43 177 66 177 15 0 19 -5 15 -20 -5 -21 7 -27 19 -9 23
38 127 46 151 12z m330 -8 c29 -33 29 -33 -3 -166 -22 -91 -29 -109 -45 -109
-12 0 -19 7 -19 20 0 25 -8 25 -40 0 -26 -21 -103 -27 -129 -11 -8 5 -16 29
-18 53 -4 38 -1 48 24 75 34 36 95 56 162 52 53 -4 64 14 36 58 -16 24 -20 25
-86 21 -52 -4 -69 -2 -69 7 0 18 66 35 120 30 33 -2 50 -10 67 -30z m353 20
c5 -3 7 -12 4 -19 -4 -10 -21 -12 -68 -9 -60 5 -63 4 -98 -28 -59 -56 -75
-143 -33 -184 26 -27 59 -31 113 -16 33 10 38 6 23 -18 -10 -16 -97 -27 -135
-17 -44 11 -66 44 -66 100 0 122 96 214 208 201 24 -3 48 -7 52 -10z m1803 -4
c20 -20 -6 -29 -61 -22 -46 7 -59 4 -85 -13 -40 -27 -65 -71 -73 -129 -6 -40
-3 -49 19 -71 14 -13 23 -27 21 -29 -3 -2 21 0 52 5 66 10 77 8 64 -11 -12
-20 -124 -28 -155 -11 -72 38 -54 192 30 256 19 14 46 29 62 34 35 12 111 6
126 -9z m304 -16 c52 -60 10 -206 -73 -252 -54 -31 -127 -31 -158 0 -46 46
-26 178 35 233 68 61 153 70 196 19z m341 19 c29 -20 29 -69 -2 -194 -20 -83
-26 -95 -45 -98 -18 -3 -22 0 -17 15 19 63 46 185 46 205 0 13 -5 29 -12 36
-19 19 -82 14 -110 -8 -29 -23 -39 -45 -69 -158 -19 -75 -39 -106 -56 -89 -3
4 6 55 21 114 47 189 45 183 67 183 16 0 19 -4 14 -20 -7 -21 9 -28 21 -9 9
16 64 38 94 39 14 0 36 -7 48 -16z m727 0 c32 -21 32 -57 4 -184 -23 -103 -30
-116 -52 -107 -13 5 -12 19 9 99 37 145 32 168 -39 168 -29 0 -46 -7 -66 -28
-27 -26 -35 -49 -71 -185 -12 -45 -32 -68 -47 -54 -7 8 56 268 70 285 18 24
38 14 31 -15 l-7 -28 24 22 c47 43 104 54 144 27z m702 -19 c32 -36 31 -100
-3 -170 -33 -70 -71 -98 -143 -103 -49 -4 -59 -1 -83 22 -66 60 -13 226 87
272 46 22 115 12 142 -21z m652 29 c20 -4 31 -12 31 -24 0 -15 -8 -17 -69 -12
-61 4 -71 2 -90 -17 -35 -35 -23 -53 52 -80 54 -19 68 -28 74 -49 16 -66 -45
-122 -136 -122 -76 0 -101 8 -101 32 0 16 4 19 23 14 87 -27 160 -14 171 30 9
35 2 42 -60 60 -85 24 -102 55 -67 115 27 46 97 68 172 53z m652 -16 c12 -13
19 -16 15 -8 -4 8 0 6 9 -5 9 -11 18 -29 21 -41 7 -28 -9 -89 -24 -90 -7 -1
-59 -2 -117 -3 l-105 -1 0 -28 c0 -65 60 -94 146 -73 52 13 65 8 42 -16 -11
-11 -41 -17 -90 -21 -69 -4 -76 -3 -106 23 -28 24 -32 33 -32 78 0 89 50 165
127 192 56 20 89 18 114 -7z m346 -13 c13 -14 23 -34 23 -43 0 -20 -47 -209
-55 -223 -11 -16 -35 -9 -35 10 0 11 -4 22 -10 26 -5 3 2 22 15 42 14 20 25
45 25 56 0 18 -5 19 -67 14 -57 -4 -71 -9 -91 -32 -49 -57 -2 -115 70 -87 42
16 56 4 21 -19 -36 -24 -110 -25 -135 -2 -22 20 -23 64 -3 103 17 33 50 54 67
44 6 -4 8 -3 5 3 -8 13 38 23 100 23 52 0 64 17 38 56 -16 25 -20 26 -86 22
-54 -4 -69 -2 -69 8 0 8 12 16 28 20 15 3 32 7 37 10 6 2 30 2 55 0 33 -3 50
-11 67 -31z m323 21 c0 -20 -8 -23 -55 -27 -68 -6 -91 -37 -120 -159 -21 -89
-31 -110 -50 -110 -20 0 -19 4 11 123 46 184 43 177 65 177 16 0 19 -4 14 -20
-7 -21 9 -28 21 -9 18 30 114 51 114 25z m248 -6 c28 -27 28 -64 0 -185 -16
-73 -26 -96 -40 -101 -11 -3 -21 -4 -23 -2 -2 1 9 55 25 118 25 104 26 117 12
133 -9 11 -30 17 -54 17 -70 0 -100 -47 -139 -218 -10 -39 -17 -52 -31 -52
-10 0 -18 5 -18 10 0 23 64 266 73 278 18 24 38 14 31 -15 l-7 -28 24 22 c50
45 112 55 147 23z m510 4 c29 -20 29 -69 -2 -194 -20 -83 -26 -95 -45 -98 -18
-3 -22 0 -17 15 19 63 46 185 46 205 0 13 -5 29 -12 36 -19 19 -82 14 -110 -8
-29 -23 -39 -45 -69 -158 -19 -75 -39 -106 -56 -89 -3 4 6 55 21 114 47 189
45 183 67 183 16 0 19 -4 14 -20 -7 -21 9 -28 21 -9 9 16 64 38 94 39 14 0 36
-7 48 -16z m312 -10 c31 -27 31 -27 37 -5 5 18 43 32 43 15 0 -28 -76 -298
-93 -326 -29 -53 -91 -82 -163 -76 -59 5 -69 10 -61 31 4 12 13 13 46 4 67
-18 120 5 150 66 13 26 21 50 18 53 -3 3 -19 -4 -35 -16 -43 -32 -103 -32
-136 -1 -63 59 -10 225 84 265 50 22 74 19 110 -10z m-12980 -104 l5 -115 39
75 c22 41 49 93 60 115 16 30 27 40 46 40 l25 0 3 -112 c1 -62 6 -113 10 -113
4 0 33 52 65 115 45 90 61 115 77 115 18 0 12 -17 -55 -150 -67 -131 -79 -150
-101 -150 -24 0 -24 0 -24 113 0 61 -4 117 -8 124 -4 7 -32 -37 -70 -113 -55
-108 -67 -124 -88 -124 -23 0 -24 2 -24 83 0 45 -3 113 -7 150 -6 68 -6 69 18
65 23 -3 24 -6 29 -118z m2290 115 c0 -3 -16 -71 -36 -150 -31 -122 -39 -145
-55 -145 -12 0 -19 7 -19 20 0 11 4 20 8 20 4 0 8 8 8 18 0 9 13 68 28 130 24
93 31 112 47 112 11 0 19 -2 19 -5z m1644 -12 c2 -10 10 -58 17 -108 6 -49 15
-94 20 -99 4 -4 41 44 83 108 58 89 80 116 97 116 20 0 20 -1 6 -22 -8 -13
-57 -88 -109 -167 -120 -185 -153 -221 -202 -221 -46 0 -44 21 2 31 34 7 68
40 78 77 4 13 -3 83 -15 156 -11 73 -21 136 -21 140 0 14 39 4 44 -11z m2276
12 c0 -3 -16 -71 -36 -150 -31 -122 -39 -145 -55 -145 -12 0 -19 7 -19 20 0
11 4 20 8 20 4 0 8 8 8 18 0 9 13 68 28 130 24 93 31 112 47 112 11 0 19 -2
19 -5z m360 -107 c8 -59 18 -109 21 -113 6 -5 143 193 152 218 1 5 12 7 23 5
19 -3 17 -9 -28 -78 -27 -41 -76 -118 -110 -170 -81 -124 -117 -160 -164 -160
-44 0 -41 22 4 31 34 7 68 40 78 78 4 12 -3 82 -15 155 -12 72 -21 135 -21
139 0 5 10 7 22 5 20 -3 24 -13 38 -110z m2350 107 c0 -3 -16 -71 -36 -150
-31 -122 -39 -145 -55 -145 -11 0 -19 3 -19 6 0 13 61 251 70 272 8 19 40 32
40 17z m484 -87 c-30 -118 -31 -154 -3 -169 33 -17 84 -2 116 34 20 23 34 59
51 130 20 81 27 97 43 97 10 0 19 -2 19 -5 0 -3 -16 -71 -36 -150 -32 -126
-39 -145 -56 -145 -16 0 -19 5 -14 25 l6 25 -36 -25 c-43 -29 -114 -34 -138
-9 -19 19 -21 28 -3 18 6 -4 4 1 -5 12 -16 19 -16 26 8 129 29 125 29 125 54
125 17 0 17 -5 -6 -92z m706 75 c0 -10 -9 -52 -20 -93 -11 -41 -20 -87 -20
-102 0 -67 80 -76 135 -16 23 25 36 56 54 131 19 81 26 97 42 97 10 0 19 -3
19 -6 0 -3 -13 -58 -29 -122 -16 -64 -32 -129 -35 -144 -4 -20 -13 -28 -27
-28 -17 0 -20 5 -17 24 l5 25 -36 -25 c-61 -41 -149 -28 -152 24 -3 40 23 173
46 240 7 18 35 14 35 -5z m2240 12 c0 -3 -16 -71 -36 -150 -31 -124 -39 -145
-56 -145 -14 0 -18 5 -15 18 3 9 20 77 37 150 27 111 35 132 51 132 11 0 19
-2 19 -5z m-20542 -120 c95 -25 120 -43 143 -105 40 -106 45 -147 24 -186 -10
-19 -22 -34 -26 -34 -5 0 -27 -25 -50 -55 -23 -30 -56 -64 -75 -76 -50 -30
-44 -53 19 -83 28 -14 78 -47 111 -73 32 -27 67 -53 77 -59 10 -6 27 -18 37
-27 10 -10 28 -17 39 -17 22 0 199 70 310 123 26 12 55 -6 47 -28 -7 -17 -98
-57 -332 -146 -20 -8 -21 -12 -11 -30 15 -28 -4 -94 -29 -102 -9 -3 -28 -12
-42 -20 -14 -8 -41 -22 -60 -31 -35 -16 -34 -16 55 -12 201 12 363 69 580 206
156 99 256 220 270 329 10 78 14 89 36 96 23 8 77 -15 101 -42 8 -10 28 -53
43 -96 l27 -77 -18 -50 c-13 -35 -37 -69 -87 -117 -38 -38 -89 -88 -113 -112
-69 -68 -77 -94 -79 -257 -3 -188 -19 -242 -88 -307 -65 -60 -131 -98 -227
-131 -41 -13 -109 -37 -150 -51 -91 -33 -153 -49 -245 -64 -38 -7 -96 -16
-127 -22 -77 -13 -362 -9 -414 7 -63 19 -120 50 -143 80 -30 38 -61 129 -61
180 0 79 52 247 86 275 20 17 17 26 -10 33 -54 13 -39 74 20 81 99 12 132 20
154 34 14 10 45 26 70 36 25 10 79 37 120 59 106 57 209 106 220 106 21 0 9
20 -27 47 -21 15 -55 41 -75 58 -21 18 -70 42 -110 54 -124 39 -138 47 -138
79 0 27 44 74 116 122 13 9 38 36 55 60 18 25 43 53 56 63 28 22 28 33 6 110
-12 39 -26 65 -43 76 -59 40 -194 47 -275 13 -47 -20 -51 -23 -90 -82 -16 -25
-53 -77 -82 -116 -29 -40 -53 -75 -53 -78 0 -12 -160 -236 -190 -266 -3 -3 -9
-12 -15 -21 -32 -51 -92 -141 -124 -189 -21 -30 -42 -66 -46 -79 -6 -20 0 -17
40 20 25 24 51 45 56 47 4 2 23 17 40 33 17 16 67 54 109 84 43 30 111 86 151
123 94 87 109 96 137 76 36 -25 29 -62 -16 -82 -20 -9 -53 -31 -72 -49 -19
-17 -60 -48 -90 -69 -129 -87 -258 -185 -300 -228 -24 -25 -50 -46 -57 -46 -6
0 -39 -27 -73 -60 -65 -64 -88 -72 -120 -40 -26 26 -25 35 3 61 61 57 87 84
87 91 0 5 22 41 48 81 27 40 55 82 63 94 8 11 80 109 162 216 81 107 147 198
147 201 0 11 128 200 174 258 25 31 46 65 46 76 0 42 36 54 143 47 54 -3 124
-12 155 -20z m12442 -130 c0 -16 -68 -105 -80 -105 -12 0 -12 3 -4 24 3 9 11
13 17 9 5 -3 7 -2 4 4 -7 11 13 74 27 85 13 9 36 -2 36 -17z m-2120 -1267 l0
-71 23 21 c25 24 84 30 117 12 28 -15 40 -65 40 -166 0 -87 -1 -94 -20 -94
-19 0 -20 7 -20 98 0 72 -4 103 -16 120 -20 29 -70 29 -101 0 -21 -20 -23 -30
-23 -120 0 -91 -1 -98 -20 -98 -19 0 -20 7 -20 185 0 178 1 185 20 185 18 0
20 -7 20 -72z m320 47 c0 -18 -5 -25 -20 -25 -15 0 -20 7 -20 25 0 18 5 25 20
25 15 0 20 -7 20 -25z m1220 -160 c0 -178 -1 -185 -20 -185 -14 0 -20 7 -20
21 l0 20 -26 -20 c-32 -25 -90 -27 -123 -5 -29 21 -51 72 -51 119 0 47 22 98
51 119 33 22 91 20 123 -5 l26 -20 0 70 c0 64 2 71 20 71 19 0 20 -7 20 -185z
m2070 0 c0 -178 -1 -185 -20 -185 -14 0 -20 7 -20 21 l0 20 -26 -20 c-32 -25
-90 -27 -123 -5 -29 21 -51 72 -51 119 0 47 22 98 51 119 33 22 91 20 123 -5
l26 -20 0 70 c0 64 2 71 20 71 19 0 20 -7 20 -185z m-4040 4 c36 -95 67 -176
69 -181 2 -5 -7 -8 -20 -6 -17 2 -28 15 -40 48 l-17 45 -83 0 -83 0 -17 -45
c-12 -33 -23 -46 -39 -48 -16 -3 -21 0 -18 10 3 7 34 88 69 181 59 155 66 167
89 167 23 0 30 -12 90 -171z m3171 142 c55 -55 38 -109 -65 -211 -36 -35 -66
-68 -66 -72 0 -4 36 -8 80 -8 73 0 80 -2 80 -20 0 -19 -7 -20 -110 -20 -108 0
-110 0 -110 23 0 15 27 49 80 102 90 90 111 131 86 170 -22 34 -60 41 -117 22
-47 -15 -49 -14 -49 4 0 26 32 38 103 38 52 1 62 -2 88 -28z m330 0 c35 -43
13 -130 -33 -131 -7 -1 -1 -7 14 -16 69 -37 64 -136 -9 -173 -23 -12 -113 -15
-150 -5 -14 4 -23 14 -23 26 0 15 4 18 18 13 33 -14 97 -17 125 -6 33 13 52
50 43 86 -7 28 -56 55 -101 55 -16 0 -25 6 -25 15 0 11 11 15 38 15 50 0 82
23 82 60 0 52 -59 73 -138 51 -28 -8 -32 -7 -32 9 0 26 15 30 99 27 63 -2 76
-6 92 -26z m829 -170 c0 -193 -1 -201 -22 -225 -13 -13 -38 -27 -55 -31 -29
-6 -33 -4 -33 14 0 14 6 21 19 21 44 0 51 32 51 232 0 181 1 188 20 188 19 0
20 -7 20 -199z m2181 170 c55 -55 38 -109 -65 -211 -36 -35 -66 -68 -66 -72 0
-4 36 -8 80 -8 73 0 80 -2 80 -20 0 -19 -7 -20 -110 -20 -108 0 -110 0 -110
23 0 15 27 49 80 102 90 90 111 131 86 170 -22 34 -60 41 -117 22 -47 -15 -49
-14 -49 4 0 26 32 38 103 38 52 1 62 -2 88 -28z m307 4 c69 -58 70 -239 2
-307 -22 -22 -38 -28 -70 -28 -23 0 -50 5 -61 10 -79 43 -80 293 -2 339 34 20
99 13 131 -14z m323 -4 c55 -55 38 -109 -65 -211 -36 -35 -66 -68 -66 -72 0
-4 36 -8 80 -8 73 0 80 -2 80 -20 0 -19 -7 -20 -110 -20 -108 0 -110 0 -110
23 0 15 26 48 76 97 109 108 123 142 79 185 -27 28 -61 31 -117 11 -35 -13
-38 -12 -38 6 0 25 32 37 103 37 52 1 62 -2 88 -28z m319 9 c0 -18 -7 -20 -73
-20 l-73 0 1 -42 c1 -38 4 -43 26 -44 13 -1 36 -2 51 -3 43 -2 88 -49 94 -96
11 -83 -39 -135 -131 -135 -70 0 -95 9 -95 32 0 16 4 18 23 11 45 -16 115 -9
139 14 32 33 29 90 -8 121 -24 21 -35 24 -81 19 l-53 -6 0 85 0 84 90 0 c83 0
90 -1 90 -20z m-7166 -76 c9 -3 16 -12 16 -19 0 -10 -13 -12 -53 -8 -47 5 -57
2 -83 -20 -26 -22 -29 -32 -29 -82 0 -50 3 -60 29 -82 26 -22 36 -25 83 -20
40 4 53 2 53 -8 0 -17 -23 -25 -77 -25 -80 0 -120 37 -130 119 -7 58 14 108
55 133 27 17 105 24 136 12z m456 -129 c0 -128 -1 -135 -20 -135 -19 0 -20 7
-20 135 0 128 1 135 20 135 19 0 20 -7 20 -135z m291 106 c16 -17 29 -40 29
-54 0 -14 3 -32 6 -41 5 -14 -7 -16 -101 -16 l-107 0 6 -27 c15 -61 89 -91
160 -63 22 8 26 7 26 -9 0 -22 -26 -31 -98 -31 -45 0 -57 4 -88 33 -44 40 -55
96 -30 160 20 53 56 76 119 77 40 0 53 -5 78 -29z m145 -43 c15 -40 35 -93 45
-118 20 -52 11 -63 69 98 25 72 37 92 51 92 11 0 19 -3 19 -8 0 -4 -22 -64
-48 -132 -46 -119 -50 -125 -76 -125 -27 0 -30 6 -77 130 -27 72 -49 131 -49
133 0 1 9 2 19 2 15 0 26 -17 47 -72z m445 43 c16 -17 29 -40 29 -54 0 -14 3
-32 6 -41 5 -14 -7 -16 -101 -16 l-107 0 6 -27 c4 -16 19 -39 33 -52 23 -20
34 -22 77 -18 28 2 59 8 69 12 12 5 17 3 17 -9 0 -22 -40 -36 -106 -36 -47 0
-59 4 -90 33 -44 40 -55 96 -30 160 20 53 56 76 119 77 40 0 53 -5 78 -29z
m761 9 c37 -28 51 -72 46 -137 -4 -48 -10 -61 -37 -85 -25 -22 -41 -28 -79
-28 -57 0 -89 20 -108 66 -28 66 -10 155 37 188 33 23 110 21 141 -4z m168 -2
l0 -21 23 21 c25 24 84 30 117 12 28 -15 40 -65 40 -166 0 -87 -1 -94 -20 -94
-19 0 -20 7 -20 98 0 72 -4 103 -16 120 -20 29 -70 29 -101 0 -21 -20 -23 -30
-23 -120 0 -91 -1 -98 -20 -98 -19 0 -20 7 -20 135 0 128 1 135 20 135 14 0
20 -7 20 -22z m1110 2 l0 -21 22 21 c26 24 88 28 88 5 0 -10 -10 -15 -30 -15
-19 0 -40 -9 -55 -25 -23 -22 -25 -32 -25 -120 0 -88 -1 -95 -20 -95 -19 0
-20 7 -20 135 0 128 1 135 20 135 13 0 20 -7 20 -20z m940 0 c27 -27 35 -62
35 -160 0 -73 -2 -85 -17 -88 -13 -2 -18 3 -18 18 l0 21 -26 -20 c-32 -25 -99
-28 -131 -6 -27 19 -37 63 -23 99 13 34 63 56 130 56 27 0 50 4 50 9 0 4 -9
20 -21 35 -17 21 -29 26 -65 26 -25 0 -54 -5 -65 -10 -16 -9 -19 -7 -19 9 0
23 16 28 93 30 44 1 61 -3 77 -19z m170 -2 l0 -21 23 21 c25 24 84 30 117 12
28 -15 40 -65 40 -166 0 -87 -1 -94 -20 -94 -19 0 -20 7 -20 98 0 72 -4 103
-16 120 -20 29 -70 29 -101 0 -21 -20 -23 -30 -23 -120 0 -91 -1 -98 -20 -98
-19 0 -20 7 -20 135 0 128 1 135 20 135 14 0 20 -7 20 -22z m310 -62 c0 -132
24 -170 95 -152 39 10 55 54 55 151 0 78 2 85 20 85 19 0 20 -7 20 -135 0
-128 -1 -135 -20 -135 -14 0 -20 7 -20 21 l0 20 -26 -20 c-40 -32 -106 -29
-133 5 -18 23 -21 41 -21 135 0 90 3 109 15 109 12 0 15 -16 15 -84z m455 58
c24 -26 35 -90 33 -196 -1 -40 -4 -48 -20 -48 -12 0 -18 7 -18 21 l0 20 -26
-20 c-32 -25 -99 -28 -131 -6 -27 19 -37 63 -23 99 13 34 63 56 130 56 27 0
50 3 50 6 0 11 -23 49 -34 56 -16 11 -80 10 -110 -2 -22 -8 -26 -7 -26 10 0
22 16 27 93 29 50 1 61 -2 82 -25z m165 4 l0 -21 23 21 c27 26 87 31 87 7 0
-10 -10 -15 -34 -15 -25 0 -40 -7 -55 -26 -18 -23 -21 -41 -21 -120 0 -87 -1
-94 -20 -94 -19 0 -20 7 -20 135 0 128 1 135 20 135 14 0 20 -7 20 -22z m221
-83 c23 -58 46 -102 49 -98 4 5 24 52 45 106 29 73 43 97 57 97 10 0 18 -2 18
-5 0 -3 -30 -79 -66 -170 -69 -172 -85 -195 -136 -195 -37 0 -37 28 0 32 35 4
69 66 52 95 -6 10 -29 63 -51 118 -22 55 -43 106 -46 113 -3 7 3 12 15 12 15
0 28 -21 63 -105z m-15601 -555 c0 -11 -7 -20 -15 -20 -8 0 -15 9 -15 20 0 11
7 20 15 20 8 0 15 -9 15 -20z m-1331 -14 c26 -24 27 -61 2 -82 -18 -15 -17
-17 5 -40 29 -28 31 -64 6 -94 -15 -19 -31 -24 -95 -28 l-77 -5 0 130 c0 71 3
133 8 137 14 15 130 1 151 -18z m839 2 c3 -14 -1 -15 -31 -6 -43 13 -83 4 -97
-21 -17 -32 -1 -50 61 -67 69 -19 83 -33 83 -81 0 -48 -31 -73 -93 -73 -61 0
-91 9 -91 27 0 11 6 13 23 8 46 -15 73 -16 100 -6 24 9 28 16 25 43 -3 30 -8
35 -58 51 -88 29 -113 75 -65 123 22 22 32 25 82 22 45 -2 59 -7 61 -20z
m1457 10 c14 -6 25 -17 25 -24 0 -10 -8 -10 -37 2 -81 34 -143 -10 -143 -101
0 -91 62 -135 143 -101 30 12 37 12 37 2 0 -22 -56 -39 -106 -33 -56 6 -92 38
-104 93 -21 93 32 174 115 174 24 0 56 -5 70 -12z m245 -3 c0 -12 -14 -15 -65
-15 l-65 0 0 -40 0 -40 65 0 c51 0 65 -3 65 -15 0 -12 -14 -15 -65 -15 l-65 0
0 -50 0 -50 70 0 c56 0 70 -3 70 -15 0 -12 -16 -15 -85 -15 l-85 0 0 135 0
135 80 0 c64 0 80 -3 80 -15z m248 -1 c75 -52 66 -214 -14 -244 -65 -25 -137
0 -160 55 -28 67 -14 143 34 182 33 27 106 31 140 7z m23762 1 c0 -11 -12 -15
-50 -15 l-49 0 -15 -52 c-8 -29 -22 -83 -32 -120 -10 -42 -22 -68 -30 -68 -18
0 -18 -4 15 128 l29 112 -49 0 c-39 0 -47 3 -43 15 5 12 27 15 115 15 90 0
109 -3 109 -15z m64 -37 c-7 -29 -14 -54 -14 -55 0 -2 31 -3 70 -3 l69 0 11
43 c16 64 18 67 34 67 11 0 9 -18 -11 -97 -42 -171 -43 -173 -59 -173 -10 0
-14 6 -10 18 3 9 8 31 11 47 4 17 9 38 12 48 4 15 -4 17 -65 17 -68 0 -70 -1
-76 -27 -21 -87 -28 -103 -42 -103 -10 0 -14 6 -10 18 3 9 17 64 31 122 32
132 32 130 49 130 12 0 12 -7 0 -52z m311 5 c4 -27 10 -68 14 -93 l7 -45 60
92 c47 73 64 92 83 93 17 0 22 -4 19 -17 -3 -10 -18 -71 -33 -135 -19 -75 -34
-118 -42 -118 -17 0 -17 -1 12 114 14 54 25 104 25 110 0 6 -25 -27 -55 -73
-53 -83 -79 -110 -89 -93 -3 5 -9 43 -15 86 -5 43 -11 80 -14 82 -3 3 -17 -47
-33 -110 -18 -74 -33 -116 -41 -116 -18 0 -17 3 18 145 29 115 33 125 55 125
20 0 24 -6 29 -47z m550 27 c0 -8 -7 -13 -15 -11 -74 20 -130 2 -130 -44 0
-21 8 -27 52 -40 28 -8 55 -21 60 -28 15 -23 8 -66 -16 -94 -22 -26 -30 -28
-94 -28 -71 0 -94 7 -76 25 5 5 26 4 52 -3 35 -9 48 -9 69 3 64 37 55 75 -23
99 -46 15 -49 18 -52 52 -3 30 2 41 29 63 27 23 39 27 88 24 42 -2 56 -7 56
-18z m115 13 c0 -5 -9 -42 -20 -83 -25 -97 -26 -136 -1 -150 64 -34 108 11
140 143 15 66 27 97 37 97 19 0 18 -10 -9 -111 -35 -132 -60 -159 -147 -159
-74 0 -85 41 -49 185 14 55 26 85 35 85 8 0 14 -3 14 -7z m415 -23 c28 -26 32
-61 13 -122 -23 -77 -95 -118 -209 -118 -34 0 -39 3 -35 18 3 9 17 64 31 122
14 58 28 111 31 119 3 11 20 13 75 9 55 -4 75 -10 94 -28z m240 18 c20 -9 25
-18 25 -45 0 -19 -5 -43 -11 -55 -13 -25 -68 -48 -113 -48 -34 0 -35 -1 -47
-55 -7 -33 -17 -55 -26 -55 -18 0 -17 3 18 145 l31 125 49 0 c26 0 60 -5 74
-12z m199 -110 c20 -149 20 -148 2 -148 -9 0 -16 12 -18 33 l-3 32 -66 3 -65
3 -19 -36 c-17 -30 -45 -48 -45 -29 0 4 36 65 81 135 105 168 111 169 133 7z
m297 112 c10 -6 19 -17 19 -26 0 -13 -4 -12 -32 2 -82 42 -178 -33 -178 -140
0 -25 7 -40 26 -55 31 -25 52 -26 99 -7 28 12 35 12 35 2 0 -19 -45 -36 -96
-36 -60 0 -94 32 -94 90 0 45 21 103 48 134 36 40 128 60 173 36z m164 -95
c15 -58 31 -108 36 -110 4 -3 17 34 28 82 31 130 32 133 47 133 11 0 13 -7 7
-27 -3 -16 -18 -75 -33 -133 -22 -90 -29 -105 -48 -108 -18 -3 -23 5 -36 50
-8 29 -22 79 -31 111 -10 33 -20 55 -24 50 -4 -4 -18 -54 -32 -110 -14 -63
-29 -103 -36 -103 -18 0 -17 4 18 145 29 113 34 125 54 125 20 0 25 -12 50
-105z m395 98 c0 -5 -53 -59 -117 -120 l-118 -113 88 0 c71 0 87 -3 87 -15 0
-12 -19 -15 -110 -15 -60 0 -110 4 -110 9 0 5 52 59 115 120 l116 111 -81 0
c-64 0 -80 3 -80 15 0 12 18 15 105 15 58 0 105 -3 105 -7z m82 -48 c11 -27
22 -52 24 -54 2 -3 27 21 55 52 28 31 58 57 66 57 9 0 -10 -28 -49 -72 -56
-64 -66 -81 -78 -135 -10 -48 -17 -63 -30 -63 -16 0 -16 4 -2 65 16 64 15 65
-11 130 -32 77 -32 77 -11 73 9 -2 25 -25 36 -53z m342 34 c19 -28 3 -76 -30
-91 -24 -11 -24 -11 -4 -25 37 -26 18 -90 -34 -118 -41 -22 -129 -18 -134 6
-3 14 3 15 41 6 54 -12 97 5 111 45 12 35 -6 58 -45 58 -19 0 -29 5 -29 15 0
10 10 15 34 15 40 0 66 22 66 55 0 29 -27 40 -76 30 -19 -3 -34 -2 -34 4 0 14
19 19 72 20 37 1 50 -3 62 -20z m-29478 -71 c4 -6 10 -25 14 -44 l8 -33 -76
-3 c-85 -3 -97 -14 -58 -53 27 -27 72 -33 107 -15 15 8 19 7 19 -4 0 -18 -22
-26 -71 -26 -53 0 -78 14 -95 56 -27 65 0 126 62 143 30 8 79 -3 90 -21z
m1014 17 c0 -9 -9 -15 -24 -15 -39 0 -56 -35 -56 -112 0 -54 -3 -68 -15 -68
-12 0 -15 18 -15 100 0 82 3 100 15 100 8 0 15 -7 15 -17 0 -15 2 -15 18 -1 9
9 26 18 37 21 11 2 21 5 23 6 1 0 2 -6 2 -14z m-907 -7 c4 -10 7 -10 18 0 23
21 86 15 103 -10 22 -31 23 -178 1 -178 -12 0 -15 15 -15 78 0 82 -9 102 -45
102 -44 0 -57 -22 -63 -103 -2 -43 -9 -77 -13 -77 -5 0 -9 45 -9 100 0 89 9
124 23 88z m590 0 c4 -10 7 -10 18 0 7 6 29 12 49 12 50 0 72 -27 78 -93 3
-42 0 -57 -18 -79 -25 -32 -72 -38 -108 -12 -22 15 -22 15 -22 -35 0 -28 -4
-51 -10 -51 -6 0 -10 52 -10 135 0 75 4 135 9 135 5 0 11 -6 14 -12z m387 -88
c0 -82 -3 -100 -15 -100 -12 0 -15 18 -15 100 0 82 3 100 15 100 12 0 15 -18
15 -100z m100 84 c0 -14 2 -14 22 0 33 24 84 20 102 -6 22 -31 23 -178 1 -178
-12 0 -15 15 -15 78 0 82 -9 102 -45 102 -45 0 -59 -23 -63 -104 -6 -111 -22
-93 -22 24 0 60 4 100 10 100 6 0 10 -7 10 -16z m329 4 c11 -10 14 -10 18 0
14 38 23 -2 23 -103 0 -103 -2 -117 -21 -136 -16 -16 -30 -19 -71 -17 -28 2
-53 8 -55 13 -2 7 12 9 36 7 49 -5 77 10 85 44 9 35 5 37 -33 18 -61 -30 -111
12 -111 95 0 55 31 91 79 91 20 0 43 -6 50 -12z m25471 -88 c0 -5 -20 -10 -45
-10 -25 0 -45 5 -45 10 0 6 20 10 45 10 25 0 45 -4 45 -10z m-25310 -70 c0
-17 -30 -70 -39 -70 -5 0 -4 18 1 40 6 22 16 40 24 40 8 0 14 -5 14 -10z"/>
<path d="M14594 16112 c-24 -16 -34 -55 -34 -139 0 -99 14 -133 55 -133 37 0
50 34 50 135 0 114 -27 167 -71 137z"/>
<path d="M15601 16101 c-34 -34 -40 -187 -10 -243 14 -26 56 -22 75 7 13 19
15 45 12 126 -2 86 -6 103 -22 115 -26 18 -32 18 -55 -5z"/>
<path d="M15246 15471 c-24 -27 -33 -161 -14 -216 10 -31 19 -41 39 -43 38 -4
51 20 57 103 5 85 -3 138 -24 160 -21 20 -37 19 -58 -4z"/>
<path d="M17417 15326 c-52 -19 -73 -40 -93 -92 -42 -110 32 -224 146 -224
122 0 196 130 138 240 -39 72 -117 103 -191 76z"/>
<path d="M14206 14924 c-3 -9 -6 -46 -6 -84 0 -51 4 -73 17 -85 16 -16 18 -16
35 5 20 25 25 128 8 161 -13 23 -46 25 -54 3z"/>
<path d="M14676 14924 c-13 -34 -6 -152 10 -168 8 -9 17 -16 19 -16 2 0 11 7
19 16 12 11 16 35 16 84 0 84 -6 100 -35 100 -13 0 -26 -7 -29 -16z"/>
<path d="M15480 14936 c-13 -16 -17 -128 -6 -163 5 -16 15 -23 31 -23 30 0 40
30 39 112 -2 77 -32 112 -64 74z"/>
<path d="M15226 14588 c-18 -25 -22 -112 -6 -152 14 -37 45 -34 59 5 22 63 7
155 -26 166 -6 2 -18 -6 -27 -19z"/>
<path d="M15701 14596 c-18 -21 -24 -98 -12 -144 14 -51 45 -58 62 -14 15 38
7 151 -12 163 -19 12 -25 11 -38 -5z"/>
<path d="M14180 14521 c-21 -41 -8 -121 21 -121 23 0 36 72 20 113 -12 32 -26
35 -41 8z"/>
<path d="M17585 14325 c-38 -19 -65 -51 -65 -76 0 -18 9 -19 130 -19 150 0
157 5 91 71 -33 33 -45 39 -82 39 -24 0 -57 -7 -74 -15z"/>
<path d="M14769 14243 c-12 -31 -6 -91 11 -107 16 -16 40 20 40 58 0 74 -30
102 -51 49z"/>
<path d="M17497 10489 c-42 -25 -60 -128 -34 -192 19 -44 40 -59 84 -59 29 0
43 7 65 31 24 27 28 40 28 92 0 65 -18 112 -49 129 -25 13 -71 12 -94 -1z"/>
<path d="M14000 10480 c-41 -41 -52 -121 -26 -185 17 -40 42 -55 91 -55 91 0
130 157 58 232 -34 35 -92 39 -123 8z"/>
<path d="M14573 10360 c-49 -20 -36 -106 17 -120 37 -10 88 7 105 34 9 13 19
40 22 60 l6 36 -64 -1 c-35 0 -74 -4 -86 -9z"/>
<path d="M16050 10480 c-41 -41 -52 -121 -26 -185 17 -40 42 -55 91 -55 91 0
128 147 58 230 -31 37 -91 42 -123 10z"/>
<path d="M17123 10488 c-19 -9 -53 -62 -53 -82 0 -3 47 -6 104 -6 l105 0 -10
33 c-5 17 -18 40 -30 50 -24 19 -82 22 -116 5z"/>
<path d="M17884 10485 c-32 -22 -47 -68 -42 -130 7 -85 57 -127 125 -104 48
15 66 56 61 135 -3 49 -9 69 -28 89 -27 29 -83 34 -116 10z"/>
<path d="M18293 10488 c-19 -9 -53 -62 -53 -82 0 -3 45 -6 100 -6 l100 0 0 25
c0 40 -42 75 -87 74 -21 0 -48 -5 -60 -11z"/>
<path d="M19490 10363 c-42 -15 -54 -78 -21 -107 22 -20 78 -24 110 -7 26 14
51 61 51 96 0 24 -2 25 -62 24 -35 0 -70 -3 -78 -6z"/>
<path d="M17913 8959 c-87 -26 -129 -167 -85 -293 23 -66 58 -91 127 -91 93 0
135 60 135 192 -1 121 -37 183 -115 196 -16 3 -44 1 -62 -4z"/>
<path d="M11005 8720 c-66 -26 -69 -124 -4 -150 42 -18 115 -7 146 21 30 28
53 77 53 114 0 25 0 25 -87 24 -49 0 -97 -4 -108 -9z"/>
<path d="M12264 8720 c-26 -10 -54 -48 -54 -72 0 -103 162 -121 225 -24 9 14
19 43 22 66 l6 40 -89 -1 c-49 0 -99 -4 -110 -9z"/>
<path d="M18735 8720 c-42 -17 -63 -67 -45 -109 30 -74 164 -65 215 13 9 14
19 43 22 66 l6 40 -89 -1 c-49 0 -98 -4 -109 -9z"/>
<path d="M21234 8720 c-26 -10 -54 -48 -54 -72 0 -103 162 -121 225 -24 9 14
19 43 22 66 l6 40 -89 -1 c-49 0 -99 -4 -110 -9z"/>
<path d="M13207 7269 c-50 -29 -64 -150 -24 -210 19 -29 29 -34 68 -37 37 -2
49 1 69 23 22 24 25 35 25 107 0 75 -2 81 -28 104 -30 25 -78 31 -110 13z"/>
<path d="M15507 7269 c-43 -25 -60 -128 -33 -194 17 -39 42 -55 89 -55 27 0
41 7 62 32 25 29 27 38 23 104 -3 60 -8 77 -27 98 -26 28 -80 35 -114 15z"/>
<path d="M14208 7264 c-43 -67 -78 -124 -78 -127 0 -4 34 -7 75 -7 53 0 77 4
81 13 2 7 3 65 2 128 l-3 114 -77 -121z"/>
<path d="M9403 7140 c-30 -12 -40 -56 -22 -89 12 -20 24 -27 56 -29 23 -2 52
2 63 8 23 12 50 66 50 100 0 18 -6 20 -62 19 -35 0 -73 -4 -85 -9z"/>
<path d="M10657 7269 c-61 -36 -60 -205 1 -238 38 -20 91 -13 117 15 69 75 26
234 -63 234 -21 0 -45 -5 -55 -11z"/>
<path d="M11657 7269 c-44 -26 -62 -141 -31 -200 17 -34 64 -58 99 -51 13 2
34 15 47 29 20 21 23 35 23 103 0 69 -3 81 -24 104 -26 28 -80 35 -114 15z"/>
<path d="M12213 7268 c-19 -9 -53 -62 -53 -82 0 -3 47 -6 104 -6 l105 0 -10
33 c-5 17 -18 40 -30 50 -24 19 -82 22 -116 5z"/>
<path d="M12833 7268 c-19 -9 -53 -62 -53 -82 0 -3 47 -6 104 -6 l105 0 -10
33 c-5 17 -18 40 -30 50 -24 19 -82 22 -116 5z"/>
<path d="M15893 7268 c-19 -9 -53 -62 -53 -82 0 -3 47 -6 104 -6 l105 0 -10
33 c-5 17 -18 40 -30 50 -24 19 -82 22 -116 5z"/>
<path d="M17026 7254 c-14 -15 -26 -30 -26 -35 0 -4 -3 -14 -6 -23 -5 -14 7
-16 99 -16 l106 0 -10 33 c-12 45 -43 67 -94 67 -32 0 -48 -6 -69 -26z"/>
<path d="M20110 7143 c-42 -15 -54 -78 -21 -107 22 -20 78 -24 110 -7 26 14
51 61 51 96 0 24 -2 25 -62 24 -35 0 -70 -3 -78 -6z"/>
<path d="M20831 7253 c-16 -16 -32 -38 -36 -50 -6 -23 -5 -23 99 -23 l105 0
-10 33 c-20 70 -103 91 -158 40z"/>
<path d="M21614 7265 c-32 -22 -47 -68 -42 -130 8 -90 73 -137 137 -99 39 23
51 53 51 124 0 48 -4 64 -26 89 -20 24 -34 31 -63 31 -20 0 -46 -7 -57 -15z"/>
<path d="M22013 7268 c-19 -9 -53 -62 -53 -82 0 -3 45 -6 100 -6 l100 0 0 25
c0 40 -42 75 -87 74 -21 0 -48 -5 -60 -11z"/>
<path d="M2186 6767 c-10 -100 -22 -216 -27 -257 -4 -41 -11 -114 -15 -162
l-7 -87 79 1 c161 2 253 -76 292 -249 19 -81 20 -102 11 -185 -13 -112 -52
-202 -106 -247 l-37 -30 30 -12 c49 -19 76 -14 104 20 37 43 51 113 57 278 3
77 9 147 14 155 16 26 37 -15 48 -97 20 -148 43 -193 115 -226 51 -23 126 -26
126 -4 0 22 -332 675 -513 1010 -39 72 -83 154 -98 183 -56 105 -53 110 -73
-91z"/>
<path d="M2180 6220 c-18 -5 -39 -15 -45 -24 -7 -9 -15 -77 -19 -152 -6 -129
-5 -138 17 -187 13 -29 40 -77 60 -107 36 -56 140 -170 154 -170 19 0 78 68
99 114 33 73 51 213 35 279 -33 144 -73 200 -166 235 -60 23 -79 25 -135 12z"/>
<path d="M2087 5733 c-4 -43 -10 -108 -13 -145 l-7 -68 39 0 c52 1 163 25 177
39 8 8 -1 24 -35 59 -47 49 -128 163 -128 181 0 6 -6 11 -14 11 -9 0 -15 -22
-19 -77z"/>
<path d="M1700 5469 c-149 -8 -350 -27 -400 -38 -61 -12 -50 -36 32 -66 111
-41 118 -43 191 -54 37 -6 97 -16 133 -22 61 -11 188 -7 270 7 17 3 43 16 57
28 24 21 27 30 27 90 l0 66 -92 -2 c-51 -1 -149 -5 -218 -9z"/>
<path d="M10063 5475 c-30 -18 -49 -41 -70 -83 -24 -50 -28 -68 -28 -152 0
-86 3 -101 30 -155 34 -67 66 -94 121 -104 87 -16 153 19 196 102 26 50 37
198 19 263 -25 94 -83 146 -168 151 -49 3 -65 0 -100 -22z"/>
<path d="M17255 5487 c-43 -20 -92 -80 -106 -129 -7 -24 -12 -82 -12 -130 0
-75 3 -94 29 -145 39 -78 77 -103 158 -103 123 0 186 88 186 259 0 117 -27
186 -92 234 -34 25 -121 33 -163 14z"/>
<path d="M20464 5701 c-74 -45 -107 -155 -107 -351 1 -241 50 -352 163 -367
53 -7 83 2 124 38 60 52 78 119 84 299 3 124 1 169 -12 220 -22 86 -57 144
-100 164 -46 22 -114 20 -152 -3z"/>
<path d="M9292 5463 c-45 -121 -82 -223 -82 -226 0 -4 75 -7 166 -7 129 0 165
3 161 13 -3 9 -104 281 -157 421 -5 14 -30 -43 -88 -201z"/>
<path d="M11618 5490 c-66 -20 -120 -82 -133 -152 l-7 -38 200 0 199 0 -8 43
c-4 23 -8 45 -9 49 -1 17 -68 82 -97 94 -35 15 -103 17 -145 4z"/>
<path d="M14020 5478 c-78 -40 -112 -116 -112 -248 1 -118 39 -197 114 -236
32 -17 121 -18 151 -3 75 39 117 126 117 243 0 128 -39 213 -114 247 -55 25
-102 24 -156 -3z"/>
<path d="M18018 5490 c-66 -20 -120 -82 -133 -152 l-7 -38 200 0 199 0 -8 43
c-4 23 -8 45 -9 49 -1 17 -68 82 -97 94 -35 15 -103 17 -145 4z"/>
<path d="M897 4723 c-5 -8 -47 -116 -47 -120 0 -2 23 -3 50 -3 28 0 50 3 50 8
0 8 -40 115 -45 120 -2 2 -5 0 -8 -5z"/>
<path d="M3892 4740 c-25 -10 -52 -65 -52 -103 0 -106 110 -155 161 -74 26 41
22 129 -7 157 -23 24 -71 33 -102 20z"/>
<path d="M2140 4601 c-31 -5 -35 -10 -35 -35 0 -34 23 -51 57 -43 41 11 64 90
25 86 -7 -1 -28 -4 -47 -8z"/>
<path d="M2585 4601 c-21 -4 -31 -13 -33 -29 -8 -53 52 -70 88 -25 38 48 16
70 -55 54z"/>
<path d="M11183 4028 c-77 -83 -68 -208 16 -208 60 0 120 83 121 167 0 52 -20
73 -69 73 -29 0 -44 -7 -68 -32z"/>
<path d="M13313 4028 c-57 -59 -70 -188 -20 -202 40 -10 64 -6 92 16 36 28 65
92 64 143 0 55 -17 75 -66 75 -31 0 -45 -7 -70 -32z"/>
<path d="M16072 4027 c-55 -57 -71 -162 -30 -191 71 -50 168 38 168 154 0 75
-81 96 -138 37z"/>
<path d="M20463 4028 c-77 -83 -68 -208 16 -208 60 0 120 83 121 167 0 52 -20
73 -69 73 -29 0 -44 -7 -68 -32z"/>
<path d="M8415 4148 c-9 -27 -35 -137 -35 -148 0 -18 104 -6 135 14 31 20 52
85 36 113 -16 31 -127 47 -136 21z"/>
<path d="M8935 4027 c-63 -63 -71 -181 -14 -201 63 -22 127 28 147 113 10 43
9 58 -3 86 -13 32 -18 35 -55 35 -34 0 -48 -6 -75 -33z"/>
<path d="M9618 4041 c-14 -11 -27 -18 -30 -16 -3 3 -5 -1 -6 -7 0 -7 -3 -22
-7 -33 -6 -19 -1 -20 82 -20 76 0 89 2 96 19 4 10 2 30 -6 45 -10 22 -20 26
-58 29 -33 2 -52 -2 -71 -17z"/>
<path d="M11554 4049 c-20 -10 -54 -58 -54 -76 0 -4 40 -7 89 -5 99 4 111 12
88 60 -10 23 -19 27 -57 29 -25 1 -54 -3 -66 -8z"/>
<path d="M12618 3943 c-50 -8 -87 -80 -56 -111 32 -32 124 2 153 57 26 50 21
61 -27 60 -24 -1 -55 -4 -70 -6z"/>
<path d="M14184 4042 c-30 -23 -53 -73 -60 -126 -5 -36 -3 -47 15 -65 27 -27
74 -27 111 -1 52 37 80 159 44 194 -21 21 -84 20 -110 -2z"/>
<path d="M14702 4025 c-52 -58 -67 -150 -32 -185 37 -37 116 -16 144 38 30 58
38 109 22 147 -14 33 -18 35 -59 35 -39 0 -49 -5 -75 -35z"/>
<path d="M16418 4041 c-14 -11 -27 -18 -30 -16 -3 3 -5 -1 -6 -7 0 -7 -3 -22
-7 -33 -6 -19 -1 -20 82 -20 76 0 89 2 96 19 4 10 2 30 -6 45 -10 22 -20 26
-58 29 -33 2 -52 -2 -71 -17z"/>
<path d="M17458 4041 c-14 -11 -27 -18 -30 -16 -3 3 -5 -1 -6 -7 0 -7 -3 -22
-7 -33 -6 -19 -1 -20 82 -20 76 0 89 2 96 19 4 10 2 30 -6 45 -10 22 -20 26
-58 29 -33 2 -52 -2 -71 -17z"/>
<path d="M20818 3943 c-50 -8 -87 -80 -56 -111 18 -18 69 -14 106 8 29 18 62
71 62 100 0 10 -57 11 -112 3z"/>
<path d="M21730 4051 c-8 -5 -18 -7 -24 -4 -5 3 -6 1 -2 -5 4 -7 3 -12 -2 -12
-8 0 -32 -43 -32 -58 0 -4 41 -7 90 -7 100 0 113 9 88 62 -11 24 -20 28 -58
31 -25 1 -52 -2 -60 -7z"/>
<path d="M22618 3943 c-50 -8 -87 -80 -56 -111 32 -32 124 2 153 57 26 50 21
61 -27 60 -24 -1 -55 -4 -70 -6z"/>
<path d="M17468 3335 c-87 -80 -34 -189 76 -156 22 7 49 13 58 14 13 1 14 5 6
21 -15 28 -99 141 -106 144 -4 1 -19 -9 -34 -23z"/>
<path d="M8603 3293 c-26 -5 -63 -48 -63 -74 0 -26 27 -49 58 -49 37 0 88 33
107 69 26 52 21 61 -32 60 -27 -1 -58 -4 -70 -6z"/>
<path d="M10061 3375 c-61 -69 -65 -179 -8 -199 20 -7 37 -6 60 3 18 7 37 13
44 14 7 0 10 3 8 7 -2 4 5 25 16 48 24 47 28 124 9 147 -8 9 -29 15 -55 15
-36 0 -48 -5 -74 -35z"/>
<path d="M11695 3377 c-77 -77 -67 -206 14 -207 30 0 89 38 97 63 3 9 8 15 12
13 4 -2 8 7 9 20 11 124 3 144 -59 144 -32 0 -47 -7 -73 -33z"/>
<path d="M13358 3393 c-25 -16 -54 -61 -44 -70 2 -3 43 -5 90 -6 77 -2 85 0
90 18 3 10 0 30 -7 45 -10 21 -20 25 -57 27 -29 2 -55 -3 -72 -14z"/>
<path d="M15245 3377 c-55 -55 -49 -63 53 -62 75 0 88 3 95 19 4 10 2 30 -6
45 -10 22 -20 26 -60 29 -43 3 -51 0 -82 -31z"/>
<path d="M15948 3293 c-55 -8 -90 -91 -49 -113 46 -24 117 4 146 59 26 50 21
61 -27 60 -24 -1 -55 -4 -70 -6z"/>
<path d="M18395 3377 c-54 -54 -72 -151 -33 -187 66 -61 171 29 171 146 0 56
-16 74 -65 74 -32 0 -47 -7 -73 -33z"/>
<path d="M20161 3375 c-35 -41 -55 -105 -46 -151 14 -79 116 -69 164 16 19 34
36 164 19 154 -3 -2 -9 0 -13 6 -3 5 -26 10 -50 10 -37 0 -47 -5 -74 -35z"/>
<path d="M21485 3377 c-55 -55 -49 -63 53 -62 75 0 88 3 95 19 4 10 2 30 -6
45 -10 22 -20 26 -60 29 -43 3 -51 0 -82 -31z"/>
<path d="M23243 3381 c-48 -48 -67 -137 -37 -179 22 -32 86 -31 120 3 51 51
72 156 38 189 -26 27 -88 20 -121 -13z"/>
<path d="M3350 2846 c0 -38 -150 -219 -220 -267 -19 -12 -37 -26 -40 -29 -13
-15 -116 -74 -215 -124 -149 -73 -260 -104 -460 -127 -55 -6 -136 -17 -180
-25 -44 -8 -131 -20 -193 -28 -167 -20 -179 -35 -243 -288 -10 -42 -9 -55 12
-114 23 -66 66 -114 100 -114 8 0 20 -5 25 -10 13 -13 139 -27 264 -29 85 -2
207 17 360 55 58 14 186 57 194 65 6 5 16 9 23 9 12 0 45 13 148 60 55 24 158
104 172 132 27 54 33 100 31 228 -3 130 -2 137 25 195 21 45 52 83 121 150 52
50 104 110 116 133 22 42 22 45 6 78 -9 19 -16 41 -16 49 0 8 -7 15 -15 15 -8
0 -15 -6 -15 -14z"/>
<path d="M2300 2454 c-145 -76 -159 -84 -138 -84 18 0 145 43 188 63 64 30 89
49 83 63 -8 21 -18 18 -133 -42z"/>
<path d="M13902 1853 c-38 -15 -54 -111 -27 -163 28 -55 102 -53 129 4 19 40
20 71 5 115 -16 44 -60 63 -107 44z"/>
<path d="M15950 1828 c-38 -62 -17 -161 37 -174 44 -11 76 7 92 52 28 80 -8
154 -74 154 -29 0 -39 -6 -55 -32z"/>
<path d="M11964 1848 c-16 -45 -30 -86 -32 -90 -2 -4 28 -8 67 -8 l70 0 -32
90 c-17 50 -34 90 -38 90 -3 0 -19 -37 -35 -82z"/>
<path d="M18791 1929 c-41 -45 -41 -211 0 -255 27 -29 69 -31 92 -6 9 10 21
42 28 71 13 62 -1 163 -27 192 -23 25 -69 24 -93 -2z"/>
<path d="M13002 1853 c-11 -4 -42 -54 -42 -68 0 -3 39 -5 86 -5 84 0 85 0 78
23 -12 39 -35 57 -73 56 -20 0 -42 -3 -49 -6z"/>
<path d="M13592 1853 c-11 -4 -42 -54 -42 -68 0 -3 39 -5 86 -5 84 0 85 0 78
23 -12 39 -35 57 -73 56 -20 0 -42 -3 -49 -6z"/>
<path d="M14361 1841 c-46 -46 -33 -166 20 -185 67 -23 115 29 107 116 -3 27
-13 57 -23 68 -24 26 -79 26 -104 1z"/>
<path d="M16583 1750 c-31 -13 -40 -55 -18 -80 41 -45 117 -12 131 58 l7 32
-49 -1 c-27 0 -59 -4 -71 -9z"/>
<path d="M17513 1750 c-31 -13 -40 -55 -18 -80 41 -45 117 -12 131 58 l7 32
-49 -1 c-27 0 -59 -4 -71 -9z"/>
<path d="M960 1170 l0 -41 51 3 c36 2 55 8 63 21 19 30 -4 52 -63 55 l-51 3 0
-41z"/>
<path d="M962 1050 l-3 -50 50 0 c53 0 81 17 81 50 0 32 -28 50 -78 50 l-47 0
-3 -50z"/>
<path d="M3772 1210 c-25 -11 -52 -65 -52 -105 0 -71 57 -126 115 -111 67 17
88 154 31 203 -28 24 -56 28 -94 13z"/>
<path d="M28941 1173 c-25 -95 -41 -161 -41 -167 0 -3 20 -6 45 -6 83 0 127
39 141 128 9 56 -18 82 -86 82 -49 0 -49 -1 -59 -37z"/>
<path d="M29226 1174 c-4 -19 -10 -42 -13 -50 -4 -11 5 -14 41 -14 38 0 48 4
62 25 10 16 14 34 10 50 -6 22 -12 25 -50 25 -42 0 -44 -1 -50 -36z"/>
<path d="M29446 1139 c-20 -33 -36 -62 -36 -65 0 -2 23 -4 51 -4 l52 0 -7 31
c-3 17 -6 47 -6 65 0 19 -4 34 -9 34 -5 0 -25 -27 -45 -61z"/>
<path d="M1234 1142 c-6 -4 -16 -17 -23 -29 -12 -23 -11 -23 54 -23 36 0 65 3
65 8 0 4 -7 18 -16 30 -15 22 -57 30 -80 14z"/>
<path d="M2056 1134 c-26 -25 -25 -98 1 -126 40 -45 93 -5 93 69 0 47 -19 73
-55 73 -13 0 -31 -7 -39 -16z"/>
<path d="M2766 1134 c-18 -18 -21 -85 -6 -115 13 -24 72 -26 91 -2 17 20 17
97 -1 118 -16 20 -64 19 -84 -1z"/>
</g>
</svg>
