<?xml version="1.0" encoding="UTF-8"?>
<svg version="1.1" xmlns="http://www.w3.org/2000/svg" width="512" height="512">
<path d="M0 0 C1.23916168 -0.00571014 2.47832336 -0.01142029 3.7550354 -0.01730347 C5.1204833 -0.01854866 6.48593131 -0.01967379 7.85137939 -0.02069092 C9.29562506 -0.0253225 10.73986951 -0.03034761 12.18411255 -0.03573608 C16.10165075 -0.04882966 20.01917183 -0.05529913 23.93672848 -0.05974674 C26.38699255 -0.06268248 28.837252 -0.06678824 31.28751373 -0.07125092 C38.96177674 -0.08491805 46.63602912 -0.09458845 54.31030345 -0.09845281 C63.15432987 -0.10293128 71.99820158 -0.12047265 80.84218097 -0.1494534 C87.68822886 -0.17110462 94.53423332 -0.18115893 101.38031507 -0.18249393 C105.46456945 -0.18353952 109.54867823 -0.18939487 113.63289642 -0.20731354 C117.47758177 -0.2238538 121.32201299 -0.22592106 125.16672134 -0.21717453 C126.57232725 -0.21640732 127.97794716 -0.22070492 129.38351822 -0.23063278 C147.18117616 -0.34889991 147.18117616 -0.34889991 153.66607666 5.83453369 C156.05484179 9.46608961 157.90254149 13.05892216 159.63360596 17.03497314 C159.97679871 17.80208618 160.31999146 18.56919922 160.67358398 19.35955811 C161.80118666 21.88661485 162.91473545 24.41960009 164.02813721 26.95294189 C164.8256385 28.74844441 165.6239114 30.54360438 166.4229126 32.33843994 C168.90924204 37.93307577 171.37592542 43.53625702 173.84063721 49.14044189 C174.60418421 50.87356983 175.36785286 52.60664418 176.13165283 54.33966064 C179.85701561 62.79571873 183.569376 71.25741243 187.27423096 79.72247314 C191.93643453 90.37357876 196.63663725 101.00774472 201.34063721 111.64044189 C215.25654135 143.10418934 229.0624461 174.61618297 242.84063721 206.14044189 C247.81606459 194.74800848 252.00712376 183.05963995 256.27813721 171.39044189 C256.67458435 170.30909973 257.07103149 169.22775757 257.47949219 168.11364746 C271.78250587 129.07904104 285.17256688 89.73353463 298.47323608 50.34812927 C299.55027308 47.16228301 300.6316741 43.97792978 301.71411133 40.79391479 C302.20338028 39.35124095 302.69066664 37.90789272 303.17565918 36.46377563 C313.66753927 5.22699086 313.66753927 5.22699086 321.84063721 1.14044189 C323.91747133 1.03767502 325.99766526 1.00091232 328.07702637 0.99327087 C328.72378665 0.98959419 329.37054693 0.9859175 330.036906 0.9821294 C332.21400403 0.97107622 334.39105436 0.96724596 336.56817627 0.96343994 C338.12522026 0.95717648 339.68226275 0.95052979 341.23930359 0.94352722 C345.47705097 0.92610575 349.71478705 0.91556218 353.95256138 0.90732169 C356.59960947 0.90217358 359.24665404 0.89609774 361.89369965 0.88981056 C370.17398136 0.87075462 378.45425414 0.85652478 386.73455358 0.84819859 C396.29578369 0.838426 405.85678231 0.81210768 415.41793084 0.7716977 C422.80569158 0.74154413 430.19338595 0.72673041 437.58120704 0.72341758 C441.9946543 0.72106607 446.40785436 0.71209283 450.82123566 0.68695641 C454.97452716 0.66368407 459.12740857 0.65943894 463.28074837 0.66971779 C464.8037229 0.67021348 466.32671756 0.66388313 467.84963036 0.65016174 C469.93234846 0.63244917 472.01359381 0.6395437 474.09631348 0.6526947 C475.26070576 0.65030635 476.42509804 0.647918 477.62477493 0.64545727 C482.67873637 1.42336161 485.75878911 4.00165443 489.21563721 7.64044189 C491.56389447 12.69822676 491.81161028 17.65729983 490.84063721 23.14044189 C488.25642925 27.86291512 485.21469656 30.64688455 480.95829964 33.89107323 C467.38740492 44.24872982 451.66000771 56.76094881 448.28821754 74.31256199 C446.4425402 88.39652255 447.41886752 102.68098441 448.30638123 116.80524826 C448.64520779 122.76063282 448.81580601 128.71994943 448.98199391 134.68210948 C449.0777282 138.1130229 449.18029528 141.543721 449.28469849 144.97438049 C449.30560464 145.66283599 449.3265108 146.35129149 449.34805048 147.06060928 C449.50229855 151.99846461 449.69615379 156.93388231 449.90707397 161.86961365 C450.76357394 182.13515061 450.95856565 202.33920569 450.7988379 222.62099671 C450.77105925 226.4135125 450.75330907 230.20606857 450.73545837 233.99864197 C450.7281266 235.49997881 450.72077224 237.00131555 450.71339512 238.50265217 C450.70977659 239.24236118 450.70615807 239.98207019 450.70242989 240.74419463 C450.65577125 250.25201182 450.60280509 259.75931808 450.49795532 269.26669312 C450.4236979 276.11560888 450.41538672 282.96224369 450.44759941 289.81146622 C450.44918564 292.32615121 450.42970624 294.84095365 450.38731575 297.35528183 C449.6367496 312.2166993 449.6367496 312.2166993 456.05161667 324.94933414 C458.51456676 327.22931989 461.12636783 329.16481489 463.84063721 331.14044189 C465.10671531 332.49165336 466.3423013 333.87410285 467.50860596 335.31231689 C472.1931605 340.80484705 477.44038152 345.74890414 482.60821533 350.78106689 C483.38229736 351.54419189 484.15637939 352.30731689 484.95391846 353.09356689 C485.65299316 353.77580322 486.35206787 354.45803955 487.07232666 355.16094971 C491.27021109 359.86016923 491.27213094 364.1130763 491.15313721 370.22637939 C490.7273677 374.19668009 489.58158934 376.25522912 486.84063721 379.14044189 C480.75169254 383.93386642 475.61616417 384.28996294 468.08679199 384.28088379 C467.31299501 384.28385491 466.53919803 384.28682603 465.74195266 384.28988719 C463.15276618 384.29854888 460.56362608 384.30008029 457.97442627 384.30157471 C456.11639304 384.30620467 454.25836077 384.31122957 452.40032959 384.31661987 C447.3547281 384.32972861 442.30913991 384.33618584 437.26352406 384.34063053 C434.10971969 384.34356368 430.95591894 384.34766894 427.80211639 384.3521347 C417.93017286 384.36580552 408.0582376 384.37547425 398.18628526 384.3793366 C386.79873103 384.38381666 375.41129687 384.40136397 364.02377915 384.43033719 C355.21596477 384.45196741 346.40818413 384.46204159 337.60034347 384.46337771 C332.34238425 384.46442476 327.08453796 384.47031139 321.82660675 384.48819733 C316.8788158 384.50470116 311.9312224 384.50682225 306.9834137 384.49805832 C305.17144491 384.49728919 303.35946539 384.50161425 301.5475235 384.51151657 C280.75952829 384.61842577 280.75952829 384.61842577 275.24448013 379.72386551 C271.69221937 375.71719676 270.64640739 372.17956485 270.40313721 366.95294189 C270.34255127 366.05188721 270.28196533 365.15083252 270.21954346 364.22247314 C271.7983612 356.38796248 278.76699504 351.2847191 284.74734497 346.584198 C298.39298843 335.25895033 311.86198864 323.94738876 314.21519148 305.51983917 C315.10994712 295.39362198 314.75281472 285.24391338 314.2880311 275.10530043 C314.07162899 269.56432113 314.05522677 264.02230499 314.01516724 258.47775269 C313.9105596 248.03582614 313.63319286 237.60638242 313.28928459 227.16989291 C312.90574456 215.26543019 312.72146725 203.3602853 312.5516398 191.45115733 C312.19871586 167.0073985 311.60295248 142.57462659 310.84063721 118.14044189 C310.62134017 118.77646898 310.40204313 119.41249607 310.17610073 120.06779671 C308.06695047 126.18442966 305.95689576 132.30074984 303.84592527 138.41675484 C302.76176196 141.55793951 301.67799962 144.69926107 300.59483337 147.84078979 C293.57226322 168.20744358 286.42323965 188.52644453 279.20391846 208.82403564 C276.12976699 217.47256065 273.09105222 226.13300286 270.07110596 234.80059814 C260.72799016 261.60074364 251.18745258 288.3127811 241.31036377 314.92120361 C237.33760432 325.62744418 233.38598898 336.33742993 229.58282471 347.10528564 C229.2578299 348.02317871 228.93283508 348.94107178 228.59799194 349.88677979 C227.11547723 354.07786353 225.64307371 358.2720026 224.18878174 362.47296143 C218.20263034 379.57892332 218.20263034 379.57892332 212.21563721 384.14044189 C206.05342612 385.96628222 200.24210904 386.31934625 194.40313721 383.45294189 C190.11866323 379.58646538 187.37578476 375.59004894 184.98516846 370.35528564 C184.45423584 369.20383057 183.92330322 368.05237549 183.37628174 366.86602783 C183.09673645 366.251427 182.81719116 365.63682617 182.5291748 365.00360107 C181.31552347 362.33581736 180.08625212 359.67531931 178.85809326 357.01419067 C178.2018031 355.59179705 177.54630079 354.16903968 176.89154053 352.74594116 C173.48923451 345.35608709 170.0155939 338.00048188 166.53424072 330.64761353 C164.73475705 326.8466308 162.93828352 323.04422554 161.14141846 319.24200439 C160.78419708 318.48628647 160.42697571 317.73056854 160.05892944 316.95195007 C156.2499686 308.89309116 152.44929834 300.83033736 148.65313721 292.76544189 C148.32153595 292.06098938 147.98993469 291.35653687 147.64828491 290.6307373 C142.75966779 280.24289178 137.89867303 269.84240532 133.0506897 259.43554688 C127.15117684 246.77483001 121.18621705 234.14533024 115.2166748 221.51751709 C114.85926208 220.76144165 114.50184937 220.00536621 114.13360596 219.22637939 C113.7760321 218.46998169 113.41845825 217.71358398 113.05004883 216.93426514 C108.62806298 207.57803444 104.22264694 198.21401212 99.81890869 188.84918213 C99.164697 187.45798568 98.5104815 186.06679102 97.85626221 184.67559814 C97.53206802 183.98616623 97.20787384 183.29673431 96.87385559 182.58641052 C94.75605987 178.08372115 92.63498458 173.58258906 90.5118866 169.08239746 C89.03811614 165.95841291 87.56522493 162.83401416 86.09237671 159.70959473 C85.39153747 158.22350927 84.69027467 156.73762348 83.98855591 155.25195312 C83.01496093 153.19056538 82.0428828 151.12846848 81.07110596 149.06622314 C80.51833984 147.89486816 79.96557373 146.72351318 79.39605713 145.5166626 C77.81337234 142.08126032 76.32445638 138.61941866 74.84063721 135.14044189 C74.53643628 156.31567712 74.30746004 177.49055018 74.16707897 198.66753006 C74.10015292 208.50136778 74.00897834 218.33384494 73.85992432 228.16680908 C73.73001078 236.74120737 73.64640231 245.31462014 73.61748677 253.88997531 C73.60059226 258.42774198 73.56113945 262.96269035 73.46614647 267.49954987 C73.37728705 271.77850988 73.35080104 276.0535179 73.37023735 280.33331299 C73.36668727 281.8958976 73.34117315 283.45862679 73.29096603 285.02040863 C73.09153946 291.54922464 73.05500419 297.53265286 77.63531494 302.62948132 C80.32242348 305.25494324 83.1966091 307.57439768 86.190135 309.83889502 C88.81864699 311.9116772 91.124939 314.24831752 93.49151611 316.61431885 C94.85695053 317.96050041 94.85695053 317.96050041 96.24996948 319.33387756 C97.17965546 320.25617661 98.10934143 321.17847565 99.06719971 322.12872314 C99.55903118 322.61647909 100.05086266 323.10423504 100.55759811 323.60677147 C103.14452939 326.1731778 105.72841597 328.74260462 108.30987549 331.31451416 C110.95635748 333.94979878 113.61436051 336.57315648 116.27483559 339.19430256 C118.34390646 341.23720171 120.40401557 343.28896356 122.46183395 345.34319115 C123.43841079 346.31493 124.41833346 347.28331944 125.40178299 348.24810219 C136.47675665 359.12521861 136.47675665 359.12521861 137.02032471 366.61700439 C136.19190368 372.4584347 134.92168263 376.11720329 130.59063721 380.32794189 C123.73385001 384.847188 116.47661816 384.43224433 108.53057861 384.4151001 C107.3053096 384.42021103 106.08004059 384.42532196 104.81764221 384.43058777 C101.47243571 384.44207213 98.12747773 384.44456278 94.782269 384.44202447 C91.98179201 384.44095078 89.18133759 384.44584833 86.38086545 384.45062989 C79.76945692 384.46170568 73.15810521 384.46217352 66.54669189 384.45611572 C59.7443983 384.45007849 52.94231168 384.4623849 46.14005339 384.48368579 C40.28333114 384.501346 34.4266745 384.50729616 28.56992662 384.50404805 C25.07927146 384.5022419 21.58876394 384.50480402 18.09813309 384.51876259 C14.20183555 384.5337618 10.30579821 384.52433223 6.40948486 384.51275635 C5.26529587 384.52040009 4.12110687 384.52804382 2.94224548 384.53591919 C-11.47875939 384.44145861 -11.47875939 384.44145861 -16.77823448 379.68852711 C-20.36327826 375.5078739 -21.34418112 372.79339249 -21.47186279 367.39044189 C-21.50924561 366.36434814 -21.54662842 365.33825439 -21.58514404 364.28106689 C-20.5905907 356.94509548 -14.19610584 351.89807305 -9.17498779 346.92559814 C-8.40056335 346.15163193 -7.62613892 345.37766571 -6.82824707 344.58024597 C-5.19326589 342.94827699 -3.55586383 341.3187302 -1.91619873 339.69146729 C0.57359285 337.21986176 3.05535935 334.74041906 5.53594971 332.25958252 C7.13183443 330.66861669 8.72817404 329.07810701 10.32501221 327.48809814 C11.42543854 326.38934105 11.42543854 326.38934105 12.5480957 325.26838684 C15.8016294 322.04420287 19.0730133 318.90188769 22.56036377 315.93121338 C23.16823699 315.38302098 23.77611021 314.83482859 24.40240383 314.2700243 C25.69745152 313.13891405 27.0033058 312.01669549 28.37179911 310.97564554 C34.27989483 306.4755418 39.61866331 301.87158744 41.13155556 294.32107449 C41.86694989 288.48445961 41.88698558 282.63911293 41.91949463 276.76446533 C41.97813293 274.51729134 42.04184655 272.27024498 42.11021423 270.02334595 C42.27559291 263.94825497 42.35602811 257.875064 42.41015792 251.79806042 C42.44619998 247.98988292 42.49762485 244.18220688 42.55370522 240.37427521 C42.70620258 229.79001818 42.83696397 219.20619802 42.87720776 208.62090683 C42.88111195 207.60804655 42.88111195 207.60804655 42.88509502 206.57472445 C42.88767717 205.8980483 42.89025932 205.22137215 42.89291972 204.52419066 C42.89815935 203.15343572 42.90343698 201.78268092 42.90875244 200.41192627 C42.91136872 199.73201292 42.91398499 199.05209958 42.91668055 198.3515828 C42.96355545 187.35831089 43.18221063 176.37581687 43.47620507 165.38664553 C43.776995 154.05013915 43.92839033 142.72079709 43.94471437 131.3795855 C43.95695976 125.03073213 44.02854971 118.69690879 44.25572777 112.35179901 C46.14807486 85.94303359 46.14807486 85.94303359 36.19946671 62.66383362 C27.65339949 54.65674287 17.31705021 49.52636369 6.80570412 44.6051712 C1.54329809 42.0857553 -3.30129822 39.06445771 -8.15089417 35.83081055 C-9.27318091 35.09251019 -9.27318091 35.09251019 -10.41814011 34.33929467 C-14.97362732 31.2421497 -18.64273067 28.17370614 -21.15936279 23.14044189 C-21.66438622 17.61002137 -21.89743536 12.73013666 -19.53436279 7.64044189 C-13.56856194 1.36065152 -8.39198431 0.02321944 0 0 Z M50.84063721 33.14044189 C52.45735577 34.21825427 54.08934695 35.27927986 55.78594971 36.22637939 C67.35525154 43.06843962 73.40386546 55.35565961 79.21563721 67.01544189 C79.86625794 68.30032652 80.51780384 69.58474305 81.17022705 70.86871338 C82.47012908 73.43201688 83.76311128 75.99861439 85.04962158 78.56866455 C86.61826819 81.69697696 88.20169072 84.81698025 89.79376221 87.93341064 C96.27749065 100.6812781 102.31109463 113.62741395 108.29217529 126.61723328 C111.15875298 132.83974492 114.05743681 139.04713315 116.9586792 145.25354004 C123.4067786 159.04890287 129.82356056 172.85872299 136.23175049 186.67266846 C139.47692983 193.66728567 142.7245844 200.66075429 145.97247314 207.65411377 C148.64604453 213.41134299 151.31778012 219.16940763 153.98516846 224.92950439 C160.20979046 238.3649797 166.48203115 251.77688594 172.79412842 265.17141724 C179.30012076 278.9775652 185.76277668 292.80353021 192.20831299 306.63800049 C195.08323511 312.80665629 197.96207688 318.97348319 200.84063721 325.14044189 C203.13651792 322.84456118 203.6692121 321.22993239 204.73248291 318.17852783 C205.09658768 317.14274597 205.46069244 316.10696411 205.83583069 315.03979492 C206.22542465 313.91285217 206.61501862 312.78590942 207.01641846 311.62481689 C207.42345505 310.46226379 207.83049164 309.29971069 208.24986267 308.10192871 C209.33543091 304.99830281 210.41603816 301.89300842 211.49420166 298.7868042 C212.99573853 294.4655046 214.50750561 290.14776713 216.01712036 285.82928467 C216.8448095 283.45780375 217.6701375 281.08549733 218.49301147 278.71234131 C220.14834284 273.9429699 221.80501169 269.17916767 223.5960083 264.45880127 C224.29524414 262.60738525 224.29524414 262.60738525 225.00860596 260.71856689 C225.59098022 259.2321167 225.59098022 259.2321167 226.18511963 257.71563721 C227.62123515 252.07386943 224.74830477 247.28548277 222.47344971 242.19512939 C222.12733139 241.40982849 221.78121307 240.62452759 221.42460632 239.81542969 C220.2763545 237.21331107 219.12099979 234.61441015 217.96563721 232.01544189 C217.15129314 230.17368585 216.33741806 228.33172238 215.52398682 226.48956299 C213.82125039 222.63563792 212.11560069 218.78302212 210.40753174 214.93145752 C207.96143463 209.41514483 205.52289214 203.8955235 203.08673096 198.37481689 C198.34331084 187.62768975 193.59250454 176.88383623 188.84063721 166.14044189 C185.65247741 158.93240018 182.46474569 151.72416958 179.27813721 144.51544189 C178.88474152 143.62552551 178.49134583 142.73560913 178.08602905 141.81872559 C172.31774558 128.7679639 166.57206602 115.70742616 160.84063721 102.64044189 C154.79822375 88.86654902 148.74685598 75.09663884 142.67486572 61.33575439 C141.83483002 59.43152295 140.99530205 57.52706744 140.15631104 55.62237549 C138.991338 52.97801574 137.82445024 50.3345092 136.65704346 47.69122314 C136.14265465 46.52222221 136.14265465 46.52222221 135.61787415 45.3296051 C135.2950798 44.5998497 134.97228546 43.8700943 134.63970947 43.1182251 C134.22484032 42.17787163 134.22484032 42.17787163 133.80158997 41.21852112 C132.54286032 38.49649353 131.18181837 35.82280421 129.84063721 33.14044189 C103.77063721 33.14044189 77.70063721 33.14044189 50.84063721 33.14044189 Z M344.84063721 33.14044189 C344.8423291 46.61855713 344.8423291 46.61855713 344.84405518 60.36895752 C344.84344731 89.12009719 344.81340672 117.87113871 344.76484691 146.6222358 C344.75733089 151.08826508 344.7500754 155.55429474 344.74298096 160.02032471 C344.7415642 160.90942943 344.74014745 161.79853414 344.73868777 162.71458143 C344.71637031 177.11015106 344.71515836 191.50564901 344.72174858 205.90123111 C344.72804106 220.67285725 344.71164717 235.44433264 344.67420113 250.2159133 C344.65181023 259.33057008 344.64710686 268.44488343 344.66504057 277.55955154 C344.67564376 283.8101573 344.66420714 290.06048092 344.63547568 296.31102866 C344.61954909 299.91721957 344.61330546 303.52273925 344.63324547 307.12892532 C344.65462454 311.04137636 344.62957391 314.95275735 344.60012817 318.86517334 C344.61371427 320.0013732 344.62730037 321.13757306 344.64129817 322.30820322 C344.53303956 329.70319776 342.99702114 333.82626689 337.84063721 339.14044189 C337.31198275 339.70219384 336.7833283 340.26394578 336.23865402 340.84272051 C334.84784052 342.29342106 333.41882128 343.68991417 331.96563721 345.07794189 C330.23578626 346.74729288 328.5303081 348.42972528 326.84063721 350.14044189 C326.84063721 350.47044189 326.84063721 350.80044189 326.84063721 351.14044189 C362.81063721 351.14044189 398.78063721 351.14044189 435.84063721 351.14044189 C431.84008007 346.47312523 428.1371058 342.4137386 423.67266846 338.32794189 C418.32249954 331.9396805 418.39776295 325.41851688 418.40826416 317.43707275 C418.39809234 316.26362714 418.38792051 315.09018152 418.37744045 313.88117695 C418.35240494 310.63996062 418.34062932 307.39901503 418.33461475 304.1577177 C418.32491787 300.66383393 418.29809552 297.17007481 418.27355957 293.67626953 C418.22851278 286.85214912 418.19974323 280.02805527 418.17744386 273.20382607 C418.15926281 267.66522816 418.13639204 262.12666965 418.11013794 256.58810425 C418.1026215 254.99359799 418.09510623 253.39909173 418.08759212 251.80458546 C418.08385299 251.01153905 418.08011385 250.21849263 418.0762614 249.40141451 C418.02640092 238.71941039 417.9818603 228.03740059 417.94856262 217.35533142 C417.89133062 199.09707612 417.80688923 180.83950737 417.67458057 162.58163357 C417.58466147 150.10965062 417.51615739 137.63767149 417.46540356 125.16546726 C417.43478007 117.77444954 417.39461507 110.38375654 417.33004761 102.99295044 C417.2696167 96.05988062 417.24019633 89.12727253 417.23174286 82.19394684 C417.2237152 79.65768208 417.20537537 77.12142547 417.17588043 74.58531952 C417.13719362 71.12614766 417.13578617 67.66886837 417.14361572 64.20953369 C417.12361165 63.21166305 417.10360758 62.2137924 417.08299732 61.18568325 C417.1654036 53.24524143 419.96986755 48.26407059 425.35302067 42.52926159 C426.75860226 41.18041825 428.2359743 39.90757869 429.71563721 38.64044189 C431.43589834 37.15413627 433.14813048 35.65827711 434.84063721 34.14044189 C434.84063721 33.81044189 434.84063721 33.48044189 434.84063721 33.14044189 C405.14063721 33.14044189 375.44063721 33.14044189 344.84063721 33.14044189 Z M52.14923096 333.69903564 C51.68452896 334.16278091 51.21982697 334.62652618 50.74104309 335.10432434 C49.75714061 336.08754494 48.77450537 337.07203502 47.79302979 338.05767822 C46.2846106 339.57144555 44.77094522 341.07981806 43.25665283 342.58770752 C42.30385806 343.54116307 41.35137352 344.49492877 40.39923096 345.44903564 C39.52581055 346.32358398 38.65239014 347.19813232 37.75250244 348.09918213 C35.72670462 349.79595565 35.72670462 349.79595565 35.84063721 351.14044189 C50.36063721 351.14044189 64.88063721 351.14044189 79.84063721 351.14044189 C74.98216582 345.42438631 74.98216582 345.42438631 69.78985596 340.17559814 C69.09182861 339.52139893 68.39380127 338.86719971 67.67462158 338.19317627 C66.61211182 337.20801025 66.61211182 337.20801025 65.52813721 336.20294189 C64.43662354 335.17717041 64.43662354 335.17717041 63.32305908 334.13067627 C57.78894126 328.49230399 57.78894126 328.49230399 52.14923096 333.69903564 Z " fill="#000000" transform="translate(21.15936279296875,63.85955810546875)"/>
</svg>
